<svg width="221" height="164" viewBox="0 0 221 164" fill="none" xmlns="http://www.w3.org/2000/svg">
<path d="M198.302 150.895H183.754V151.004H198.302V150.895Z" fill="#EBEBEB"/>
<path d="M146.178 152.084H142.359V152.194H146.178V152.084Z" fill="#EBEBEB"/>
<path d="M183.316 146.814H174.887V146.924H183.316V146.814Z" fill="#EBEBEB"/>
<path d="M42.7098 147.551H23.7383V147.661H42.7098V147.551Z" fill="#EBEBEB"/>
<path d="M49.4027 147.551H46.6211V147.661H49.4027V147.551Z" fill="#EBEBEB"/>
<path d="M99.5864 149.406H58.4414V149.516H99.5864V149.406Z" fill="#EBEBEB"/>
<path d="M104.798 124.234H19.9837C18.6014 124.234 17.4766 123.11 17.4766 121.727V2.50711C17.4766 1.12486 18.6014 0 19.9837 0H104.798C106.18 0 107.305 1.12486 107.305 2.50711V121.727C107.305 123.11 106.18 124.234 104.798 124.234ZM19.9837 0.110246C18.6616 0.110246 17.5864 1.18547 17.5864 2.50754V121.728C17.5864 123.05 18.6616 124.125 19.9837 124.125H104.798C106.12 124.125 107.195 123.05 107.195 121.728V2.50711C107.195 1.18547 106.12 0.109807 104.798 0.109807L19.9837 0.110246Z" fill="#EBEBEB"/>
<path d="M199.801 124.234H114.987C113.605 124.234 112.48 123.11 112.48 121.727V2.50711C112.48 1.12486 113.605 0 114.987 0H199.801C201.184 0 202.308 1.12486 202.308 2.50711V121.727C202.308 123.11 201.184 124.234 199.801 124.234ZM114.987 0.110246C113.666 0.110246 112.59 1.18547 112.59 2.50754V121.728C112.59 123.05 113.666 124.125 114.987 124.125H199.801C201.123 124.125 202.198 123.05 202.198 121.728V2.50711C202.198 1.18547 201.123 0.109807 199.801 0.109807L114.987 0.110246Z" fill="#EBEBEB"/>
<path d="M220.309 143.822H0.695312V143.932H220.309V143.822Z" fill="#EBEBEB"/>
<path d="M170.186 117.379C170.138 117.337 170.112 117.277 170.109 117.213C170.055 116.045 169.352 104.582 162.332 96.7296C156.394 90.0863 162.485 94.8269 165.128 96.9633C165.34 97.1346 165.632 96.8838 165.493 96.6492C163.63 93.4991 158.955 85.1735 160.576 83.5528C162.108 82.0203 165.272 89.6251 166.685 93.3124C166.788 93.5795 167.187 93.4842 167.157 93.2C166.75 89.2961 166.157 81.1327 168.356 81.4195C170.534 81.7037 169.925 92.4893 169.495 97.7679C169.472 98.0605 169.888 98.1395 169.973 97.8584C170.956 94.6103 172.826 89.8105 175.021 91.082C178.27 92.9645 170.239 99.574 170.741 106.747C171.232 113.779 171.363 118.392 170.186 117.379Z" fill="#F5F5F5"/>
<path d="M174.401 118.439C174.425 118.436 174.456 118.331 174.443 118.251C172.91 108.537 183.198 101.474 190.422 97.9773C192.03 97.1994 193.699 96.3939 195.072 95.2009C192.393 95.3792 189.721 96.5015 187.155 97.361C186.817 97.4744 186.639 97.1238 186.931 96.9214C190.207 94.6453 199.332 86.2741 196.703 83.8372C195.515 82.7357 188.965 91.4719 187.422 93.0386C187.174 93.2907 186.776 93.0663 186.95 92.7733C188.984 89.3697 189.656 78.6359 187.598 78.7668C186.724 78.8222 186.394 83.8526 185.937 85.8977C185.079 89.7303 183.47 93.3307 181.789 96.8559C181.641 97.1669 181.123 97.1137 181.2 96.8032C181.784 94.4569 182.001 87.5746 179.114 88.0709C177.02 88.4311 177.355 92.4821 177.335 94.6541C177.3 98.5078 176.978 102.458 175.319 105.891C174.19 108.23 172.782 118.632 174.401 118.439Z" fill="#F5F5F5"/>
<path d="M172.07 119.515C172.103 119.486 172.12 119.446 172.122 119.403C172.158 118.619 172.63 110.925 177.342 105.653C181.329 101.194 177.24 104.376 175.466 105.81C175.323 105.925 175.127 105.757 175.221 105.599C176.471 103.485 179.61 97.8963 178.522 96.8084C177.493 95.7797 175.369 100.884 174.421 103.359C174.352 103.539 174.084 103.475 174.104 103.284C174.377 100.663 174.775 95.1836 173.299 95.376C171.838 95.5667 172.246 102.807 172.535 106.35C172.55 106.546 172.271 106.6 172.214 106.411C171.555 104.23 170.299 101.009 168.826 101.862C166.645 103.126 172.036 107.562 171.699 112.378C171.368 117.098 171.281 120.195 172.07 119.515Z" fill="#E6E6E6"/>
<path d="M177.383 141.149C179.81 132.101 181.408 119.359 181.408 116.221H163.309C163.309 119.359 164.906 132.101 167.333 141.149C167.779 142.812 169.29 143.964 171.012 143.964H173.704C175.426 143.964 176.937 142.812 177.383 141.149Z" fill="#E6E6E6"/>
<path d="M180.884 122.21C181.019 121.11 181.129 120.107 181.212 119.227H163.5C163.584 120.107 163.694 121.11 163.829 122.21H180.884Z" fill="#F5F5F5"/>
<path d="M27.1385 80.6582H48.1133V59.6834H27.1385L27.1385 80.6582Z" fill="#F5F5F5"/>
<path d="M31.1863 78.635H44.0679C45.1849 78.635 46.0901 77.7298 46.0901 76.6128V63.7312C46.0901 62.6142 45.1849 61.709 44.0679 61.709H31.1863C30.0693 61.709 29.1641 62.6142 29.1641 63.7312V76.6128C29.1641 77.7293 30.0697 78.635 31.1863 78.635Z" fill="#EBEBEB"/>
<path d="M41.1178 61.709C40.9962 62.2844 40.4827 62.7201 39.8726 62.7201H35.378C34.7675 62.7201 34.2545 62.2844 34.1328 61.709H41.1178Z" fill="#E0E0E0"/>
<path d="M27.1385 101.635H48.1133V80.6599H27.1385L27.1385 101.635Z" fill="#F0F0F0"/>
<path d="M31.1863 99.6092H44.0679C45.1849 99.6092 46.0901 98.7039 46.0901 97.587V84.7058C46.0901 83.5888 45.1849 82.6836 44.0679 82.6836H31.1863C30.0693 82.6836 29.1641 83.5888 29.1641 84.7058V97.5874C29.1641 98.7039 30.0697 99.6092 31.1863 99.6092Z" fill="#FAFAFA"/>
<path d="M41.1178 82.6836C40.9962 83.259 40.4827 83.6947 39.8726 83.6947H35.378C34.7675 83.6947 34.2545 83.259 34.1328 82.6836H41.1178Z" fill="#E0E0E0"/>
<path d="M27.1385 122.609H48.1133V101.635H27.1385L27.1385 122.609Z" fill="#F5F5F5"/>
<path d="M31.1863 120.584H44.0679C45.1849 120.584 46.0901 119.679 46.0901 118.562V105.68C46.0901 104.563 45.1849 103.658 44.0679 103.658H31.1863C30.0693 103.658 29.1641 104.563 29.1641 105.68V118.562C29.1641 119.679 30.0697 120.584 31.1863 120.584Z" fill="#EBEBEB"/>
<path d="M41.1174 103.658C40.9957 104.234 40.4823 104.669 39.8722 104.669H35.378C34.7675 104.669 34.2545 104.234 34.1328 103.658H41.1174Z" fill="#E0E0E0"/>
<path d="M27.1385 143.584H48.1133V122.609H27.1385L27.1385 143.584Z" fill="#F0F0F0"/>
<path d="M31.1863 141.559H44.0679C45.1849 141.559 46.0901 140.654 46.0901 139.537V126.655C46.0901 125.538 45.1849 124.633 44.0679 124.633H31.1863C30.0693 124.633 29.1641 125.538 29.1641 126.655V139.537C29.1641 140.654 30.0697 141.559 31.1863 141.559Z" fill="#FAFAFA"/>
<path d="M41.1174 124.633C40.9957 125.208 40.4823 125.644 39.8722 125.644H35.378C34.7675 125.644 34.2545 125.208 34.1328 124.633H41.1174Z" fill="#E0E0E0"/>
<path d="M24.5712 143.582H27.1406L27.1406 59.6827H24.5712L24.5712 143.582Z" fill="#E6E6E6"/>
<path d="M193.379 16.1621H172.969V36.5725H193.379V16.1621Z" fill="#F0F0F0"/>
<path d="M193.379 36.5723H194.344V16.1618H193.379V36.5723Z" fill="#E6E6E6"/>
<path d="M191.532 18.0098H174.816V34.7258H191.532V18.0098Z" fill="#E6E6E6"/>
<path d="M189.89 19.6523H176.461V33.0817H189.89V19.6523Z" fill="#FAFAFA"/>
<path d="M193.725 39.834H180.688V61.4637H193.725V39.834Z" fill="#F0F0F0"/>
<path d="M193.727 61.4629H194.344V39.8332H193.727V61.4629Z" fill="#E6E6E6"/>
<path d="M192.545 41.791H181.867V59.5059H192.545V41.791Z" fill="#E6E6E6"/>
<path d="M191.497 43.5352H182.918V57.767H191.497V43.5352Z" fill="#FAFAFA"/>
<path d="M158.517 27.6745C163.573 27.6745 167.671 24.9491 167.671 21.5872C167.671 18.2254 163.573 15.5 158.517 15.5C153.462 15.5 149.363 18.2254 149.363 21.5872C149.363 24.9491 153.462 27.6745 158.517 27.6745Z" fill="#E0E0E0"/>
<path d="M159.142 27.6745C164.198 27.6745 168.296 24.9491 168.296 21.5872C168.296 18.2254 164.198 15.5 159.142 15.5C154.087 15.5 149.988 18.2254 149.988 21.5872C149.988 24.9491 154.087 27.6745 159.142 27.6745Z" fill="#EBEBEB"/>
<path d="M159.14 26.3453C163.092 26.3453 166.296 24.2148 166.296 21.5867C166.296 18.9586 163.092 16.8281 159.14 16.8281C155.188 16.8281 151.984 18.9586 151.984 21.5867C151.984 24.2148 155.188 26.3453 159.14 26.3453Z" fill="#FAFAFA"/>
<path d="M110.501 163.419C157.534 163.419 195.662 161.193 195.662 158.446C195.662 155.699 157.534 153.473 110.501 153.473C63.4678 153.473 25.3398 155.699 25.3398 158.446C25.3398 161.193 63.4678 163.419 110.501 163.419Z" fill="#F5F5F5"/>
<path d="M79.5508 156.228V157.697C79.5508 158.458 80.1675 159.074 80.9282 159.074H133.602C134.303 159.074 134.871 158.506 134.871 157.805V156.392C134.871 155.691 134.303 155.123 133.602 155.123H120.503C119.015 155.123 117.886 153.782 118.14 152.316L122.735 125.77H92.8172L80.0071 154.115C79.7063 154.779 79.5508 155.499 79.5508 156.228Z" fill="#A72C2C"/>
<path opacity="0.2" d="M79.6852 155.073C79.5973 155.453 79.5508 155.838 79.5508 156.23V157.696C79.5508 158.456 80.1701 159.075 80.93 159.075H133.606C134.307 159.075 134.874 158.508 134.874 157.807V156.393C134.874 155.692 134.307 155.125 133.606 155.125H120.504C120.335 155.125 120.171 155.107 120.014 155.072H79.6852V155.073Z" fill="white"/>
<path d="M78.3188 154.114L91.1288 125.768H92.8225L80.0124 154.114C79.7124 154.778 79.5569 155.498 79.5569 156.227V157.695C79.5569 158.456 80.1736 159.073 80.9344 159.073H79.2407C78.48 159.073 77.8633 158.456 77.8633 157.695V156.227C77.8637 155.498 78.0188 154.777 78.3188 154.114Z" fill="#A72C2C"/>
<g opacity="0.2">
<path d="M78.3188 154.114L91.1288 125.768H92.8225L80.0124 154.114C79.7124 154.778 79.5569 155.498 79.5569 156.227V157.695C79.5569 158.456 80.1736 159.073 80.9344 159.073H79.2407C78.48 159.073 77.8633 158.456 77.8633 157.695V156.227C77.8637 155.498 78.0188 154.777 78.3188 154.114Z" fill="black"/>
</g>
<path opacity="0.2" d="M92.8188 125.77H122.737L121.564 132.544H89.7578L92.8188 125.77Z" fill="black"/>
<path d="M46.9793 128.743H174.629C177.206 128.743 179.113 126.654 178.887 124.076L170.817 31.8367C170.592 29.2593 168.32 27.1699 165.743 27.1699H38.0929C35.5155 27.1699 33.6088 29.2593 33.8346 31.8367L41.904 124.077C42.1298 126.654 44.4019 128.743 46.9793 128.743Z" fill="#263238"/>
<path d="M178.014 114.104L178.887 124.078C179.112 126.656 177.206 128.745 174.629 128.745H46.9788C44.4014 128.745 42.1293 126.656 41.904 124.078L41.0312 114.104H178.014Z" fill="#A72C2C"/>
<path d="M45.5406 111.287H173.021C174.418 111.287 175.452 110.154 175.33 108.757L168.66 32.5206C168.538 31.123 167.306 29.9902 165.908 29.9902H38.4282C37.0306 29.9902 35.9971 31.123 36.1192 32.5206L42.7888 108.757C42.9114 110.154 44.143 111.287 45.5406 111.287Z" fill="#A72C2C"/>
<path d="M45.5406 111.287H173.021C174.418 111.287 175.452 110.154 175.33 108.757L168.66 32.5206C168.538 31.123 167.306 29.9902 165.908 29.9902H38.4282C37.0306 29.9902 35.9971 31.123 36.1192 32.5206L42.7888 108.757C42.9114 110.154 44.143 111.287 45.5406 111.287Z" fill="#A72C2C"/>
<path d="M35.2729 27.1699H38.0954C35.518 27.1699 33.6113 29.2593 33.8371 31.8367L41.9066 124.076C42.1319 126.654 44.404 128.743 46.9814 128.743H44.1593C41.582 128.743 39.3098 126.654 39.0845 124.076L31.0142 31.8363C30.7889 29.2593 32.6955 27.1699 35.2729 27.1699Z" fill="#A72C2C"/>
<path opacity="0.2" d="M35.2729 27.1699H38.0954C35.518 27.1699 33.6113 29.2593 33.8371 31.8367L41.9066 124.076C42.1319 126.654 44.404 128.743 46.9814 128.743H44.1593C41.582 128.743 39.3098 126.654 39.0845 124.076L31.0142 31.8363C30.7889 29.2593 32.6955 27.1699 35.2729 27.1699Z" fill="#A72C2C"/>
<g opacity="0.3">
<path d="M40.1367 29.9883H45.0402L62.3203 111.285H57.4172L40.1367 29.9883Z" fill="white"/>
<path d="M67.2722 111.285L49.9922 29.9883H68.4147L85.6952 111.285H67.2722Z" fill="white"/>
</g>
<path opacity="0.6" d="M178.018 114.105L178.891 124.08C179.116 126.658 177.21 128.747 174.633 128.747H46.9827C44.4053 128.747 42.1332 126.658 41.9079 124.08L41.0352 114.105H178.018Z" fill="white"/>
<path opacity="0.2" d="M35.2729 27.2617H38.0954C35.518 27.2617 33.6113 29.3511 33.8371 31.9285L41.9066 124.168C42.1319 126.746 44.404 128.835 46.9814 128.835H44.1593C41.582 128.835 39.3098 126.746 39.0845 124.168L31.0142 31.9281C30.7889 29.3511 32.6955 27.2617 35.2729 27.2617Z" fill="white"/>
<path d="M51.1318 148.696C51.1146 148.723 51.2578 148.852 50.7707 148.883C49.5712 148.961 47.4546 148.937 46.689 147.92C45.5966 146.467 48.2127 146.537 47.9821 145.726C47.7515 144.916 44.9167 145.654 44.4015 144.502C43.8863 143.35 45.9269 143.525 45.8496 142.928C45.7723 142.33 43.6017 143.162 42.9296 141.943C42.2581 140.723 44.1151 141.338 43.8261 140.833C43.5371 140.328 41.2175 138.255 42.1966 137.754C43.1756 137.254 45.3485 139.425 46.0798 139.645C46.8111 139.864 47.0461 137.675 47.9948 138.382C48.9435 139.088 48.21 142.402 49.3296 142.783C50.1633 143.067 49.7385 141.896 50.7773 141.916C52.1885 141.941 52.5175 146.554 51.1318 148.696Z" fill="#A72C2C"/>
<g opacity="0.3">
<path d="M51.1318 148.696C51.1146 148.723 51.2578 148.852 50.7707 148.883C49.5712 148.961 47.4546 148.937 46.689 147.92C45.5966 146.467 48.2127 146.537 47.9821 145.726C47.7515 144.916 44.9167 145.654 44.4015 144.502C43.8863 143.35 45.9269 143.525 45.8496 142.928C45.7723 142.33 43.6017 143.162 42.9296 141.943C42.2581 140.723 44.1151 141.338 43.8261 140.833C43.5371 140.328 41.2175 138.255 42.1966 137.754C43.1756 137.254 45.3485 139.425 46.0798 139.645C46.8111 139.864 47.0461 137.675 47.9948 138.382C48.9435 139.088 48.21 142.402 49.3296 142.783C50.1633 143.067 49.7385 141.896 50.7773 141.916C52.1885 141.941 52.5175 146.554 51.1318 148.696Z" fill="white"/>
</g>
<path d="M51.707 149.986C52.6325 150.044 54.2519 149.253 54.9094 148.444C55.577 147.623 53.781 148.071 53.9923 147.413C54.2036 146.754 56.3676 147.342 56.8126 146.405C57.2575 145.468 55.6715 145.618 55.7554 145.133C55.8393 144.648 57.4683 144.819 58.0376 143.826C58.6064 142.834 57.1446 143.34 57.3889 142.929C57.6331 142.518 59.5116 140.826 58.7742 140.425C58.0367 140.022 56.2675 141.793 55.6926 141.974C55.118 142.155 55.0416 140.875 54.2787 141.452C53.5157 142.029 53.9501 144.716 53.0682 145.029C52.4115 145.263 52.7392 144.056 51.9828 144.331C50.6586 144.812 51.3315 149.962 51.707 149.986Z" fill="#A72C2C"/>
<g opacity="0.2">
<path d="M51.707 149.986C52.6325 150.044 54.2519 149.253 54.9094 148.444C55.577 147.623 53.781 148.071 53.9923 147.413C54.2036 146.754 56.3676 147.342 56.8126 146.405C57.2575 145.468 55.6715 145.618 55.7554 145.133C55.8393 144.648 57.4683 144.819 58.0376 143.826C58.6064 142.834 57.1446 143.34 57.3889 142.929C57.6331 142.518 59.5116 140.826 58.7742 140.425C58.0367 140.022 56.2675 141.793 55.6926 141.974C55.118 142.155 55.0416 140.875 54.2787 141.452C53.5157 142.029 53.9501 144.716 53.0682 145.029C52.4115 145.263 52.7392 144.056 51.9828 144.331C50.6586 144.812 51.3315 149.962 51.707 149.986Z" fill="white"/>
</g>
<path d="M50.0494 137.845C50.0107 137.904 50.3204 138.222 49.257 138.222C46.6388 138.223 42.0234 137.857 40.3846 135.409C38.0453 131.915 43.7482 132.46 43.269 130.566C42.7898 128.672 36.5862 129.949 35.4969 127.228C34.4076 124.507 38.8526 125.211 38.7019 123.829C38.5508 122.446 33.7923 124.035 32.3639 121.138C30.9355 118.241 34.9668 119.925 34.3514 118.724C33.736 117.523 28.7394 112.422 30.8894 111.419C33.0394 110.416 37.7137 115.718 39.3019 116.329C40.8897 116.941 41.4673 111.952 43.5154 113.713C45.5635 115.475 43.8655 122.972 46.2957 124.011C48.1058 124.785 47.2137 122.036 49.4784 122.234C52.5551 122.501 53.1354 133.135 50.0494 137.845Z" fill="#A72C2C"/>
<g opacity="0.3">
<path d="M50.0494 137.845C50.0107 137.904 50.3204 138.222 49.257 138.222C46.6388 138.223 42.0234 137.857 40.3846 135.409C38.0453 131.915 43.7482 132.46 43.269 130.566C42.7898 128.672 36.5862 129.949 35.4969 127.228C34.4076 124.507 38.8526 125.211 38.7019 123.829C38.5508 122.446 33.7923 124.035 32.3639 121.138C30.9355 118.241 34.9668 119.925 34.3514 118.724C33.736 117.523 28.7394 112.422 30.8894 111.419C33.0394 110.416 37.7137 115.718 39.3019 116.329C40.8897 116.941 41.4673 111.952 43.5154 113.713C45.5635 115.475 43.8655 122.972 46.2957 124.011C48.1058 124.785 47.2137 122.036 49.4784 122.234C52.5551 122.501 53.1354 133.135 50.0494 137.845Z" fill="white"/>
</g>
<path d="M53.0226 140.697C55.1709 140.832 58.9306 138.997 60.4574 137.117C62.0065 135.21 57.8378 136.253 58.3285 134.723C58.8191 133.194 63.8425 134.56 64.876 132.385C65.9095 130.209 62.2266 130.558 62.4216 129.431C62.6166 128.305 66.3988 128.701 67.7196 126.398C69.0403 124.095 65.6469 125.269 66.213 124.315C66.7796 123.362 71.1407 119.434 69.4286 118.501C67.7165 117.567 63.6093 121.676 62.2749 122.097C60.941 122.517 60.7635 119.546 58.993 120.886C57.222 122.226 58.2301 128.463 56.1828 129.191C54.6583 129.732 55.4195 126.93 53.6634 127.569C50.5888 128.687 52.1503 140.642 53.0226 140.697Z" fill="#A72C2C"/>
<g opacity="0.2">
<path d="M53.0226 140.697C55.1709 140.832 58.9306 138.997 60.4574 137.117C62.0065 135.21 57.8378 136.253 58.3285 134.723C58.8191 133.194 63.8425 134.56 64.876 132.385C65.9095 130.209 62.2266 130.558 62.4216 129.431C62.6166 128.305 66.3988 128.701 67.7196 126.398C69.0403 124.095 65.6469 125.269 66.213 124.315C66.7796 123.362 71.1407 119.434 69.4286 118.501C67.7165 117.567 63.6093 121.676 62.2749 122.097C60.941 122.517 60.7635 119.546 58.993 120.886C57.222 122.226 58.2301 128.463 56.1828 129.191C54.6583 129.732 55.4195 126.93 53.6634 127.569C50.5888 128.687 52.1503 140.642 53.0226 140.697Z" fill="white"/>
</g>
<path d="M51.6227 147.166C51.6271 147.166 51.6319 147.165 51.6368 147.165C51.7303 147.158 51.8002 147.076 51.7927 146.982C50.3657 129.335 40.5428 121.784 40.444 121.71C40.3689 121.653 40.2621 121.669 40.2059 121.744C40.1497 121.819 40.1646 121.926 40.2397 121.982C40.3377 122.055 50.0393 129.524 51.4532 147.01C51.4602 147.098 51.5349 147.166 51.6227 147.166Z" fill="#A72C2C"/>
<path d="M42.6475 124.243C42.7165 124.243 42.7819 124.201 42.8074 124.132C42.8399 124.044 42.7951 123.946 42.7073 123.913C42.6453 123.89 41.1586 123.352 38.669 123.775C38.5764 123.791 38.514 123.879 38.5298 123.971C38.5456 124.064 38.6335 124.127 38.7261 124.111C41.1186 123.705 42.5746 124.227 42.5891 124.232C42.608 124.24 42.6282 124.243 42.6475 124.243Z" fill="#A72C2C"/>
<path d="M44.4298 126.451C44.5198 126.451 44.5949 126.381 44.5998 126.289C44.8694 120.981 41.9648 116.706 41.9354 116.663C41.8823 116.586 41.776 116.567 41.6987 116.62C41.6214 116.673 41.6016 116.779 41.6552 116.857C41.6837 116.898 44.5233 121.082 44.2594 126.272C44.2545 126.365 44.327 126.446 44.4205 126.45C44.4241 126.451 44.4267 126.451 44.4298 126.451Z" fill="#A72C2C"/>
<path d="M47.2606 131.069C47.3037 131.069 47.3463 131.053 47.3792 131.02C47.4464 130.955 47.4478 130.847 47.3823 130.78C47.3603 130.757 45.1704 128.56 42.1467 129.506C42.0571 129.534 42.0071 129.629 42.0352 129.719C42.0633 129.809 42.1586 129.859 42.2482 129.831C45.0751 128.946 47.1183 130.997 47.1385 131.018C47.1719 131.052 47.2163 131.069 47.2606 131.069Z" fill="#A72C2C"/>
<path d="M48.7054 134.269C48.7691 134.269 48.8297 134.233 48.8591 134.172C48.9114 134.063 50.1351 131.438 49.6765 127.609C49.6651 127.516 49.5838 127.448 49.4872 127.461C49.3941 127.471 49.3273 127.556 49.3383 127.649C49.7846 131.375 48.564 134 48.5517 134.026C48.5113 134.11 48.5477 134.212 48.632 134.252C48.6558 134.264 48.6808 134.269 48.7054 134.269Z" fill="#A72C2C"/>
<path d="M51.2984 153.438C51.3867 153.438 51.4614 153.369 51.468 153.28L51.8791 148.638C53.1625 133.201 64.2003 123.117 64.3118 123.017C64.3817 122.955 64.3878 122.847 64.325 122.777C64.2618 122.707 64.1546 122.702 64.0848 122.764C63.9723 122.865 52.8353 133.034 51.5405 148.612L51.1293 153.255C51.1227 153.349 51.193 153.431 51.2866 153.437C51.2901 153.438 51.294 153.438 51.2984 153.438Z" fill="#A72C2C"/>
<path d="M59.7013 128.648C59.7105 128.648 59.7198 128.647 59.7294 128.646C59.7444 128.644 59.7628 128.637 59.7799 128.629L59.8357 128.609C61.2478 128.089 62.8119 127.853 64.2385 127.943C64.3338 127.951 64.4133 127.878 64.419 127.784C64.4252 127.69 64.3536 127.609 64.26 127.603C62.7869 127.511 61.174 127.754 59.718 128.29L59.6605 128.311C59.6504 128.314 59.6403 128.318 59.6306 128.323C59.5625 128.355 59.5208 128.429 59.5335 128.506C59.5476 128.589 59.6196 128.648 59.7013 128.648Z" fill="#A72C2C"/>
<path d="M58.1176 130.577C58.1202 130.577 58.1233 130.577 58.1259 130.577C58.2199 130.572 58.292 130.492 58.2876 130.399C58.0636 125.817 60.5812 122.159 60.6067 122.123C60.6603 122.046 60.6418 121.94 60.565 121.886C60.4872 121.832 60.3818 121.851 60.3282 121.928C60.3023 121.965 57.7183 125.715 57.948 130.415C57.9524 130.506 58.0275 130.577 58.1176 130.577Z" fill="#A72C2C"/>
<path d="M56.4632 133.159C56.5045 133.159 56.5462 133.144 56.5792 133.114C56.5972 133.097 58.3892 131.467 60.8823 132.242C60.9723 132.271 61.0672 132.22 61.0953 132.13C61.123 132.041 61.0729 131.945 60.9833 131.917C58.2957 131.081 56.425 132.792 56.3468 132.865C56.2783 132.929 56.2748 133.036 56.3385 133.105C56.3723 133.141 56.4175 133.159 56.4632 133.159Z" fill="#A72C2C"/>
<path d="M54.3171 137.435C54.3417 137.435 54.3663 137.429 54.3896 137.418C54.4743 137.378 54.5108 137.277 54.4708 137.192C54.4598 137.169 53.3859 134.839 53.7869 131.559C53.7984 131.465 53.732 131.381 53.6389 131.369C53.5454 131.354 53.4606 131.424 53.4496 131.517C53.0359 134.901 54.1172 137.239 54.1634 137.337C54.1923 137.399 54.2534 137.435 54.3171 137.435Z" fill="#A72C2C"/>
<path d="M51.4828 150.7C51.4929 150.7 51.5039 150.699 51.5145 150.696C51.6067 150.679 51.6677 150.591 51.6502 150.498C50.5108 144.416 47.0493 141.761 47.0141 141.735C46.939 141.679 46.8327 141.695 46.7761 141.769C46.7199 141.844 46.7352 141.951 46.8099 142.007C46.8437 142.033 50.2021 144.616 51.3159 150.56C51.3309 150.642 51.4025 150.7 51.4828 150.7Z" fill="#A72C2C"/>
<path d="M47.8987 143C47.9681 143 48.0331 142.957 48.0586 142.888C48.0911 142.8 48.0463 142.703 47.9584 142.67C47.9308 142.66 47.2675 142.419 46.169 142.606C46.0764 142.622 46.014 142.71 46.0298 142.802C46.0452 142.895 46.1339 142.958 46.2261 142.942C47.2267 142.772 47.8346 142.987 47.8407 142.989C47.8596 142.997 47.8794 143 47.8987 143Z" fill="#A72C2C"/>
<path d="M48.6718 143.953C48.7619 143.953 48.837 143.883 48.8418 143.792C48.9595 141.473 47.7297 139.662 47.6774 139.585C47.6243 139.508 47.5184 139.488 47.4407 139.542C47.3634 139.595 47.344 139.701 47.3972 139.779C47.4095 139.797 48.6138 141.574 48.5018 143.775C48.497 143.868 48.5695 143.949 48.663 143.953C48.6661 143.953 48.6687 143.953 48.6718 143.953Z" fill="#A72C2C"/>
<path d="M49.8858 145.942C49.9289 145.942 49.9715 145.926 50.0048 145.893C50.072 145.828 50.0734 145.72 50.0079 145.652C49.9679 145.611 49.0126 144.655 47.6545 145.079C47.5649 145.107 47.5149 145.202 47.543 145.292C47.5711 145.382 47.666 145.432 47.756 145.404C48.9173 145.04 49.7562 145.881 49.7641 145.89C49.7975 145.925 49.8414 145.942 49.8858 145.942Z" fill="#A72C2C"/>
<path d="M50.5099 147.321C50.5731 147.321 50.6342 147.284 50.6632 147.223C50.6864 147.175 51.2249 146.02 51.0242 144.343C51.0128 144.25 50.9307 144.182 50.8349 144.195C50.7418 144.206 50.675 144.291 50.6864 144.384C50.8749 145.958 50.3614 147.066 50.3561 147.077C50.3162 147.162 50.3522 147.263 50.437 147.304C50.4602 147.315 50.4853 147.321 50.5099 147.321Z" fill="#A72C2C"/>
<path d="M51.6078 150.848C51.6833 150.848 51.7519 150.798 51.7721 150.721C53.1051 145.661 56.5943 142.479 56.6295 142.447C56.6993 142.385 56.705 142.277 56.6422 142.207C56.579 142.137 56.4718 142.131 56.4019 142.194C56.3659 142.226 52.8025 145.472 51.4431 150.635C51.4194 150.726 51.4734 150.818 51.5643 150.842C51.5788 150.846 51.5933 150.848 51.6078 150.848Z" fill="#A72C2C"/>
<path d="M54.4095 144.761C54.3924 144.675 54.4438 144.591 54.5259 144.565C54.5356 144.561 54.5444 144.558 54.5492 144.556C55.1883 144.321 55.8976 144.214 56.5459 144.254C56.6395 144.26 56.7111 144.341 56.7049 144.435C56.6992 144.529 56.6158 144.6 56.5244 144.594C55.9222 144.556 55.263 144.655 54.6669 144.875L54.6458 144.883C54.6335 144.888 54.6208 144.892 54.6094 144.894C54.598 144.896 54.587 144.898 54.576 144.898C54.4965 144.898 54.4254 144.842 54.4095 144.761ZM54.4904 144.582C54.4965 144.578 54.5119 144.572 54.5259 144.566C54.5128 144.57 54.5009 144.575 54.4904 144.582Z" fill="#A72C2C"/>
<path d="M53.8992 145.73C53.9022 145.73 53.9049 145.73 53.9075 145.729C54.0015 145.725 54.0735 145.645 54.0691 145.552C53.9743 143.614 55.0398 142.062 55.0508 142.046C55.1048 141.969 55.0859 141.863 55.0086 141.81C54.9322 141.757 54.8255 141.775 54.7719 141.851C54.7253 141.918 53.6286 143.51 53.7292 145.568C53.734 145.659 53.8091 145.73 53.8992 145.73Z" fill="#A72C2C"/>
<path d="M53.1859 146.841C53.2272 146.841 53.2689 146.826 53.3014 146.796C53.3313 146.769 54.0428 146.126 55.0605 146.442C55.1505 146.471 55.2454 146.419 55.2735 146.33C55.3016 146.24 55.2511 146.145 55.1615 146.117C53.9519 145.74 53.1051 146.514 53.0695 146.547C53.001 146.611 52.9974 146.718 53.0611 146.787C53.095 146.823 53.1402 146.841 53.1859 146.841Z" fill="#A72C2C"/>
<path d="M52.2603 148.682C52.2845 148.682 52.3091 148.677 52.3328 148.666C52.4176 148.626 52.454 148.525 52.4145 148.44C52.4097 148.43 51.9595 147.448 52.1286 146.066C52.14 145.973 52.0736 145.888 51.9805 145.877C51.8874 145.862 51.8026 145.932 51.7912 146.025C51.6094 147.51 52.0868 148.542 52.107 148.585C52.1356 148.646 52.1966 148.682 52.2603 148.682Z" fill="#A72C2C"/>
<path d="M48.9309 158.748H54.365C54.9444 158.748 55.4346 158.447 55.5123 158.044L56.9644 150.494H46.332L47.7841 158.044C47.8614 158.447 48.3516 158.748 48.9309 158.748Z" fill="#A72C2C"/>
<path d="M45.4453 150.467V151.855H46.5921L47.7829 158.042C47.858 158.445 48.3477 158.746 48.9297 158.746H54.3634C54.9418 158.746 55.4316 158.445 55.5102 158.042L56.7009 151.855H58.0212V150.467H45.4453Z" fill="#A72C2C"/>
<path opacity="0.5" d="M45.4453 150.467V151.855H46.5921L47.7829 158.042C47.858 158.445 48.3477 158.746 48.9297 158.746H54.3634C54.9418 158.746 55.4316 158.445 55.5102 158.042L56.7009 151.855H58.0212V150.467H45.4453Z" fill="black"/>
<path d="M140.202 5.08789H75.7148V111.405H140.202V5.08789Z" fill="#A72C2C"/>
<g opacity="0.9">
<path d="M140.202 5.08789H75.7148V111.405H140.202V5.08789Z" fill="white"/>
</g>
<path d="M108.134 52.2324H107.699V108.115H108.134V52.2324Z" fill="#A72C2C"/>
<path d="M136.821 80.0059H117.039V81.0464H136.821V80.0059Z" fill="#263238"/>
<path d="M136.821 82.6426H117.039V83.6831H136.821V82.6426Z" fill="#263238"/>
<path d="M136.821 85.2812H117.039V86.3218H136.821V85.2812Z" fill="#263238"/>
<path d="M136.821 87.9199H117.039V88.9604H136.821V87.9199Z" fill="#263238"/>
<path d="M125.643 74.7402H117.039V75.7808H125.643V74.7402Z" fill="#A72C2C"/>
<path d="M126.93 80.0039H117.039V81.0444H126.93V80.0039Z" fill="#A72C2C"/>
<path d="M123.753 82.6426H117.039V83.6831H123.753V82.6426Z" fill="#A72C2C"/>
<path d="M132.82 85.2793H117.039V86.3198H132.82V85.2793Z" fill="#A72C2C"/>
<path d="M129.028 87.918H117.039V88.9585H129.028V87.918Z" fill="#A72C2C"/>
<path d="M115.362 80.2656H111.18V80.7861H115.362V80.2656Z" fill="#263238"/>
<path d="M115.362 82.9043H111.18V83.4248H115.362V82.9043Z" fill="#263238"/>
<path d="M115.362 85.541H111.18V86.0611H115.362V85.541Z" fill="#263238"/>
<path d="M115.362 88.1777H111.18V88.6982H115.362V88.1777Z" fill="#263238"/>
<path d="M110.902 75.4823L111.289 75.5451C111.338 75.7384 111.414 75.9215 111.517 76.0928L111.294 76.4042C111.253 76.4622 111.26 76.5417 111.31 76.5918L111.722 77.0038C111.772 77.0538 111.851 77.0604 111.909 77.0191L112.221 76.7964C112.392 76.8992 112.575 76.9752 112.768 77.024L112.831 77.4109C112.843 77.4812 112.904 77.5326 112.975 77.5326H113.557C113.628 77.5326 113.689 77.4812 113.701 77.4109L113.764 77.024C113.957 76.9752 114.14 76.8992 114.311 76.7964L114.623 77.0191C114.681 77.0604 114.76 77.0538 114.811 77.0038L115.223 76.5918C115.273 76.5413 115.28 76.4622 115.238 76.4042L115.016 76.0924C115.118 75.9211 115.195 75.7379 115.243 75.5446L115.63 75.4818C115.701 75.4704 115.752 75.4094 115.752 75.3382V74.7554C115.752 74.6842 115.701 74.6236 115.63 74.6117L115.243 74.5489C115.195 74.3557 115.119 74.1725 115.016 74.0012L115.239 73.6894C115.28 73.6314 115.274 73.5519 115.224 73.5018L114.812 73.0898C114.761 73.0393 114.682 73.0327 114.624 73.0744L114.312 73.2967C114.141 73.1939 113.958 73.1179 113.764 73.0692L113.702 72.6822C113.69 72.6119 113.629 72.5605 113.558 72.5605H112.976C112.904 72.5605 112.844 72.6119 112.832 72.6822L112.769 73.0692C112.576 73.1179 112.393 73.1939 112.221 73.2967L111.91 73.0744C111.852 73.0327 111.772 73.0393 111.722 73.0898L111.31 73.5018C111.26 73.5523 111.253 73.6314 111.295 73.6894L111.517 74.0012C111.415 74.1725 111.339 74.3557 111.29 74.5489L110.903 74.6117C110.833 74.6236 110.781 74.6842 110.781 74.7554V75.3382C110.78 75.4098 110.832 75.4704 110.902 75.4823ZM113.266 73.4451C114.15 73.4451 114.869 74.1637 114.869 75.0474C114.869 75.9307 114.15 76.6497 113.266 76.6497C112.383 76.6497 111.664 75.9312 111.664 75.0474C111.664 74.1637 112.383 73.4451 113.266 73.4451Z" fill="#A72C2C"/>
<path d="M113.274 98.1349C113.798 98.1349 114.223 97.6596 114.223 97.0733C114.223 96.487 113.798 96.0117 113.274 96.0117C112.749 96.0117 112.324 96.487 112.324 97.0733C112.324 97.6596 112.749 98.1349 113.274 98.1349Z" fill="#A72C2C"/>
<path d="M111.832 100.641V99.7705C111.832 99.1775 112.269 98.6768 112.872 98.5112L113.304 98.701L113.681 98.498C113.938 98.556 114.166 98.6764 114.346 98.8376C114.612 99.0761 114.778 99.405 114.778 99.77V100.641L111.832 100.641Z" fill="#A72C2C"/>
<path d="M84.2822 80.168H78.7773V82.1695H84.2822V80.168Z" fill="#A72C2C"/>
<path d="M84.2822 82.4844H78.7773V84.1411H84.2822V82.4844Z" fill="#A72C2C"/>
<path d="M82.782 80.6772H82.435V80.0627C82.435 79.8791 82.2857 79.7298 82.1021 79.7298H81.0515C80.8679 79.7298 80.7181 79.8791 80.7181 80.0627V80.6772H80.3711V80.0627C80.3711 79.6876 80.6764 79.3828 81.0515 79.3828H82.1021C82.4772 79.3828 82.782 79.6876 82.782 80.0627V80.6772Z" fill="#A72C2C"/>
<path d="M116.02 52.2891H110.516V54.2906H116.02V52.2891Z" fill="#A72C2C"/>
<path d="M116.02 54.6738H110.516V56.2612H116.02V54.6738Z" fill="#A72C2C"/>
<path d="M114.52 52.8022H114.173V52.1877C114.173 52.0041 114.024 51.8548 113.84 51.8548H112.79C112.606 51.8548 112.456 52.0041 112.456 52.1877V52.8022H112.109V52.1877C112.109 51.8126 112.415 51.5078 112.789 51.5078H113.84C114.215 51.5078 114.52 51.8126 114.52 52.1877V52.8022H114.52Z" fill="#A72C2C"/>
<path d="M84.3167 53.8309L83.3733 54.4102L81.8122 55.3677C81.6875 55.4477 81.4793 55.4477 81.3546 55.3677L79.7936 54.4102L78.8501 53.8309C78.7218 53.7545 78.7218 53.6262 78.8501 53.5498L81.3546 52.2976C81.4793 52.2211 81.6875 52.2211 81.8122 52.2976L84.3167 53.5498C84.445 53.6262 84.445 53.7545 84.3167 53.8309Z" fill="#A72C2C"/>
<path d="M83.3727 54.7949L83.3731 57.1312C82.2012 57.45 80.9653 57.45 79.7934 57.1312L79.793 54.7949L81.354 55.7524C81.4787 55.8324 81.6869 55.8324 81.8117 55.7524L83.3727 54.7949Z" fill="#A72C2C"/>
<path d="M84.1618 53.7695H83.9883V56.7137H84.1618V53.7695Z" fill="#A72C2C"/>
<path d="M83.7852 56.513C83.7852 56.683 83.9231 56.8209 84.0931 56.8209C84.263 56.8209 84.401 56.683 84.401 56.513C84.401 56.343 84.263 56.2051 84.0931 56.2051C83.9231 56.2051 83.7852 56.343 83.7852 56.513Z" fill="#A72C2C"/>
<path d="M125.647 99.0469H117.043V100.087H125.647V99.0469Z" fill="#A72C2C"/>
<path d="M125.647 54.5879H117.043V55.6284H125.647V54.5879Z" fill="#A72C2C"/>
<path d="M136.818 102.674H112.027V103.194H136.818V102.674Z" fill="#263238"/>
<path d="M136.818 104.973H112.027V105.493H136.818V104.973Z" fill="#263238"/>
<path d="M117.037 107.266H112.027V107.786H117.037V107.266Z" fill="#263238"/>
<path d="M102.405 61.8145H85.7969V62.3349H102.405V61.8145Z" fill="#263238"/>
<path d="M94.7632 64.1113H85.7969V64.6318H94.7632V64.1113Z" fill="#263238"/>
<path d="M102.405 69.8262H85.7969V70.3467H102.405V69.8262Z" fill="#263238"/>
<path d="M94.7632 72.125H85.7969V72.645H94.7632V72.125Z" fill="#263238"/>
<path d="M102.405 90.1367H85.7969V90.6568H102.405V90.1367Z" fill="#263238"/>
<path d="M94.7632 92.4336H85.7969V92.9541H94.7632V92.4336Z" fill="#263238"/>
<path d="M102.405 98.1602H85.7969V98.6806H102.405V98.1602Z" fill="#263238"/>
<path d="M94.7632 100.457H85.7969V100.978H94.7632V100.457Z" fill="#263238"/>
<path d="M135.431 58.5723H110.641V59.0928H135.431V58.5723Z" fill="#263238"/>
<path d="M135.431 60.8691H110.641V61.3892H135.431V60.8691Z" fill="#263238"/>
<path d="M115.65 63.1641H110.641V63.6845H115.65V63.1641Z" fill="#263238"/>
<path d="M94.4512 54.5879H85.8477V55.6284H94.4512V54.5879Z" fill="#A72C2C"/>
<path d="M103.824 58.7285H85.8477V60.0462H103.824V58.7285Z" fill="#263238"/>
<path d="M81.5838 59.8278C81.9106 59.8278 82.1755 59.5629 82.1755 59.2362C82.1755 58.9094 81.9106 58.6445 81.5838 58.6445C81.2571 58.6445 80.9922 58.9094 80.9922 59.2362C80.9922 59.5629 81.2571 59.8278 81.5838 59.8278Z" fill="#263238"/>
<path d="M103.824 66.7422H85.8477V68.0599H103.824V66.7422Z" fill="#263238"/>
<path d="M81.5838 67.8415C81.9106 67.8415 82.1755 67.5766 82.1755 67.2498C82.1755 66.9231 81.9106 66.6582 81.5838 66.6582C81.2571 66.6582 80.9922 66.9231 80.9922 67.2498C80.9922 67.5766 81.2571 67.8415 81.5838 67.8415Z" fill="#263238"/>
<path d="M103.824 74.752H85.8477V76.0696H103.824V74.752Z" fill="#263238"/>
<path d="M81.5838 75.8512C81.9106 75.8512 82.1755 75.5864 82.1755 75.2596C82.1755 74.9329 81.9106 74.668 81.5838 74.668C81.2571 74.668 80.9922 74.9329 80.9922 75.2596C80.9922 75.5864 81.2571 75.8512 81.5838 75.8512Z" fill="#263238"/>
<path d="M94.4512 82.8906H85.8477V83.9311H94.4512V82.8906Z" fill="#A72C2C"/>
<path d="M103.824 87.0293H85.8477V88.347H103.824V87.0293Z" fill="#263238"/>
<path d="M81.5838 88.1286C81.9106 88.1286 82.1755 87.8637 82.1755 87.537C82.1755 87.2102 81.9106 86.9453 81.5838 86.9453C81.2571 86.9453 80.9922 87.2102 80.9922 87.537C80.9922 87.8637 81.2571 88.1286 81.5838 88.1286Z" fill="#263238"/>
<path d="M103.824 95.041H85.8477V96.3587H103.824V95.041Z" fill="#263238"/>
<path d="M81.5838 96.1403C81.9106 96.1403 82.1755 95.8754 82.1755 95.5487C82.1755 95.2219 81.9106 94.957 81.5838 94.957C81.2571 94.957 80.9922 95.2219 80.9922 95.5487C80.9922 95.8754 81.2571 96.1403 81.5838 96.1403Z" fill="#263238"/>
<path d="M103.824 103.053H85.8477V104.37H103.824V103.053Z" fill="#263238"/>
<path d="M81.5838 104.152C81.9106 104.152 82.1755 103.887 82.1755 103.56C82.1755 103.234 81.9106 102.969 81.5838 102.969C81.2571 102.969 80.9922 103.234 80.9922 103.56C80.9922 103.887 81.2571 104.152 81.5838 104.152Z" fill="#263238"/>
<path d="M140.202 10.1367H75.7148V48.7105H140.202V10.1367Z" fill="#A72C2C"/>
<g opacity="0.8">
<path d="M140.202 10.1367H75.7148V48.7105H140.202V10.1367Z" fill="white"/>
</g>
<path d="M86.368 40.0531C86.368 41.5096 85.1873 42.6903 83.7309 42.6903C82.2744 42.6903 81.0938 41.5096 81.0938 40.0531C81.0938 38.5967 82.2744 37.416 83.7309 37.416C85.1873 37.416 86.368 38.5967 86.368 40.0531Z" fill="white"/>
<path d="M93.4031 40.0531C93.4031 41.5096 92.2225 42.6903 90.766 42.6903C89.3095 42.6903 88.1289 41.5096 88.1289 40.0531C88.1289 38.5967 89.3095 37.416 90.766 37.416C92.2221 37.416 93.4031 38.5967 93.4031 40.0531Z" fill="white"/>
<path d="M100.138 40.0531C100.138 41.5096 98.9569 42.6903 97.5004 42.6903C96.0439 42.6903 94.8633 41.5096 94.8633 40.0531C94.8633 38.5967 96.0439 37.416 97.5004 37.416C98.9569 37.416 100.138 38.5967 100.138 40.0531Z" fill="white"/>
<path d="M106.731 40.0531C106.731 41.5096 105.551 42.6903 104.094 42.6903C102.638 42.6903 101.457 41.5096 101.457 40.0531C101.457 38.5967 102.638 37.416 104.094 37.416C105.551 37.416 106.731 38.5967 106.731 40.0531Z" fill="white"/>
<path d="M84.4029 39.5254H83.0352V40.0626H84.4029V39.5254Z" fill="#263238"/>
<path d="M83.877 41.61H83.3398V39.3124C83.3398 38.8828 83.6895 38.5332 84.119 38.5332H84.3742V39.0704H84.119C83.9855 39.0704 83.877 39.1789 83.877 39.3124V41.61Z" fill="#263238"/>
<path d="M96.9122 39.2266H96.375V40.9712H96.9122V39.2266Z" fill="#263238"/>
<path d="M97.7403 39.2695H97.2031V40.9742H97.7403V39.2695Z" fill="#263238"/>
<path d="M98.3795 40.9746C98.3795 40.9694 98.3799 40.9527 98.3821 40.9268C98.4339 40.1836 98.3035 39.9411 98.2653 39.917C97.9486 39.8981 97.7382 40.0804 97.6631 40.1612L97.2695 39.7953C97.3978 39.6574 97.7549 39.3398 98.3083 39.3829C98.7835 39.4171 98.9887 39.9491 98.9179 40.9645L98.3795 40.9746Z" fill="#263238"/>
<path d="M96.7678 39.0854H96.5082C96.4304 39.0854 96.3672 39.0222 96.3672 38.9444V38.684C96.3672 38.6062 96.4304 38.543 96.5082 38.543H96.7678C96.8455 38.543 96.9087 38.6062 96.9087 38.684V38.9444C96.9087 39.0222 96.8459 39.0854 96.7678 39.0854Z" fill="#263238"/>
<path d="M90.8085 40.7996C90.3864 40.7996 90.043 40.4561 90.043 40.0336C90.043 39.6111 90.3864 39.2676 90.8085 39.2676C91.2311 39.2676 91.5746 39.6111 91.5746 40.0336C91.5746 40.4561 91.2306 40.7996 90.8085 40.7996ZM90.8085 39.5359C90.5345 39.5359 90.3113 39.7591 90.3113 40.0331C90.3113 40.3072 90.5345 40.5304 90.8085 40.5304C91.0826 40.5304 91.3057 40.3072 91.3057 40.0331C91.3057 39.7595 91.0826 39.5359 90.8085 39.5359Z" fill="#263238"/>
<path d="M91.4076 41.6328H90.1949C89.6459 41.6328 89.1992 41.1861 89.1992 40.6366V39.4239C89.1992 38.8744 89.6459 38.4277 90.1949 38.4277H91.4076C91.9567 38.4277 92.4034 38.8744 92.4034 39.4239V40.6366C92.4034 41.1861 91.9567 41.6328 91.4076 41.6328ZM90.1949 38.697C89.7939 38.697 89.4676 39.0233 89.4676 39.4243V40.6371C89.4676 41.0381 89.7939 41.3644 90.1949 41.3644H91.4076C91.8087 41.3644 92.135 41.0381 92.135 40.6371V39.4243C92.135 39.0233 91.8087 38.697 91.4076 38.697H90.1949Z" fill="#263238"/>
<path d="M103.066 41.0144C103.023 41.0144 102.98 40.9973 102.947 40.9648C102.913 40.9305 102.896 40.8831 102.899 40.8365V39.3787C102.899 39.286 102.974 39.2109 103.066 39.2109H103.782C104.049 39.2109 104.267 39.4279 104.267 39.695C104.267 39.8289 104.212 39.9506 104.124 40.0384C104.268 40.1324 104.364 40.2958 104.364 40.4803C104.364 40.6226 104.308 40.7566 104.206 40.8563C104.105 40.956 103.972 41.0056 103.829 41.0078C103.311 40.9995 103.16 41.0043 103.115 41.0069C103.099 41.0122 103.083 41.0144 103.066 41.0144ZM103.334 40.667C103.457 40.667 103.619 40.6692 103.833 40.6722C103.876 40.6714 103.934 40.6538 103.97 40.6173C104.007 40.5813 104.028 40.5326 104.028 40.4803C104.028 40.3744 103.941 40.2884 103.836 40.2884H103.234V40.667C103.264 40.6674 103.297 40.667 103.334 40.667ZM103.234 39.8439H103.782C103.865 39.8439 103.931 39.7771 103.931 39.695C103.931 39.6133 103.864 39.5465 103.782 39.5465H103.234V39.8439Z" fill="#263238"/>
<path d="M105.511 40.4252H104.601C104.509 40.4252 104.434 40.3505 104.434 40.2583C104.434 40.2258 104.438 39.935 104.641 39.7492C104.723 39.6733 104.872 39.588 105.109 39.6113C105.315 39.6311 105.47 39.7084 105.57 39.841C105.716 40.0334 105.681 40.2614 105.676 40.2864C105.662 40.3668 105.592 40.4252 105.511 40.4252ZM104.805 40.0896H105.328C105.321 40.0734 105.312 40.0571 105.301 40.0426C105.259 39.9891 105.184 39.9561 105.077 39.946C104.984 39.9368 104.915 39.9539 104.867 39.9978C104.84 40.0224 104.82 40.0554 104.805 40.0896Z" fill="#263238"/>
<path d="M105.081 40.9954C104.769 40.9954 104.451 40.771 104.444 40.2703L104.441 40.1025L104.777 40.0977L104.779 40.2654C104.784 40.6309 105.012 40.6594 105.081 40.6594C105.206 40.6594 105.261 40.6291 105.283 40.6111L105.282 40.4943L105.617 40.4802L105.619 40.648C105.62 40.6651 105.618 40.691 105.612 40.7077C105.604 40.7372 105.515 40.9954 105.081 40.9954Z" fill="#263238"/>
<path d="M105.035 23.4434H81.6172V24.4839H105.035V23.4434Z" fill="#263238"/>
<path d="M93.3261 27.1543H81.6172V28.1948H93.3261V27.1543Z" fill="#263238"/>
<path d="M105.035 31.123H81.6172V31.6435H105.035V31.123Z" fill="#263238"/>
<path d="M93.3261 34.8281H81.6172V35.3482H93.3261V34.8281Z" fill="#263238"/>
<path d="M85.2424 17.3945V20.8438H84.2669V19.4984H82.9365V20.8438H81.9609V17.3945H82.9365V18.6902H84.2669V17.3945H85.2424Z" fill="#A72C2C"/>
<path d="M88.6053 19.7448H86.6639C86.743 20.0158 86.9744 20.1735 87.3192 20.1735C87.5806 20.1735 87.7528 20.0993 87.935 19.942L88.4279 20.4546C88.1718 20.7405 87.7971 20.8881 87.2894 20.8881C86.3385 20.8881 85.7227 20.3018 85.7227 19.5032C85.7227 18.7003 86.3481 18.1289 87.191 18.1289C87.9794 18.1289 88.6202 18.6314 88.6202 19.5133C88.6202 19.5823 88.6101 19.671 88.6053 19.7448ZM86.649 19.252H87.7431C87.6939 18.9713 87.487 18.7939 87.1963 18.7939C86.9055 18.7939 86.7034 18.9713 86.649 19.252Z" fill="#A72C2C"/>
<path d="M89.0508 17.1875H89.9872V20.8436H89.0508V17.1875Z" fill="#A72C2C"/>
<path d="M90.5938 17.1875H91.5302V20.8436H90.5938V17.1875Z" fill="#A72C2C"/>
<path d="M91.9688 19.5032C91.9688 18.7003 92.6043 18.1289 93.4766 18.1289C94.3586 18.1289 94.9845 18.7003 94.9845 19.5032C94.9845 20.3114 94.3586 20.8881 93.4766 20.8881C92.6048 20.8881 91.9688 20.3114 91.9688 19.5032ZM94.0384 19.5032C94.0384 19.0992 93.7968 18.8725 93.4766 18.8725C93.1613 18.8725 92.9148 19.0992 92.9148 19.5032C92.9148 19.9126 93.1613 20.1436 93.4766 20.1436C93.7968 20.1441 94.0384 19.9126 94.0384 19.5032Z" fill="#A72C2C"/>
<path d="M95.2969 20.3703C95.2969 20.0795 95.5284 19.863 95.8586 19.863C96.1889 19.863 96.4156 20.08 96.4156 20.3703C96.4156 20.6562 96.1889 20.8877 95.8586 20.8877C95.5284 20.8881 95.2969 20.6562 95.2969 20.3703ZM95.3017 17.3945H96.4151L96.228 19.5876H95.484L95.3017 17.3945Z" fill="#A72C2C"/>
<path d="M140.202 5.08789H75.7148V10.1368H140.202V5.08789Z" fill="#A72C2C"/>
<g opacity="0.2">
<path d="M116.914 36.1861C118.96 33.6966 118.277 30.8574 118.277 30.8574H117.514L116.219 31.8413C116.432 33.1186 116.686 34.6791 116.914 36.1861Z" fill="black"/>
</g>
<path d="M117.573 48.795C117.573 48.795 117.635 44.1537 117.55 41.7102C117.538 41.3887 117.524 41.1041 117.508 40.8748C117.318 38.2443 116.094 31.1016 115.8 29.4079C115.754 29.1488 115.853 28.8897 116.05 28.7184C116.339 28.4684 116.698 28.2646 117.11 28.1074C117.975 27.7696 119.077 27.619 120.278 27.5913C121.057 27.5729 121.876 27.6027 122.698 27.6699C122.867 27.684 123.038 27.6976 123.207 27.716C123.968 27.7876 124.725 27.8873 125.447 28.0007C125.768 28.0494 126.083 28.1004 126.388 28.1535C126.863 28.237 127.314 28.3222 127.733 28.4078C128.677 28.5976 129.452 28.7781 129.94 28.9006C129.953 28.9028 129.97 28.9055 129.984 28.9099C130.118 28.9424 130.236 29.014 130.326 29.1088C130.326 29.111 130.329 29.111 130.329 29.111C130.444 29.2384 130.513 29.4049 130.513 29.5854L130.537 39.8655L130.542 42.001L130.556 48.8358L117.573 48.795Z" fill="#A72C2C"/>
<g opacity="0.2">
<path d="M125.277 30.4994C125.266 30.7783 125.031 30.9962 124.752 30.9856C124.473 30.9751 124.255 30.7401 124.266 30.4612C124.277 30.1823 124.512 29.9644 124.79 29.975C125.069 29.9855 125.287 30.2205 125.277 30.4994Z" fill="black"/>
</g>
<g opacity="0.2">
<path d="M125.824 34.8178C125.813 35.0967 125.578 35.3145 125.299 35.304C125.02 35.2935 124.802 35.0585 124.813 34.7796C124.823 34.5006 125.058 34.2828 125.337 34.2933C125.616 34.3039 125.834 34.5389 125.824 34.8178Z" fill="black"/>
</g>
<g opacity="0.2">
<path d="M126.132 40.0404C126.122 40.3193 125.887 40.5372 125.608 40.5267C125.329 40.5161 125.111 40.2816 125.121 40.0022C125.132 39.7233 125.367 39.5055 125.646 39.516C125.925 39.5265 126.143 39.7615 126.132 40.0404Z" fill="black"/>
</g>
<g opacity="0.2">
<path d="M125.937 45.2455C125.926 45.5244 125.692 45.7423 125.412 45.7317C125.133 45.7212 124.916 45.4866 124.926 45.2073C124.937 44.9284 125.172 44.7105 125.451 44.7211C125.73 44.7321 125.948 44.9666 125.937 45.2455Z" fill="black"/>
</g>
<path d="M122.164 26.9458L122.815 27.8212L124.083 28.6605L124.842 28.8507L126.023 28.4971L126.541 28.4431L126.647 28.3623C125.464 27.508 125.548 26.1095 125.983 24.906L122.66 21.4238C122.797 22.9313 122.832 25.3843 122.164 26.9458Z" fill="#CE7A63"/>
<g opacity="0.3">
<path d="M125.689 26.2567C125.711 25.8048 125.822 25.3432 125.979 24.907L123.945 22.7754L122.711 22.2031C122.738 22.7254 122.747 23.3047 122.724 23.8946C123.142 24.7493 123.991 25.8254 125.689 26.2567Z" fill="black"/>
</g>
<path d="M126.829 17.1144C126.829 17.1144 128.91 17.508 128.569 15.918C128.569 15.918 128.447 16.3818 126.164 16.1644C123.881 15.947 126.829 17.1144 126.829 17.1144Z" fill="#263238"/>
<g opacity="0.9">
<path d="M126.829 17.1144C126.829 17.1144 128.91 17.508 128.569 15.918C128.569 15.918 128.447 16.3818 126.164 16.1644C123.881 15.947 126.829 17.1144 126.829 17.1144Z" fill="black"/>
</g>
<path d="M122.19 19.3164C122.253 21.6236 122.176 22.976 123.299 24.194C124.987 26.0304 127.865 25.0641 128.488 22.7911C129.052 20.7294 128.849 17.3126 126.626 16.3226C125.044 15.6075 123.181 16.3112 122.466 17.8937C122.265 18.34 122.17 18.8271 122.19 19.3164Z" fill="#CE7A63"/>
<path d="M125.77 20.0999C125.764 20.2883 125.857 20.4438 125.98 20.4473C126.103 20.4508 126.206 20.3032 126.213 20.1144C126.219 19.9259 126.125 19.7727 126.002 19.7696C125.878 19.7665 125.775 19.9141 125.77 20.0999Z" fill="#263238"/>
<path d="M127.887 20.1728C127.882 20.3586 127.975 20.5146 128.098 20.5176C128.221 20.5211 128.324 20.3736 128.329 20.1873C128.334 20.0015 128.242 19.8434 128.119 19.8399C127.995 19.8364 127.893 19.9844 127.887 20.1728Z" fill="#263238"/>
<path d="M125.07 19.1976C125.051 19.1967 125.033 19.1924 125.016 19.184C124.971 19.1445 124.964 19.0764 125 19.0285C125.217 18.7496 125.556 18.5915 125.91 18.6042C125.971 18.6104 126.015 18.6644 126.009 18.7255C126.003 18.7865 125.949 18.8309 125.888 18.8247C125.607 18.8177 125.341 18.9451 125.171 19.1682C125.145 19.1945 125.107 19.206 125.07 19.1976Z" fill="#263238"/>
<path d="M128.738 19.3444C128.701 19.3387 128.669 19.3141 128.655 19.2794C128.549 19.022 128.327 18.8305 128.057 18.7633C127.997 18.7537 127.957 18.697 127.966 18.6373C127.976 18.5775 128.033 18.5367 128.092 18.5463C128.439 18.625 128.727 18.8661 128.864 19.1942C128.888 19.2478 128.865 19.311 128.811 19.3361C128.81 19.3365 128.81 19.3369 128.808 19.3374C128.786 19.3479 128.762 19.3506 128.738 19.3444Z" fill="#263238"/>
<path d="M126.885 22.8397C127.011 22.8533 127.138 22.8559 127.265 22.8467C127.301 22.8445 127.329 22.8133 127.326 22.7773C127.326 22.7764 127.326 22.776 127.326 22.7751C127.324 22.7391 127.294 22.7118 127.258 22.7136C126.692 22.7632 126.135 22.5419 125.758 22.1171C125.736 22.0873 125.694 22.0811 125.664 22.1026C125.634 22.1246 125.628 22.1663 125.65 22.1962C125.963 22.5625 126.406 22.7931 126.885 22.8397Z" fill="#263238"/>
<path d="M127.354 20.0723C127.553 20.6362 127.829 21.1699 128.175 21.6583C127.834 21.9482 127.297 21.7945 127.297 21.7945L127.354 20.0723Z" fill="#BA4D3C"/>
<path d="M120.192 27.8421C120.253 27.3146 121.335 26.4111 121.955 26.6567C122.574 26.9022 123.601 28.45 124.602 28.5124C125.602 28.5748 125.831 26.7406 126.359 26.922C126.887 27.1034 127.493 27.6493 127.652 28.0473C127.836 28.5063 127.826 30.2258 127.355 30.0027C127.355 30.0027 126.708 28.7759 126.301 28.6306C125.921 28.4948 125.133 28.9956 124.73 28.9978C124.292 28.9999 123.417 28.4597 123.017 28.6367C122.615 28.8142 122.252 29.9386 121.812 29.9184C121.155 29.8876 120.115 28.4957 120.192 27.8421Z" fill="#A72C2C"/>
<g opacity="0.4">
<path d="M120.192 27.8421C120.253 27.3146 121.335 26.4111 121.955 26.6567C122.574 26.9022 123.601 28.45 124.602 28.5124C125.602 28.5748 125.831 26.7406 126.359 26.922C126.887 27.1034 127.493 27.6493 127.652 28.0473C127.836 28.5063 127.826 30.2258 127.355 30.0027C127.355 30.0027 126.708 28.7759 126.301 28.6306C125.921 28.4948 125.133 28.9956 124.73 28.9978C124.292 28.9999 123.417 28.4597 123.017 28.6367C122.615 28.8142 122.252 29.9386 121.812 29.9184C121.155 29.8876 120.115 28.4957 120.192 27.8421Z" fill="white"/>
</g>
<path d="M126.58 39.4856C128.124 40.155 129.365 38.7613 129.365 38.7613L127.148 37.0879L126.105 38.6687L126.58 39.4856Z" fill="#CE7A63"/>
<path d="M127.148 37.0883L129.361 38.7578L130.166 37.6747L129.233 36.2266L127.148 37.0883Z" fill="#CE7A63"/>
<path d="M115.579 29.9166C115.574 31.1219 115.595 32.3205 115.639 33.5284C115.674 34.4424 115.713 35.3538 115.78 36.2678C115.847 37.1797 115.914 38.1025 116.028 39.0328L116.065 39.3754L116.083 39.5489L116.127 39.8357C116.173 40.0904 116.249 40.3377 116.358 40.5714C116.527 40.9346 116.786 41.2469 117.113 41.4784C117.467 41.7213 117.883 41.853 118.313 41.8557C118.591 41.8605 118.871 41.8188 119.137 41.7305L126.935 39.6297C126.935 39.6297 126.396 38.3318 126.488 38.1837C126.055 38.2553 121.951 38.5584 119.297 38.7481L119.332 38.0818C119.343 37.7739 119.658 30.3216 119.658 30.3216C119.656 29.3153 118.452 28.0982 117.448 28.0842C116.423 28.0701 115.581 28.8941 115.579 29.9166Z" fill="#A72C2C"/>
<g opacity="0.1">
<path d="M115.579 29.9166C115.574 31.1219 115.595 32.3205 115.639 33.5284C115.674 34.4424 115.713 35.3538 115.78 36.2678C115.847 37.1797 115.914 38.1025 116.028 39.0328L116.065 39.3754L116.083 39.5489L116.127 39.8357C116.173 40.0904 116.249 40.3377 116.358 40.5714C116.527 40.9346 116.786 41.2469 117.113 41.4784C117.467 41.7213 117.883 41.853 118.313 41.8557C118.591 41.8605 118.871 41.8188 119.137 41.7305L126.935 39.6297C126.935 39.6297 126.396 38.3318 126.488 38.1837C126.055 38.2553 121.951 38.5584 119.297 38.7481L119.332 38.0818C119.343 37.7739 119.658 30.3216 119.658 30.3216C119.656 29.3153 118.452 28.0982 117.448 28.0842C116.423 28.0701 115.581 28.8941 115.579 29.9166Z" fill="white"/>
</g>
<path d="M126.488 38.1834C126.519 38.1789 126.531 38.174 126.521 38.1718C126.505 38.1669 126.493 38.1718 126.488 38.1834Z" fill="#A72C2C"/>
<path d="M122.494 21.2332C122.494 21.2332 123.356 20.8115 123.355 19.1223C123.355 19.1223 124.253 18.6005 124.324 17.4479C124.324 17.4479 128.704 17.0118 128.016 15.4573C127.327 13.9029 124.247 13.3223 124.247 13.3223C124.247 13.3223 125.143 14.889 122.288 16.1087C119.433 17.3285 121.703 21.1062 121.703 21.1062L122.494 21.2332Z" fill="#263238"/>
<path d="M121.101 17.5965C121.101 17.5965 119.815 16.7426 120.321 16.2467C120.826 15.7508 121.101 17.5965 121.101 17.5965Z" fill="#263238"/>
<path d="M120.997 21.4285C121.291 21.9279 121.77 22.2911 122.33 22.4404C123.076 22.6275 123.431 21.9595 123.208 21.2646C123.009 20.6418 122.381 19.7901 121.64 19.9074C120.9 20.0242 120.643 20.8078 120.997 21.4285Z" fill="#CE7A63"/>
<path d="M122.207 39.6438C120.662 40.3132 119.422 38.9195 119.422 38.9195L121.639 37.2461L122.681 38.8269L122.207 39.6438Z" fill="#CE7A63"/>
<path d="M121.639 37.2461L119.426 38.9156L118.621 37.8325L119.554 36.3848L121.639 37.2461Z" fill="#CE7A63"/>
<path d="M132.762 39.1848L132.725 39.5274L132.707 39.7009L132.663 39.9877C132.617 40.2421 132.54 40.4898 132.431 40.7234C132.263 41.0867 132.003 41.399 131.677 41.6304C131.341 41.8593 130.951 41.9915 130.543 42.0051C130.523 42.0073 130.499 42.0073 130.476 42.0073C130.199 42.0121 129.918 41.9704 129.653 41.8826L124.114 40.3901L121.855 39.7817C121.855 39.7817 121.858 39.7747 121.865 39.7585C121.92 39.6219 122.217 38.8932 122.293 38.5299C122.314 38.4351 122.321 38.3635 122.302 38.3354C122.318 38.3376 122.339 38.3424 122.367 38.3446C122.538 38.3679 122.922 38.4026 123.438 38.4443C124.146 38.5045 125.104 38.5783 126.117 38.6525C126.268 38.6639 126.42 38.6758 126.575 38.6872C127.489 38.7566 128.424 38.8238 129.245 38.8813C129.329 38.8884 129.838 38.9055 129.919 38.9125L129.086 30.4732C129.086 30.4455 129.132 30.4179 129.137 30.3898C129.165 29.9246 129.438 29.4274 129.82 29.0268C129.859 28.9829 129.9 28.9434 129.942 28.9043C129.956 28.9065 129.972 28.9091 129.986 28.9135C130.334 28.8902 130.639 29.0062 130.897 29.1722C131.427 29.5139 131.76 30.0898 131.84 30.7157C132.107 32.7919 132.837 38.5598 132.762 39.1848Z" fill="#A72C2C"/>
<g opacity="0.1">
<path d="M132.762 39.1848L132.725 39.5274L132.707 39.7009L132.663 39.9877C132.617 40.2421 132.54 40.4898 132.431 40.7234C132.263 41.0867 132.003 41.399 131.677 41.6304C131.341 41.8593 130.951 41.9915 130.543 42.0051C130.523 42.0073 130.499 42.0073 130.476 42.0073C130.199 42.0121 129.918 41.9704 129.653 41.8826L124.114 40.3901L121.855 39.7817C121.855 39.7817 121.858 39.7747 121.865 39.7585C121.92 39.6219 122.217 38.8932 122.293 38.5299C122.314 38.4351 122.321 38.3635 122.302 38.3354C122.318 38.3376 122.339 38.3424 122.367 38.3446C122.538 38.3679 122.922 38.4026 123.438 38.4443C124.146 38.5045 125.104 38.5783 126.117 38.6525C126.268 38.6639 126.42 38.6758 126.575 38.6872C127.489 38.7566 128.424 38.8238 129.245 38.8813C129.329 38.8884 129.838 38.9055 129.919 38.9125L129.086 30.4732C129.086 30.4455 129.132 30.4179 129.137 30.3898C129.165 29.9246 129.438 29.4274 129.82 29.0268C129.859 28.9829 129.9 28.9434 129.942 28.9043C129.956 28.9065 129.972 28.9091 129.986 28.9135C130.334 28.8902 130.639 29.0062 130.897 29.1722C131.427 29.5139 131.76 30.0898 131.84 30.7157C132.107 32.7919 132.837 38.5598 132.762 39.1848Z" fill="white"/>
</g>
<path d="M122.306 38.3358C122.275 38.3313 122.263 38.3265 122.273 38.3242C122.289 38.3193 122.301 38.3238 122.306 38.3358Z" fill="#A72C2C"/>
<path d="M80.9902 7.64157C80.9902 8.03995 80.6669 8.36322 80.2685 8.36322C79.8701 8.36322 79.5469 8.03995 79.5469 7.64157C79.5469 7.24319 79.8701 6.91992 80.2685 6.91992C80.6673 6.91992 80.9902 7.24275 80.9902 7.64157Z" fill="white"/>
<path d="M83.7636 7.64157C83.7636 8.03995 83.4408 8.36322 83.042 8.36322C82.6431 8.36322 82.3203 8.03995 82.3203 7.64157C82.3203 7.24319 82.6436 6.91992 83.042 6.91992C83.4403 6.91992 83.7636 7.24275 83.7636 7.64157Z" fill="white"/>
<path d="M86.5331 7.64157C86.5331 8.03995 86.2103 8.36322 85.8115 8.36322C85.4127 8.36322 85.0898 8.03995 85.0898 7.64157C85.0898 7.24319 85.4131 6.91992 85.8115 6.91992C86.2099 6.91992 86.5331 7.24275 86.5331 7.64157Z" fill="white"/>
</svg>
