<svg width="223" height="164" viewBox="0 0 223 164" fill="none" xmlns="http://www.w3.org/2000/svg">
<path d="M200.084 152.24H185.406V152.351H200.084V152.24Z" fill="#EBEBEB"/>
<path d="M147.493 153.445H143.641V153.556H147.493V153.445Z" fill="#EBEBEB"/>
<path d="M184.966 148.125H176.461V148.236H184.966V148.125Z" fill="#EBEBEB"/>
<path d="M43.0981 148.869H23.957V148.98H43.0981V148.869Z" fill="#EBEBEB"/>
<path d="M49.8495 148.869H47.043V148.98H49.8495V148.869Z" fill="#EBEBEB"/>
<path d="M100.489 150.74H58.9766V150.851H100.489V150.74Z" fill="#EBEBEB"/>
<path d="M105.742 125.345H20.1701C18.7755 125.345 17.6406 124.21 17.6406 122.815V2.52951C17.6406 1.13491 18.7755 0 20.1701 0H105.742C107.137 0 108.271 1.13491 108.271 2.52951V122.815C108.271 124.21 107.137 125.345 105.742 125.345ZM20.1701 0.111231C18.8362 0.111231 17.7514 1.19607 17.7514 2.52996V122.816C17.7514 124.15 18.8362 125.234 20.1701 125.234H105.742C107.076 125.234 108.161 124.15 108.161 122.816V2.52951C108.161 1.19607 107.076 0.110788 105.742 0.110788L20.1701 0.111231Z" fill="#EBEBEB"/>
<path d="M201.597 125.345H116.025C114.631 125.345 113.496 124.21 113.496 122.815V2.52951C113.496 1.13491 114.631 0 116.025 0H201.597C202.992 0 204.126 1.13491 204.126 2.52951V122.815C204.127 124.21 202.992 125.345 201.597 125.345ZM116.025 0.111231C114.692 0.111231 113.607 1.19607 113.607 2.52996V122.816C113.607 124.15 114.692 125.234 116.025 125.234H201.597C202.931 125.234 204.016 124.15 204.016 122.816V2.52951C204.016 1.19607 202.931 0.110788 201.597 0.110788L116.025 0.111231Z" fill="#EBEBEB"/>
<path d="M222.287 145.107H0.710938V145.218H222.287V145.107Z" fill="#EBEBEB"/>
<path d="M38.2196 144.381H39.2305L39.2305 81.0305H38.2196L38.2196 144.381Z" fill="#EBEBEB"/>
<path d="M50.0692 74.475C50.0692 77.7087 47.7741 80.5285 44.368 82.0321H33.0801C29.6744 80.5285 27.3789 77.7083 27.3789 74.475C27.3789 71.2414 29.674 68.4216 33.0801 66.918H44.3685C47.7741 68.4216 50.0692 71.2414 50.0692 74.475Z" fill="#F0F0F0"/>
<path d="M35.0547 74.475C35.0547 71.2414 37.3498 68.4216 40.7558 66.918H44.3689C47.7745 68.4216 50.07 71.2418 50.07 74.475C50.07 77.7087 47.7749 80.5285 44.3689 82.0321H40.7558C37.3502 80.5285 35.0547 77.7087 35.0547 74.475Z" fill="#F5F5F5"/>
<path d="M31.6172 144.865H45.8375C45.8375 143.906 45.0602 143.129 44.1017 143.129H33.353C32.394 143.129 31.6172 143.906 31.6172 144.865Z" fill="#EBEBEB"/>
<path d="M182.331 118.149C182.37 118.192 182.157 118.488 183.021 118.358C185.147 118.038 188.851 117.177 189.882 114.988C191.355 111.864 186.789 113.004 186.947 111.408C187.104 109.811 192.299 110.089 192.851 107.746C193.402 105.404 189.879 106.519 189.832 105.378C189.786 104.236 193.845 104.945 194.651 102.418C195.456 99.8902 192.388 101.751 192.741 100.7C193.094 99.6492 196.528 94.8959 194.659 94.3442C192.79 93.7925 189.643 98.6702 188.428 99.3611C187.213 100.052 186.134 96.0711 184.686 97.752C183.238 99.4329 185.535 105.314 183.688 106.455C182.312 107.305 182.701 104.964 180.886 105.401C178.419 105.994 179.249 114.701 182.331 118.149Z" fill="#F5F5F5"/>
<path d="M188.894 105.389C188.057 105.459 187.44 105.629 187.056 105.767C187.806 104.669 188.344 104.106 188.364 104.086C188.425 104.024 188.424 103.925 188.362 103.863C188.301 103.802 188.201 103.804 188.139 103.865C188.124 103.88 186.881 105.161 185.52 107.666C184.851 103.636 186.539 100.113 186.557 100.077C186.586 100.018 186.561 99.9474 186.502 99.9186C186.444 99.8893 186.373 99.9141 186.345 99.9726C186.326 100.01 184.524 103.77 185.341 107.999C185.123 108.414 184.904 108.857 184.688 109.334C184.062 110.71 183.408 112.474 182.891 114.601C182.532 113.952 181.709 112.216 181.635 109.791C181.633 109.726 181.578 109.675 181.513 109.676C181.447 109.681 181.397 109.733 181.398 109.798C181.484 112.604 182.559 114.523 182.808 114.932C182.123 117.883 181.714 121.514 182.008 125.792C182.014 125.878 182.089 125.944 182.176 125.938C182.183 125.938 182.19 125.937 182.196 125.936C182.273 125.921 182.328 125.85 182.322 125.77C181.932 120.106 182.779 115.553 183.951 112.106C184.249 111.762 185.128 110.879 186.466 110.671C186.527 110.657 186.575 110.6 186.565 110.536C186.555 110.472 186.494 110.427 186.43 110.438C185.371 110.605 184.596 111.154 184.136 111.577C185.001 109.183 186.007 107.362 186.823 106.115C187.085 105.997 187.804 105.718 188.913 105.625C188.977 105.617 189.026 105.563 189.02 105.497C189.016 105.432 188.959 105.384 188.894 105.389Z" fill="#E0E0E0"/>
<path d="M178.876 120.312C176.699 120.353 172.98 118.331 171.52 116.364C170.039 114.368 174.206 115.606 173.778 114.039C173.35 112.472 168.212 113.63 167.264 111.385C166.316 109.14 170.023 109.656 169.876 108.508C169.729 107.361 165.888 107.594 164.656 105.208C163.423 102.821 166.801 104.158 166.271 103.169C165.74 102.18 161.507 98.0173 163.278 97.1496C165.05 96.2819 169.02 100.618 170.349 101.101C171.679 101.585 171.99 98.5903 173.72 100.023C175.451 101.456 174.155 107.716 176.193 108.542C177.71 109.157 177.064 106.29 178.811 107.014C181.869 108.281 179.76 120.295 178.876 120.312Z" fill="#E6E6E6"/>
<g opacity="0.3">
<path d="M178.876 120.312C176.699 120.353 172.98 118.331 171.52 116.364C170.039 114.368 174.206 115.606 173.778 114.039C173.35 112.472 168.212 113.63 167.264 111.385C166.316 109.14 170.023 109.656 169.876 108.508C169.729 107.361 165.888 107.594 164.656 105.208C163.423 102.821 166.801 104.158 166.271 103.169C165.74 102.18 161.507 98.0173 163.278 97.1496C165.05 96.2819 169.02 100.618 170.349 101.101C171.679 101.585 171.99 98.5903 173.72 100.023C175.451 101.456 174.155 107.716 176.193 108.542C177.71 109.157 177.064 106.29 178.811 107.014C181.869 108.281 179.76 120.295 178.876 120.312Z" fill="#E6E6E6"/>
</g>
<path d="M178.153 117.697C178.185 117.685 178.213 117.666 178.23 117.634C178.281 117.537 179.474 115.229 179.207 111.797C179.2 111.717 179.133 111.659 179.05 111.663C178.97 111.67 178.91 111.74 178.917 111.82C179.143 114.717 178.278 116.838 178.035 117.367C177.061 114.721 175.892 112.368 174.719 110.354C175.105 105.678 172.709 101.85 172.684 101.812C172.641 101.744 172.552 101.724 172.484 101.767C172.416 101.81 172.396 101.9 172.439 101.968C172.462 102.004 174.662 105.524 174.457 109.902C171.667 105.228 168.943 102.513 168.888 102.46C168.812 102.385 168.689 102.385 168.614 102.463C168.539 102.539 168.54 102.662 168.617 102.737C168.662 102.782 170.599 104.717 172.866 108.11C171.538 107.616 170.096 107.359 168.75 107.385C168.669 107.386 168.605 107.453 168.607 107.533C168.608 107.613 168.673 107.676 168.752 107.676C168.753 107.676 168.754 107.676 168.755 107.676C170.197 107.65 171.749 107.952 173.145 108.531C173.925 109.726 174.734 111.092 175.514 112.605C174.766 112.099 173.312 111.398 171.453 111.89C171.375 111.91 171.329 111.99 171.349 112.068C171.37 112.145 171.449 112.193 171.527 112.171C173.886 111.549 175.549 112.959 175.821 113.21C177.956 117.509 179.797 122.944 180.041 129.172C180.045 129.277 180.131 129.359 180.234 129.359C180.237 129.359 180.24 129.359 180.242 129.359C180.349 129.355 180.433 129.265 180.429 129.157C180.264 124.943 179.371 121.09 178.153 117.697Z" fill="#F5F5F5"/>
<path d="M184.576 144.862C186.263 140.055 187.372 133.11 187.372 130.066C187.372 127.493 186.575 125.183 185.312 123.566H176.673C175.41 125.183 174.613 127.493 174.613 130.066C174.613 133.11 175.722 140.055 177.409 144.862H184.576Z" fill="#E6E6E6"/>
<path d="M87.8562 116.102H49.8789V129.21H87.8562V116.102Z" fill="#EBEBEB"/>
<path d="M87.8562 129.209H49.8789V142.318H87.8562V129.209Z" fill="#EBEBEB"/>
<path d="M64.3073 129.21L69.0326 116.102H61.76L57.0352 129.21H64.3073Z" fill="#F5F5F5"/>
<path d="M72.5495 116.102H70.9519L66.2266 129.21H67.8241L72.5495 116.102Z" fill="#F5F5F5"/>
<path d="M59.5846 142.318L64.31 129.209H57.0378L52.3125 142.318H59.5846Z" fill="#F5F5F5"/>
<path d="M67.8264 129.209H66.2288L61.5039 142.318H63.101L67.8264 129.209Z" fill="#F5F5F5"/>
<path d="M87.8555 118.117V116.791H49.8782V118.117H87.8555Z" fill="#E0E0E0"/>
<path d="M87.8555 131.125V129.799H49.8782V131.125H87.8555Z" fill="#E0E0E0"/>
<path d="M49.2148 115.514V142.892H49.8778H50.5408H87.1917H87.8546H88.5176V115.514H49.2148ZM87.1921 141.566H50.5412V129.903H87.1921V141.566ZM87.1921 128.577H50.5412V116.914H87.1921V128.577Z" fill="#F5F5F5"/>
<path d="M127.161 116.102H89.1836V129.21H127.161V116.102Z" fill="#EBEBEB"/>
<path d="M127.161 129.209H89.1836V142.318H127.161V129.209Z" fill="#EBEBEB"/>
<path d="M107.581 129.21L112.306 116.102H105.033L100.309 129.21H107.581Z" fill="#F5F5F5"/>
<path d="M115.822 116.102H114.225L109.5 129.21H111.098L115.822 116.102Z" fill="#F5F5F5"/>
<path d="M102.858 142.318L107.583 129.209H100.311L95.5859 142.318H102.858Z" fill="#F5F5F5"/>
<path d="M111.1 129.209H109.502L104.777 142.318H106.374L111.1 129.209Z" fill="#F5F5F5"/>
<path d="M127.16 118.117V116.791H89.1829V118.117H127.16Z" fill="#E0E0E0"/>
<path d="M127.16 131.123V129.797H89.1829V131.123H127.16Z" fill="#E0E0E0"/>
<path d="M88.5195 115.514V142.892H89.1825H89.8454H126.496H127.159H127.822V115.514H88.5195ZM126.497 141.566H89.8459V129.903H126.497V141.566ZM126.497 128.577H89.8459V116.914H126.497V128.577Z" fill="#F5F5F5"/>
<path d="M166.462 116.102H128.484V129.21H166.462V116.102Z" fill="#EBEBEB"/>
<path d="M166.462 129.209H128.484V142.318H166.462V129.209Z" fill="#EBEBEB"/>
<path d="M144.651 129.21L149.376 116.102H142.104L137.379 129.21H144.651Z" fill="#F5F5F5"/>
<path d="M152.893 116.102H151.296L146.57 129.21H148.168L152.893 116.102Z" fill="#F5F5F5"/>
<path d="M139.924 142.318L144.65 129.209H137.378L132.652 142.318H139.924Z" fill="#F5F5F5"/>
<path d="M148.166 129.209H146.569L141.844 142.318H143.441L148.166 129.209Z" fill="#F5F5F5"/>
<path d="M166.461 118.117V116.791H128.484V118.117H166.461Z" fill="#E0E0E0"/>
<path d="M166.461 131.123V129.797H128.484V131.123H166.461Z" fill="#E0E0E0"/>
<path d="M127.82 115.514V142.892H128.483H129.146H165.797H166.46H167.123V115.514H127.82ZM165.798 141.566H129.147V129.903H165.798V141.566ZM165.798 128.577H129.147V116.914H165.798V128.577Z" fill="#F5F5F5"/>
<path d="M163.326 144.865H53.0157L52.4414 142.893H163.9L163.326 144.865Z" fill="#E0E0E0"/>
<path d="M109.312 123.886C109.312 124.516 108.801 125.027 108.171 125.027C107.542 125.027 107.031 124.516 107.031 123.886C107.031 123.257 107.542 122.746 108.171 122.746C108.801 122.746 109.312 123.257 109.312 123.886Z" fill="#E0E0E0"/>
<path d="M108.171 124.706C108.801 124.706 109.312 124.196 109.312 123.566C109.312 122.936 108.801 122.426 108.171 122.426C107.542 122.426 107.031 122.936 107.031 123.566C107.031 124.196 107.542 124.706 108.171 124.706Z" fill="#FAFAFA"/>
<path d="M108.171 137.064C108.801 137.064 109.312 136.553 109.312 135.923C109.312 135.294 108.801 134.783 108.171 134.783C107.542 134.783 107.031 135.294 107.031 135.923C107.031 136.553 107.542 137.064 108.171 137.064Z" fill="#E0E0E0"/>
<path d="M109.312 135.603C109.312 136.233 108.801 136.743 108.171 136.743C107.542 136.743 107.031 136.233 107.031 135.603C107.031 134.973 107.542 134.463 108.171 134.463C108.801 134.463 109.312 134.973 109.312 135.603Z" fill="#FAFAFA"/>
<path d="M70.0109 123.886C70.0109 124.516 69.5004 125.027 68.8707 125.027C68.241 125.027 67.7305 124.516 67.7305 123.886C67.7305 123.257 68.241 122.746 68.8707 122.746C69.5004 122.746 70.0109 123.257 70.0109 123.886Z" fill="#E0E0E0"/>
<path d="M68.8707 124.706C69.5004 124.706 70.0109 124.196 70.0109 123.566C70.0109 122.936 69.5004 122.426 68.8707 122.426C68.241 122.426 67.7305 122.936 67.7305 123.566C67.7305 124.196 68.241 124.706 68.8707 124.706Z" fill="#FAFAFA"/>
<path d="M68.8707 137.064C69.5004 137.064 70.0109 136.553 70.0109 135.923C70.0109 135.294 69.5004 134.783 68.8707 134.783C68.241 134.783 67.7305 135.294 67.7305 135.923C67.7305 136.553 68.241 137.064 68.8707 137.064Z" fill="#E0E0E0"/>
<path d="M70.0109 135.603C70.0109 136.233 69.5004 136.743 68.8707 136.743C68.241 136.743 67.7305 136.233 67.7305 135.603C67.7305 134.973 68.241 134.463 68.8707 134.463C69.5004 134.463 70.0109 134.973 70.0109 135.603Z" fill="#FAFAFA"/>
<path d="M149.312 123.886C149.312 124.516 148.801 125.027 148.171 125.027C147.542 125.027 147.031 124.516 147.031 123.886C147.031 123.257 147.542 122.746 148.171 122.746C148.801 122.747 149.312 123.257 149.312 123.886Z" fill="#E0E0E0"/>
<path d="M148.171 124.706C148.801 124.706 149.312 124.196 149.312 123.566C149.312 122.936 148.801 122.426 148.171 122.426C147.542 122.426 147.031 122.936 147.031 123.566C147.031 124.196 147.542 124.706 148.171 124.706Z" fill="#FAFAFA"/>
<path d="M148.171 137.064C148.801 137.064 149.312 136.553 149.312 135.923C149.312 135.294 148.801 134.783 148.171 134.783C147.542 134.783 147.031 135.294 147.031 135.923C147.031 136.553 147.542 137.064 148.171 137.064Z" fill="#E0E0E0"/>
<path d="M149.312 135.603C149.312 136.233 148.801 136.743 148.171 136.743C147.542 136.743 147.031 136.233 147.031 135.603C147.031 134.973 147.542 134.463 148.171 134.463C148.801 134.463 149.312 134.973 149.312 135.603Z" fill="#FAFAFA"/>
<path d="M122.865 163.42C177.775 163.42 222.289 161.174 222.289 158.403C222.289 155.631 177.775 153.385 122.865 153.385C67.9549 153.385 23.4414 155.631 23.4414 158.403C23.4414 161.174 67.9549 163.42 122.865 163.42Z" fill="#F5F5F5"/>
<path d="M184.378 11.6816H36.9922V97.2379H184.378V11.6816Z" fill="#A72C2C"/>
<path opacity="0.5" d="M184.378 11.6816H36.9922V97.2379H184.378V11.6816Z" fill="white"/>
<path d="M36.9922 11.6816V18.5815H61.647V15.9315C61.647 14.6149 62.7141 13.5478 64.0307 13.5478H80.4446C81.7612 13.5478 82.8283 14.6149 82.8283 15.9315V18.5815H184.378V11.6816H36.9922Z" fill="#A72C2C"/>
<path opacity="0.7" d="M43.1442 15.1327C43.1442 16.0074 42.4352 16.7165 41.5604 16.7165C40.6856 16.7165 39.9766 16.0074 39.9766 15.1327C39.9766 14.2579 40.6856 13.5488 41.5604 13.5488C42.4352 13.5488 43.1442 14.2579 43.1442 15.1327Z" fill="white"/>
<path opacity="0.7" d="M47.8942 15.1327C47.8942 16.0074 47.1852 16.7165 46.3104 16.7165C45.4356 16.7165 44.7266 16.0074 44.7266 15.1327C44.7266 14.2579 45.4356 13.5488 46.3104 13.5488C47.1852 13.5488 47.8942 14.2579 47.8942 15.1327Z" fill="white"/>
<path opacity="0.7" d="M52.6442 15.1327C52.6442 16.0074 51.9352 16.7165 51.0604 16.7165C50.1856 16.7165 49.4766 16.0074 49.4766 15.1327C49.4766 14.2579 50.1856 13.5488 51.0604 13.5488C51.9352 13.5488 52.6442 14.2579 52.6442 15.1327Z" fill="white"/>
<path opacity="0.3" d="M178.976 31.7734H82.8203V91.8689H178.976V31.7734Z" fill="white"/>
<path opacity="0.3" d="M70.4206 31.7734H42.1523V60.0421H70.4206V31.7734Z" fill="white"/>
<path opacity="0.4" d="M70.4206 31.7734H42.1523V60.0421H70.4206V31.7734Z" fill="white"/>
<path d="M65.4934 67.5312H48.7617V68.7251H65.4934V67.5312Z" fill="#263238"/>
<path d="M178.441 22.5723H150.121V26.9125H178.441V22.5723Z" fill="#A72C2C"/>
<path opacity="0.9" d="M178.441 22.5723H150.121V26.9125H178.441V22.5723Z" fill="white"/>
<path d="M178.982 22.5723H178.441V26.9125H178.982V22.5723Z" fill="#A72C2C"/>
<path d="M111.685 22.5723H111.145V26.9125H111.685V22.5723Z" fill="#A72C2C"/>
<path d="M111.144 22.5723H82.8242V26.9125H111.144V22.5723Z" fill="#A72C2C"/>
<path opacity="0.9" d="M111.144 22.5723H82.8242V26.9125H111.144V22.5723Z" fill="white"/>
<path opacity="0.4" d="M80.309 91.4344C79.5773 91.4344 78.9844 90.8414 78.9844 90.1098V73.223C78.9844 72.4914 79.5773 71.8984 80.309 71.8984C81.0406 71.8984 81.6335 72.4914 81.6335 73.223V90.1098C81.6335 90.8414 81.0406 91.4344 80.309 91.4344Z" fill="white"/>
<path opacity="0.4" d="M46.6096 68.129C46.6096 69.2963 45.6635 70.2424 44.4962 70.2424C43.3289 70.2424 42.3828 69.2963 42.3828 68.129C42.3828 66.9618 43.3289 66.0156 44.4962 66.0156C45.6635 66.0156 46.6096 66.9618 46.6096 68.129Z" fill="white"/>
<path d="M70.1934 74.1777H48.7617V75.3716H70.1934V74.1777Z" fill="#263238"/>
<path opacity="0.4" d="M46.6096 74.7755C46.6096 75.9428 45.6635 76.8889 44.4962 76.8889C43.3289 76.8889 42.3828 75.9428 42.3828 74.7755C42.3828 73.6082 43.3289 72.6621 44.4962 72.6621C45.6635 72.6617 46.6096 73.6082 46.6096 74.7755Z" fill="white"/>
<path d="M67.2022 80.8242H48.7617V82.0181H67.2022V80.8242Z" fill="#263238"/>
<path opacity="0.4" d="M46.6096 81.42C46.6096 82.5873 45.6635 83.5334 44.4962 83.5334C43.3289 83.5334 42.3828 82.5873 42.3828 81.42C42.3828 80.2528 43.3289 79.3066 44.4962 79.3066C45.6635 79.3066 46.6096 80.2528 46.6096 81.42Z" fill="white"/>
<path d="M65.4934 87.4688H48.7617V88.6626H65.4934V87.4688Z" fill="#263238"/>
<path opacity="0.4" d="M46.6096 88.0665C46.6096 89.2338 45.6635 90.1799 44.4962 90.1799C43.3289 90.1799 42.3828 89.2338 42.3828 88.0665C42.3828 86.8993 43.3289 85.9531 44.4962 85.9531C45.6635 85.9531 46.6096 86.8993 46.6096 88.0665Z" fill="white"/>
<path d="M138.734 100.007C140.935 100.007 151.555 100.007 153.756 100.007C154.081 100.007 154.126 99.502 153.8 99.502C151.6 99.502 140.98 99.502 138.779 99.502C138.454 99.502 138.409 100.007 138.734 100.007Z" fill="#A72C2C"/>
<path d="M156.18 100.007C156.813 100.007 157.445 100.007 158.077 100.007C158.402 100.007 158.447 99.502 158.121 99.502C157.489 99.502 156.857 99.502 156.224 99.502C155.899 99.502 155.854 100.007 156.18 100.007Z" fill="#A72C2C"/>
<path d="M82.1989 9.64258C79.9982 9.64258 69.3781 9.64258 67.1774 9.64258C66.8521 9.64258 66.8078 10.1478 67.1331 10.1478C69.3338 10.1478 79.9539 10.1478 82.1546 10.1478C82.4799 10.1478 82.5246 9.64258 82.1989 9.64258Z" fill="#A72C2C"/>
<path d="M64.7538 9.64258C64.1214 9.64258 63.489 9.64258 62.8571 9.64258C62.5318 9.64258 62.4875 10.1478 62.8128 10.1478C63.4451 10.1478 64.0775 10.1478 64.7095 10.1478C65.0347 10.1478 65.0795 9.64258 64.7538 9.64258Z" fill="#A72C2C"/>
<path d="M176.859 42.4434H146.402V70.7373H176.859V42.4434Z" fill="#A72C2C"/>
<path opacity="0.9" d="M176.859 42.4434H146.402V70.7373H176.859V42.4434Z" fill="white"/>
<path d="M176.861 70.7383H177.48V42.4443H176.861V70.7383Z" fill="#A72C2C"/>
<path d="M176.87 63.4082H146.395V70.7375H176.87V63.4082Z" fill="#A72C2C"/>
<path d="M172.252 45.0723H151.012V47.0456H172.252V45.0723Z" fill="#263238"/>
<path d="M172.252 52.1055H151.012V54.0788H172.252V52.1055Z" fill="#263238"/>
<path d="M172.252 59.1406H151.012V61.114H172.252V59.1406Z" fill="#263238"/>
<path d="M175.083 65.9141H148.18V68.4139H175.083V65.9141Z" fill="white"/>
<path d="M145.785 21.9961H115.328V56.9466H145.785V21.9961Z" fill="#A72C2C"/>
<path opacity="0.9" d="M145.785 21.9961H115.328V56.9466H145.785V21.9961Z" fill="white"/>
<path d="M145.782 56.9492H146.402V21.9987H145.782V56.9492Z" fill="#A72C2C"/>
<path d="M144.715 23.0645H116.395V27.4047H144.715V23.0645Z" fill="#A72C2C"/>
<path d="M145.784 42.4434H115.309V49.7727H145.784V42.4434Z" fill="#A72C2C"/>
<path d="M141.177 31.2832H119.938V33.2566H141.177V31.2832Z" fill="#263238"/>
<path d="M141.177 38.3184H119.938V40.2917H141.177V38.3184Z" fill="#263238"/>
<path d="M144.009 45.0898H117.105V47.5897H144.009V45.0898Z" fill="white"/>
<path d="M141.177 52.3867H119.938V54.3601H141.177V52.3867Z" fill="#263238"/>
<path d="M79.5116 64.918C79.5116 64.918 74.3223 75.59 76.4907 76.4665C78.659 77.3431 85.9613 77.8385 85.9613 77.8385L89.1449 80.8839L90.9906 79.6842L90.5222 76.5809L86.3366 75.7043L80.744 73.9671C80.2437 73.8116 79.9933 73.2523 80.2105 72.7755L82.9141 66.847L79.5116 64.918Z" fill="#E4897B"/>
<path d="M81.0647 61.0514C80.9176 60.6158 80.3583 60.5028 80.0521 60.8458C79.5141 61.4489 78.7213 62.6658 77.7947 65.1085L76.8477 67.6336L81.6612 70.9479L83.4763 68.1862L81.0647 61.0514Z" fill="white"/>
<path opacity="0.2" d="M80.5391 64.0138L81.0695 63.334L82.099 64.1117L83.4763 68.1869L81.6616 70.9487L80.7394 70.3136C81.0234 67.7119 80.5391 64.0138 80.5391 64.0138Z" fill="black"/>
<path d="M82.353 70.4946L76.8442 66.6152L76.4453 67.8051L81.6475 71.4203L82.353 70.4946Z" fill="#A72C2C"/>
<path opacity="0.5" d="M82.353 70.4946L76.8442 66.6152L76.4453 67.8051L81.6475 71.4203L82.353 70.4946Z" fill="white"/>
<path d="M82.0376 144.306L79.4988 152.938L76.9219 152.788L77.4674 143.418L82.0376 144.306Z" fill="#E4897B"/>
<path d="M95.3937 80.4C95.3937 80.4 98.5263 86.6976 95.5147 98.2776C92.503 109.858 80.4537 150.2 80.4537 150.2L77.06 149.793C77.06 149.793 76.8464 135.317 81.6201 123.634C81.6201 123.634 83.9107 103.774 82.7949 99.105C82.0149 95.8407 81.5403 93.1136 82.8866 88.1702C83.6471 85.3775 84.3818 83.3722 85.0607 82.0206C85.9475 80.2551 85.6851 79.5762 85.6851 79.5762L95.3937 80.4Z" fill="#A72C2C"/>
<path opacity="0.5" d="M95.3937 80.4C95.3937 80.4 98.5263 86.6976 95.5147 98.2776C92.503 109.858 80.4537 150.2 80.4537 150.2L77.06 149.793C77.06 149.793 76.8464 135.317 81.6201 123.634C81.6201 123.634 83.9107 103.774 82.7949 99.105C82.0149 95.8407 81.5403 93.1136 82.8866 88.1702C83.6471 85.3775 84.3818 83.3722 85.0607 82.0206C85.9475 80.2551 85.6851 79.5762 85.6851 79.5762L95.3937 80.4Z" fill="black"/>
<path opacity="0.4" d="M91.3844 113.034C87.0309 100.935 88.2292 92.1557 88.2292 92.1557L90.9515 91.8008L93.0821 95.5884L94.5671 101.795C93.7238 104.86 92.6137 108.767 91.3844 113.034Z" fill="black"/>
<path d="M80.0886 152.947C80.0567 152.936 80.0341 152.907 80.0314 152.873C80.0292 152.839 80.0491 152.807 80.0806 152.794C80.1364 152.77 81.4034 152.237 81.952 152.461C82.0544 152.501 82.1373 152.58 82.1825 152.68C82.2463 152.793 82.2317 152.934 82.1461 153.031C81.9844 153.195 81.5381 153.22 81.1158 153.168C80.7675 153.125 80.424 153.051 80.0886 152.947ZM80.362 152.871C80.9846 153.025 81.8421 153.124 82.0265 152.922C82.0526 152.897 82.0797 152.851 82.0318 152.744C82.0061 152.68 81.9534 152.632 81.8873 152.612C81.839 152.592 81.7881 152.579 81.7358 152.574C81.2634 152.585 80.7972 152.685 80.362 152.871Z" fill="#A72C2C"/>
<path d="M80.0484 152.936C80.0258 152.917 80.0156 152.888 80.0209 152.859C80.0307 152.817 80.2323 151.912 80.7078 151.608C80.8447 151.518 81.0127 151.488 81.1722 151.525C81.3911 151.574 81.447 151.694 81.4439 151.788C81.47 152.179 80.5642 152.816 80.1366 152.948C80.1255 152.952 80.1135 152.951 80.1025 152.946C80.0843 152.95 80.0648 152.946 80.0484 152.936ZM81.1 151.671C80.9981 151.658 80.8953 151.682 80.8097 151.738C80.5208 152 80.3196 152.345 80.2327 152.725C80.6839 152.527 81.2888 152.016 81.2959 151.783C81.2923 151.761 81.2897 151.702 81.1465 151.672L81.1 151.671Z" fill="#A72C2C"/>
<path d="M79.8 152.429L76.0917 151.981C75.9521 151.964 75.8191 152.046 75.7722 152.179L74.7369 155.115C74.643 155.374 74.7777 155.661 75.0374 155.755C75.0706 155.767 75.1052 155.775 75.1402 155.78C76.4799 155.919 77.6773 155.989 79.3417 156.192C81.3058 156.431 80.7789 156.605 83.0842 156.917C84.473 157.104 84.9193 155.553 84.3387 155.404C81.6798 154.738 81.4981 153.889 80.5733 152.796C80.369 152.583 80.0938 152.453 79.8 152.429Z" fill="#263238"/>
<path d="M81.2032 149.573L76.5 148.982L76.5722 150.384L80.7206 150.897L81.2032 149.573Z" fill="#263238"/>
<path opacity="0.4" d="M81.2032 149.573L76.5 148.982L76.5722 150.384L80.7206 150.897L81.2032 149.573Z" fill="black"/>
<path d="M95.0438 144.889L93.9346 153.49H91.3306L90.6602 145.047L95.0438 144.889Z" fill="#E4897B"/>
<path d="M99.5416 79.4336C99.5416 79.4336 99.5798 80.1812 100.172 81.6892C101.23 84.3832 102.369 92.8429 102.133 97.1233C101.473 109.07 94.3936 150.63 94.3936 150.63H90.972C90.972 150.63 88.6286 136.486 91.3943 124.026C91.3943 124.026 92.375 106.487 90.9148 101.914C89.8982 98.7306 87.023 95.6494 87.76 88.9237C88.497 82.198 90.2815 79.8949 90.2815 79.8949L99.5416 79.4336Z" fill="#A72C2C"/>
<path opacity="0.5" d="M99.5416 79.4336C99.5416 79.4336 99.5798 80.1812 100.172 81.6892C101.23 84.3832 102.369 92.8429 102.133 97.1233C101.473 109.07 94.3936 150.63 94.3936 150.63H90.972C90.972 150.63 88.6286 136.486 91.3943 124.026C91.3943 124.026 92.375 106.487 90.9148 101.914C89.8982 98.7306 87.023 95.6494 87.76 88.9237C88.497 82.198 90.2815 79.8949 90.2815 79.8949L99.5416 79.4336Z" fill="black"/>
<path d="M85.1562 82.9603L85.805 81.6211C86.0328 81.6534 86.2601 81.684 86.4862 81.7119L86.0931 83.0946C85.7829 83.0542 85.47 83.0086 85.1562 82.9603Z" fill="#A72C2C"/>
<path d="M95.0043 81.9427C96.8536 81.8297 98.3524 81.6378 99.3144 81.4902L99.7922 82.8574C98.7986 83.0204 97.1222 83.2509 95.0039 83.3767L95.0043 81.9427Z" fill="#A72C2C"/>
<path d="M87.5247 81.8262C89.8402 82.0522 92.032 82.0721 93.934 81.9959V83.4291C93.314 83.453 92.6666 83.4676 91.9912 83.4676C90.4894 83.4676 88.8621 83.3976 87.168 83.2212L87.5247 81.8262Z" fill="#A72C2C"/>
<g opacity="0.5">
<path d="M85.1562 82.9603L85.805 81.6211C86.0328 81.6534 86.2601 81.684 86.4862 81.7119L86.0931 83.0946C85.7829 83.0542 85.47 83.0086 85.1562 82.9603Z" fill="white"/>
<path d="M95.0043 81.9427C96.8536 81.8297 98.3524 81.6378 99.3144 81.4902L99.7922 82.8574C98.7986 83.0204 97.1222 83.2509 95.0039 83.3767L95.0043 81.9427Z" fill="white"/>
<path d="M87.168 83.2212L87.5247 81.8262C89.8402 82.0522 92.032 82.0721 93.934 81.9959V83.4291C93.314 83.453 92.6666 83.4676 91.9912 83.4676" fill="white"/>
</g>
<path d="M95.0802 153.411C95.047 153.404 95.0208 153.379 95.0133 153.346C95.0066 153.312 95.0217 153.278 95.0509 153.26C95.1028 153.229 96.2842 152.526 96.8581 152.672C96.9649 152.698 97.058 152.765 97.1169 152.858C97.1958 152.96 97.2007 153.102 97.1298 153.21C96.9919 153.395 96.5541 153.481 96.1287 153.489C95.7773 153.494 95.4267 153.467 95.0802 153.411ZM95.3403 153.297C95.9785 153.365 96.8413 153.343 96.9959 153.118C97.0185 153.09 97.0385 153.041 96.9764 152.941C96.9423 152.882 96.8829 152.841 96.8156 152.831C96.7646 152.817 96.7128 152.812 96.66 152.813C96.1938 152.89 95.7458 153.054 95.3403 153.297Z" fill="#A72C2C"/>
<path d="M95.0378 153.407C95.013 153.391 94.9984 153.363 95.0001 153.334C95.0041 153.291 95.0781 152.367 95.5075 152.001C95.6307 151.892 95.7929 151.84 95.956 151.854C96.1798 151.872 96.2516 151.984 96.2614 152.076C96.3411 152.46 95.5324 153.217 95.1269 153.406C95.1167 153.411 95.1043 153.412 95.0932 153.409C95.075 153.415 95.0551 153.415 95.0378 153.407ZM95.9046 152.008C95.8018 152.009 95.703 152.047 95.6263 152.115C95.3764 152.415 95.2244 152.784 95.1911 153.173C95.6108 152.914 96.139 152.324 96.1138 152.092C96.1076 152.071 96.0969 152.013 95.9507 152.003L95.9046 152.008Z" fill="#A72C2C"/>
<path d="M94.7211 152.938L90.9862 153.006C90.8453 153.009 90.7252 153.108 90.6968 153.246L90.0773 156.297C90.0201 156.567 90.1934 156.832 90.4633 156.889C90.4979 156.897 90.5333 156.9 90.5688 156.9C91.9146 156.852 93.1107 156.756 94.7867 156.728C96.7649 156.692 96.2673 156.938 98.5934 156.929C99.9951 156.922 100.222 155.324 99.6268 155.257C96.9014 154.965 96.6041 154.149 95.5369 153.194C95.3061 153.012 95.0158 152.92 94.7211 152.938Z" fill="#263238"/>
<path d="M90.7757 46.0131C90.6977 45.7393 90.7792 45.476 90.9582 45.4246C91.1373 45.3737 91.3456 45.554 91.424 45.8279C91.502 46.1018 91.4205 46.365 91.2419 46.416C91.0624 46.4674 90.8541 46.287 90.7757 46.0131Z" fill="#263238"/>
<path d="M90.7461 46.4297L92.8369 47.7702C92.8369 47.7702 92.4221 48.5276 91.3927 48.6197L90.7461 46.4297Z" fill="#DE5753"/>
<path d="M90.1116 45.5046C90.1648 45.4882 90.2069 45.4475 90.2251 45.3947C90.3372 44.9853 90.6399 44.6547 91.0382 44.5075C91.1251 44.4814 91.1752 44.3905 91.1504 44.3032C91.1242 44.2155 91.0329 44.1641 90.9443 44.1871C90.4387 44.3653 90.0509 44.7779 89.9047 45.2937C89.8736 45.3779 89.9162 45.4714 90.0004 45.5024C90.003 45.5033 90.0057 45.5042 90.0084 45.5051C90.0416 45.5179 90.0784 45.5175 90.1116 45.5046Z" fill="#263238"/>
<path d="M81.4122 48.9897C82.8152 52.301 83.3382 53.7355 85.6612 54.8686C88.898 55.715 92.9222 54.1263 92.5349 50.4601C92.1884 47.1613 89.9575 42.3128 86.1588 42.1178C83.4512 41.98 81.1441 44.0632 81.0063 46.7713C80.9677 47.5322 81.1065 48.2918 81.4122 48.9897Z" fill="#E4897B"/>
<path opacity="0.2" d="M89.1255 53.3103C89.1255 53.3103 91.5332 53.8 92.4851 51.6973C92.1616 53.3843 90.7586 54.4608 89.0684 54.8826L88.4883 54.4776L88.802 53.621L89.1255 53.3103Z" fill="black"/>
<path d="M84.75 58.8052C84.75 58.8052 86.831 57.7864 85.331 53.8193C85.331 53.8193 86.9924 52.1708 88.7198 52.8701C90.4472 53.5694 88.9972 57.2236 91.0299 57.7869C91.0299 57.7869 89.9686 59.2568 84.75 58.8052Z" fill="#E4897B"/>
<path d="M88.8177 48.14C88.8177 48.14 88.0811 47.4584 87.3765 46.4436C86.6719 45.4288 88.3151 44.2487 88.0386 42.3688C87.7621 40.4894 85.8002 41.6345 85.8002 41.6345C85.8002 41.6345 81.1019 41.1027 80.4673 45.981C80.4673 45.981 78.8578 48.2402 79.8686 51.0462C80.8121 53.6652 83.5849 55.2681 86.3245 54.7735C86.4313 54.7545 86.5336 54.731 86.6307 54.7026C87.8919 54.3366 88.714 53.1166 88.741 51.804L88.8177 48.14Z" fill="#263238"/>
<path d="M85.7691 54.8379C85.7691 54.8379 84.5345 55.2531 85.0122 55.7463C85.4904 56.2396 85.7691 54.8379 85.7691 54.8379Z" fill="#263238"/>
<path d="M81.7307 47.091C81.6522 45.9787 81.3642 45.0924 80.2519 45.1708C79.1396 45.2493 79.0735 46.1604 79.152 47.2727C79.2304 48.385 79.4236 49.278 80.5359 49.1995C81.6483 49.1211 81.8091 48.2038 81.7307 47.091Z" fill="#A72C2C"/>
<path d="M87.826 47.9255C88.5076 48.1998 89.0518 48.7347 89.3376 49.4114C89.7108 50.3119 88.933 50.8871 88.0237 50.7417C87.1999 50.6105 86.022 49.9817 86.0353 49.025C86.049 48.0677 86.9889 47.5993 87.826 47.9255Z" fill="#E4897B"/>
<path d="M76.1755 47.4854C76.2916 49.1317 77.7203 50.3721 79.3662 50.2559C81.0125 50.1398 81.11 48.7918 80.9939 47.1455C80.8778 45.4991 80.5919 44.1781 78.9456 44.2942C77.3002 44.4103 76.0594 45.839 76.1755 47.4854Z" fill="#263238"/>
<path d="M87.4977 40.9415C87.1893 41.4055 86.8808 42.0316 87.215 42.477C87.4077 42.7336 87.7534 42.824 87.9834 43.0478C88.2378 43.2955 88.3158 43.6687 88.3738 44.0187C88.5852 45.2937 88.6946 46.5855 88.7008 47.8777C89.604 46.3457 90.5342 44.7251 90.5701 42.9472C90.5807 42.4185 90.5062 41.8757 90.2545 41.4108C90.0028 40.9459 89.553 40.5684 89.0292 40.497C88.5054 40.4257 87.4977 40.9415 87.4977 40.9415Z" fill="#263238"/>
<path d="M92.3508 57.9989C92.3508 57.9989 92.5533 55.4605 87.645 56.4864C82.7366 57.5127 86.0314 58.9166 86.0314 58.9166L92.3508 57.9989Z" fill="#A72C2C"/>
<path opacity="0.5" d="M92.3508 57.9989C92.3508 57.9989 92.5533 55.4605 87.645 56.4864C82.7366 57.5127 86.0314 58.9166 86.0314 58.9166L92.3508 57.9989Z" fill="white"/>
<path d="M99.4389 80.342C93.9469 81.4122 87.6453 80.9718 85.3347 80.7542C84.814 80.7023 85.7654 74.5611 80.2309 63.4065C79.696 62.3363 79.8804 61.025 80.8039 60.2628C84.5774 57.1381 91.4285 57.2609 94.5864 57.5122C95.6987 57.6021 96.7215 58.18 97.3229 59.1173C98.3784 60.7507 99.0653 62.8765 99.5005 65.1446C99.8838 67.1521 100.069 69.273 100.13 71.2711C100.277 76.1378 99.6902 80.2946 99.4389 80.342Z" fill="white"/>
<path opacity="0.2" d="M100.129 71.2721C98.3719 70.9362 95.8672 64.4023 95.8672 64.4023L99.4984 65.1455C99.8826 67.153 100.067 69.2739 100.129 71.2721Z" fill="black"/>
<path d="M99.0902 60.9075L104.364 64.2723C104.763 64.5276 105.296 64.3929 105.526 63.9785L109.797 56.2996L111.348 52.3143L111.779 51.8308L114.426 49.5801H115.448L113.47 51.3438L114.019 52.2846L114.9 54.3019L111.373 57.4159C111.373 57.4159 109.33 66.6197 107.136 68.5838C105.394 70.1441 96.6289 63.9475 96.6289 63.9475L99.0902 60.9075Z" fill="#E4897B"/>
<path d="M95.4426 57.6975C96.811 58.1158 99.8236 59.4803 104.548 63.9269L101.076 68.5827C101.076 68.5827 97.6043 68.0305 95.8684 64.4006C94.6675 61.8893 94.5133 59.5561 94.5328 58.3569C94.5399 57.8867 94.9932 57.5606 95.4426 57.6975Z" fill="white"/>
<path d="M104.006 62.9824L100.074 68.6596L101.39 68.9344L105.102 63.8674L104.006 62.9824Z" fill="#A72C2C"/>
<path opacity="0.5" d="M104.006 62.9824L100.074 68.6596L101.39 68.9344L105.102 63.8674L104.006 62.9824Z" fill="white"/>
<path d="M95.0452 149.904H90.3008L90.5658 151.283H94.75L95.0452 149.904Z" fill="#263238"/>
<path opacity="0.4" d="M95.0452 149.904H90.3008L90.5658 151.283H94.75L95.0452 149.904Z" fill="black"/>
<path d="M141.64 146.31V97.5848C141.64 95.4761 140.993 93.4185 139.787 91.6889L138.086 89.25H168.327L170.028 91.6889C171.234 93.4185 171.881 95.4764 171.881 97.5848V145.835" stroke="#263238" stroke-width="6" stroke-miterlimit="10" stroke-linecap="round" stroke-linejoin="round"/>
<path d="M205.888 156.976C207.617 156.976 209.019 155.574 209.019 153.845C209.019 152.116 207.617 150.715 205.888 150.715C204.159 150.715 202.758 152.116 202.758 153.845C202.758 155.574 204.159 156.976 205.888 156.976Z" fill="#263238"/>
<path opacity="0.4" d="M207.455 153.845C207.455 152.98 206.754 152.279 205.89 152.279C205.025 152.279 204.324 152.98 204.324 153.845C204.324 154.709 205.025 155.41 205.89 155.41C206.754 155.41 207.455 154.709 207.455 153.845Z" fill="white"/>
<path d="M205.512 154.543C205.012 154.543 204.565 154.231 204.393 153.761L202.547 148.709H206.703V153.352C206.703 154.01 206.169 154.543 205.512 154.543Z" fill="#263238"/>
<path opacity="0.2" d="M205.512 154.543C205.012 154.543 204.565 154.231 204.393 153.761L202.547 148.709H206.703V153.352C206.703 154.01 206.169 154.543 205.512 154.543Z" fill="white"/>
<path d="M171.064 156.976C172.793 156.976 174.194 155.574 174.194 153.845C174.194 152.116 172.793 150.715 171.064 150.715C169.335 150.715 167.934 152.116 167.934 153.845C167.934 155.574 169.335 156.976 171.064 156.976Z" fill="#263238"/>
<path opacity="0.4" d="M172.631 153.845C172.631 152.98 171.93 152.279 171.065 152.279C170.201 152.279 169.5 152.98 169.5 153.845C169.5 154.709 170.201 155.41 171.065 155.41C171.93 155.41 172.631 154.709 172.631 153.845Z" fill="white"/>
<path d="M170.691 154.543C170.191 154.543 169.745 154.231 169.573 153.761L167.727 148.709H171.882V153.352C171.882 154.01 171.349 154.543 170.691 154.543Z" fill="#263238"/>
<path opacity="0.2" d="M170.691 154.543C170.191 154.543 169.745 154.231 169.573 153.761L167.727 148.709H171.882V153.352C171.882 154.01 171.349 154.543 170.691 154.543Z" fill="white"/>
<path d="M211.277 145.064V148.021C211.277 148.572 210.829 149.02 210.278 149.02H140.295C139.745 149.02 139.297 148.572 139.297 148.021V145.064H211.277Z" fill="#263238"/>
<path opacity="0.4" d="M211.277 145.064V148.021C211.277 148.572 210.829 149.02 210.278 149.02H140.295C139.745 149.02 139.297 148.572 139.297 148.021V145.064H211.277Z" fill="white"/>
<path opacity="0.2" d="M186.401 145.064V148.021C186.401 148.572 185.953 149.02 185.402 149.02H140.295C139.745 149.02 139.297 148.572 139.297 148.021V145.064H186.401Z" fill="white"/>
<path d="M180.658 156.976C182.387 156.976 183.788 155.574 183.788 153.845C183.788 152.116 182.387 150.715 180.658 150.715C178.929 150.715 177.527 152.116 177.527 153.845C177.527 155.574 178.929 156.976 180.658 156.976Z" fill="#263238"/>
<path opacity="0.6" d="M182.225 153.845C182.225 152.98 181.524 152.279 180.659 152.279C179.795 152.279 179.094 152.98 179.094 153.845C179.094 154.709 179.795 155.41 180.659 155.41C181.524 155.41 182.225 154.709 182.225 153.845Z" fill="white"/>
<path d="M180.286 154.543C179.785 154.543 179.338 154.231 179.167 153.761L177.32 148.709H181.476V153.352C181.476 154.01 180.943 154.543 180.286 154.543Z" fill="#263238"/>
<path opacity="0.4" d="M180.286 154.543C179.785 154.543 179.338 154.231 179.167 153.761L177.32 148.709H181.476V153.352C181.476 154.01 180.943 154.543 180.286 154.543Z" fill="white"/>
<path d="M145.841 156.976C147.57 156.976 148.972 155.574 148.972 153.845C148.972 152.116 147.57 150.715 145.841 150.715C144.112 150.715 142.711 152.116 142.711 153.845C142.711 155.574 144.112 156.976 145.841 156.976Z" fill="#263238"/>
<path opacity="0.6" d="M147.408 153.845C147.408 152.98 146.707 152.279 145.843 152.279C144.978 152.279 144.277 152.98 144.277 153.845C144.277 154.709 144.978 155.41 145.843 155.41C146.707 155.41 147.408 154.709 147.408 153.845Z" fill="white"/>
<path d="M145.461 154.543C144.961 154.543 144.514 154.231 144.343 153.761L142.496 148.709H146.652V153.352C146.652 154.01 146.119 154.543 145.461 154.543Z" fill="#263238"/>
<path opacity="0.4" d="M145.461 154.543C144.961 154.543 144.514 154.231 144.343 153.761L142.496 148.709H146.652V153.352C146.652 154.01 146.119 154.543 145.461 154.543Z" fill="white"/>
<path d="M181.106 122.123H147.969V145.062H181.106V122.123Z" fill="#A72C2C"/>
<path opacity="0.4" d="M181.106 122.123H147.969V145.062H181.106V122.123Z" fill="white"/>
<path opacity="0.2" d="M163.346 122.123H147.969V145.062H163.346V122.123Z" fill="white"/>
<path opacity="0.2" d="M161.89 143.491H159.969C159.787 143.491 159.641 143.345 159.641 143.163V140.539C159.641 140.358 159.787 140.211 159.969 140.211H161.89C162.071 140.211 162.218 140.358 162.218 140.539V143.163C162.218 143.345 162.071 143.491 161.89 143.491Z" fill="black"/>
<path opacity="0.2" d="M158.429 143.491H156.508C156.326 143.491 156.18 143.345 156.18 143.163V140.539C156.18 140.358 156.326 140.211 156.508 140.211H158.429C158.61 140.211 158.757 140.358 158.757 140.539V143.163C158.757 143.345 158.61 143.491 158.429 143.491Z" fill="black"/>
<path opacity="0.4" d="M173.984 122.123H172.109V124.513H173.984V122.123Z" fill="black"/>
<path opacity="0.2" d="M179.103 131.916H166.203V134.915H179.103V131.916Z" fill="black"/>
<path opacity="0.2" d="M153.383 123.318H148.973V127.728H153.383V123.318Z" fill="black"/>
<path d="M184.481 99.1855H151.344V122.125H184.481V99.1855Z" fill="#A72C2C"/>
<path opacity="0.4" d="M184.481 99.1855H151.344V122.125H184.481V99.1855Z" fill="black"/>
<path opacity="0.2" d="M166.721 99.1855H151.344V122.125H166.721V99.1855Z" fill="white"/>
<path opacity="0.2" d="M165.265 120.554H163.344C163.162 120.554 163.016 120.407 163.016 120.226V117.601C163.016 117.42 163.162 117.273 163.344 117.273H165.265C165.446 117.273 165.593 117.42 165.593 117.601V120.226C165.593 120.407 165.446 120.554 165.265 120.554Z" fill="black"/>
<path opacity="0.2" d="M161.804 120.554H159.883C159.701 120.554 159.555 120.407 159.555 120.226V117.601C159.555 117.42 159.701 117.273 159.883 117.273H161.804C161.985 117.273 162.132 117.42 162.132 117.601V120.226C162.132 120.407 161.985 120.554 161.804 120.554Z" fill="black"/>
<path opacity="0.4" d="M177.359 99.1855H175.484V101.575H177.359V99.1855Z" fill="black"/>
<path opacity="0.2" d="M182.478 108.979H169.578V111.978H182.478V108.979Z" fill="black"/>
<path opacity="0.2" d="M156.758 100.379H152.348V104.789H156.758V100.379Z" fill="black"/>
<path d="M204.771 99.1855H171.633V122.125H204.771V99.1855Z" fill="#A72C2C"/>
<path opacity="0.4" d="M204.771 99.1855H171.633V122.125H204.771V99.1855Z" fill="white"/>
<path opacity="0.2" d="M187.01 99.1855H171.633V122.125H187.01V99.1855Z" fill="white"/>
<path opacity="0.2" d="M185.554 120.554H183.633C183.451 120.554 183.305 120.407 183.305 120.226V117.601C183.305 117.42 183.451 117.273 183.633 117.273H185.554C185.735 117.273 185.882 117.42 185.882 117.601V120.226C185.882 120.407 185.735 120.554 185.554 120.554Z" fill="black"/>
<path opacity="0.2" d="M182.093 120.554H180.172C179.991 120.554 179.844 120.407 179.844 120.226V117.601C179.844 117.42 179.991 117.273 180.172 117.273H182.093C182.274 117.273 182.421 117.42 182.421 117.601V120.226C182.421 120.407 182.274 120.554 182.093 120.554Z" fill="black"/>
<path opacity="0.4" d="M197.648 99.1855H195.773V101.575H197.648V99.1855Z" fill="black"/>
<path opacity="0.2" d="M202.767 108.979H189.867V111.978H202.767V108.979Z" fill="black"/>
<path opacity="0.2" d="M177.047 100.379H172.637V104.789H177.047V100.379Z" fill="black"/>
<path d="M193.31 76.248H160.172V99.1871H193.31V76.248Z" fill="#A72C2C"/>
<path opacity="0.2" d="M175.549 76.248H160.172V99.1871H175.549V76.248Z" fill="white"/>
<path opacity="0.2" d="M174.093 97.6163H172.172C171.991 97.6163 171.844 97.4696 171.844 97.2883V94.6639C171.844 94.4827 171.991 94.3359 172.172 94.3359H174.093C174.274 94.3359 174.421 94.4827 174.421 94.6639V97.2883C174.421 97.4696 174.274 97.6163 174.093 97.6163Z" fill="black"/>
<path opacity="0.2" d="M170.632 97.6163H168.711C168.53 97.6163 168.383 97.4696 168.383 97.2883V94.6639C168.383 94.4827 168.53 94.3359 168.711 94.3359H170.632C170.814 94.3359 170.96 94.4827 170.96 94.6639V97.2883C170.96 97.4696 170.814 97.6163 170.632 97.6163Z" fill="black"/>
<path opacity="0.4" d="M186.187 76.248H184.312V78.6379H186.187V76.248Z" fill="black"/>
<path opacity="0.2" d="M191.307 86.041H178.406V89.0403H191.307V86.041Z" fill="black"/>
<path opacity="0.2" d="M165.586 77.4434H161.176V81.8535H165.586V77.4434Z" fill="black"/>
<path d="M202.185 122.123H169.047V145.062H202.185V122.123Z" fill="#263238"/>
<path opacity="0.2" d="M202.185 122.123H169.047V145.062H202.185V122.123Z" fill="white"/>
<path opacity="0.2" d="M184.424 122.123H169.047V145.062H184.424V122.123Z" fill="white"/>
<path opacity="0.2" d="M182.968 143.491H181.047C180.866 143.491 180.719 143.345 180.719 143.163V140.539C180.719 140.358 180.866 140.211 181.047 140.211H182.968C183.149 140.211 183.296 140.358 183.296 140.539V143.163C183.296 143.345 183.149 143.491 182.968 143.491Z" fill="black"/>
<path opacity="0.2" d="M179.507 143.491H177.586C177.405 143.491 177.258 143.345 177.258 143.163V140.539C177.258 140.358 177.405 140.211 177.586 140.211H179.507C179.689 140.211 179.835 140.358 179.835 140.539V143.163C179.835 143.345 179.689 143.491 179.507 143.491Z" fill="black"/>
<path opacity="0.4" d="M195.062 122.123H193.188V124.513H195.062V122.123Z" fill="black"/>
<path opacity="0.2" d="M200.181 131.916H187.281V134.915H200.181V131.916Z" fill="black"/>
<path opacity="0.2" d="M174.461 123.318H170.051V127.728H174.461V123.318Z" fill="black"/>
</svg>
