<svg width="221" height="164" viewBox="0 0 221 164" fill="none" xmlns="http://www.w3.org/2000/svg">
<path d="M220.147 144.033H0.855469V144.143H220.147V144.033Z" fill="#EBEBEB"/>
<path d="M195.538 148.209H181.012V148.319H195.538V148.209Z" fill="#EBEBEB"/>
<path d="M80.3843 149.693H58.5156V149.803H80.3843V149.693Z" fill="#EBEBEB"/>
<path d="M180.571 152.281H167.621V152.391H180.571V152.281Z" fill="#EBEBEB"/>
<path d="M33.3354 151.545H23.8633V151.655H33.3354V151.545Z" fill="#EBEBEB"/>
<path d="M54.0685 151.545H37.2383V151.655H54.0685V151.545Z" fill="#EBEBEB"/>
<path d="M146.124 147.02H105.039V147.129H146.124V147.02Z" fill="#EBEBEB"/>
<path d="M104.807 124.472H20.1167C18.7365 124.472 17.6133 123.349 17.6133 121.968V2.92335C17.6133 1.54313 18.7365 0.419922 20.1167 0.419922H104.807C106.186 0.419922 107.31 1.54313 107.31 2.92335V121.969C107.31 123.349 106.186 124.472 104.807 124.472ZM20.1167 0.529568C18.7966 0.529568 17.7229 1.60322 17.7229 2.92335V121.969C17.7229 123.289 18.7966 124.363 20.1167 124.363H104.807C106.126 124.363 107.2 123.289 107.2 121.969V2.92335C107.2 1.60366 106.126 0.529568 104.807 0.529568H20.1167Z" fill="#EBEBEB"/>
<path d="M199.669 124.472H114.98C113.599 124.472 112.477 123.349 112.477 121.968V2.92335C112.477 1.54313 113.6 0.419922 114.98 0.419922H199.669C201.05 0.419922 202.173 1.54313 202.173 2.92335V121.969C202.173 123.349 201.05 124.472 199.669 124.472ZM114.98 0.529568C113.66 0.529568 112.586 1.60322 112.586 2.92335V121.969C112.586 123.289 113.66 124.363 114.98 124.363H199.669C200.989 124.363 202.063 123.289 202.063 121.969V2.92335C202.063 1.60366 200.989 0.529568 199.669 0.529568H114.98Z" fill="#EBEBEB"/>
<path d="M125.626 90.8869H191.901C194.796 90.8869 197.164 88.5185 197.164 85.6239V16.4251C197.164 13.5305 194.796 11.1621 191.901 11.1621H125.626C122.732 11.1621 120.363 13.5305 120.363 16.4251V85.6239C120.363 88.5185 122.732 90.8869 125.626 90.8869Z" fill="#FAFAFA"/>
<path d="M179.887 33.919C183.238 33.919 185.954 31.2027 185.954 27.8521C185.954 24.5014 183.238 21.7852 179.887 21.7852C176.537 21.7852 173.82 24.5014 173.82 27.8521C173.82 31.2027 176.537 33.919 179.887 33.919Z" fill="#F0F0F0"/>
<path d="M164.004 33.919C167.355 33.919 170.071 31.2027 170.071 27.8521C170.071 24.5014 167.355 21.7852 164.004 21.7852C160.654 21.7852 157.938 24.5014 157.938 27.8521C157.938 31.2027 160.654 33.919 164.004 33.919Z" fill="white"/>
<path d="M164.523 81.6829C152.584 81.6829 142.871 71.97 142.871 60.0309C142.871 48.0918 152.584 38.3789 164.523 38.3789C176.463 38.3789 186.175 48.0918 186.175 60.0309C186.175 71.97 176.462 81.6829 164.523 81.6829ZM164.523 38.8175C152.826 38.8175 143.31 48.3339 143.31 60.0309C143.31 71.7279 152.826 81.2443 164.523 81.2443C176.221 81.2443 185.737 71.7279 185.737 60.0309C185.737 48.3339 176.22 38.8175 164.523 38.8175Z" fill="white"/>
<path d="M165.461 103.801C158.115 103.801 152.006 109.094 150.739 116.075C150.156 119.283 149.584 122.492 148.809 125.659L144.281 144.142H186.642L182.114 125.658C181.339 122.492 180.767 119.282 180.185 116.075C178.917 109.094 172.808 103.801 165.461 103.801Z" fill="#E0E0E0"/>
<path d="M167.801 103.801C160.455 103.801 154.345 109.094 153.078 116.075C152.496 119.283 151.924 122.492 151.149 125.659L146.621 144.142H188.982L184.454 125.658C183.679 122.492 183.107 119.282 182.524 116.075C181.257 109.094 175.147 103.801 167.801 103.801Z" fill="#E6E6E6"/>
<path d="M74.8928 32.6787C75.8642 28.6442 79.9597 26.1381 83.9942 27.1096L151.957 43.4736C155.992 44.445 158.498 48.5405 157.526 52.575C156.555 56.6096 152.459 59.1156 148.425 58.1442L80.4619 41.7802C76.4278 40.8087 73.9213 36.7132 74.8928 32.6787Z" fill="#E0E0E0"/>
<path d="M76.2053 31.874C77.1767 27.8395 81.2722 25.3334 85.3068 26.3049L153.27 42.6689C157.304 43.6403 159.81 47.7358 158.839 51.7703C157.867 55.8049 153.772 58.3109 149.737 57.3395L81.7744 40.9755C77.7399 40.004 75.2338 35.9085 76.2053 31.874Z" fill="#EBEBEB"/>
<path d="M85.3225 34.0681C85.8221 31.9927 87.929 30.7037 90.0044 31.2033L146.857 44.8919C148.932 45.3914 150.221 47.4984 149.721 49.5737C149.222 51.6491 147.115 52.9381 145.04 52.4386L88.1874 38.7499C86.112 38.2504 84.8225 36.1435 85.3225 34.0681Z" fill="#E0E0E0"/>
<path d="M76.3541 32.5376C72.559 28.7425 67.3167 27.2781 62.4041 28.1434C57.8156 28.9517 56.1043 34.6682 59.3989 37.9628L70.9293 49.4932C74.2239 52.7878 79.9399 51.0765 80.7483 46.488C81.614 41.575 80.1492 36.3322 76.3541 32.5376Z" fill="#F5F5F5"/>
<path d="M49.7868 83.0448V78.659C60.5685 78.659 69.3402 69.8873 69.3402 59.1052C69.3402 48.3235 60.5685 39.5518 49.7868 39.5518C39.0052 39.5518 30.2335 48.3235 30.2335 59.1052H25.8477C25.8477 45.9047 36.5864 35.166 49.7868 35.166C62.9873 35.166 73.726 45.9047 73.726 59.1052C73.726 72.3052 62.9873 83.0448 49.7868 83.0448Z" fill="#EBEBEB"/>
<path d="M62.7886 46.1047C64.3417 47.6578 66.9661 47.7775 69.7099 46.6903C72.2726 45.6745 73.9155 42.393 72.5673 41.0448L67.849 36.3265C66.5008 34.9783 63.2193 36.6213 62.2036 39.1839C61.1159 41.9272 61.2361 44.5517 62.7886 46.1047Z" fill="#F5F5F5"/>
<path d="M76.3557 37.3617C79.0201 37.3617 81.1801 35.2018 81.1801 32.5373C81.1801 29.8729 79.0201 27.7129 76.3557 27.7129C73.6912 27.7129 71.5312 29.8729 71.5312 32.5373C71.5312 35.2018 73.6912 37.3617 76.3557 37.3617Z" fill="#FAFAFA"/>
<path d="M172.543 117.083L169.731 118.149C164.648 120.075 158.913 117.492 156.986 112.409L133.873 51.4137C131.946 46.3305 134.529 40.5951 139.613 38.6689L142.425 37.6031C147.508 35.6769 153.244 38.2597 155.17 43.3433L178.284 104.338C180.21 109.422 177.627 115.157 172.543 117.083Z" fill="#E0E0E0"/>
<path d="M174.879 117.083L172.067 118.149C166.984 120.075 161.249 117.492 159.322 112.409L136.209 51.4137C134.282 46.3305 136.865 40.5951 141.949 38.6689L144.761 37.6031C149.844 35.6769 155.579 38.2597 157.506 43.3433L180.62 104.338C182.546 109.422 179.963 115.157 174.879 117.083Z" fill="#F0F0F0"/>
<path d="M168.59 109.577C168.393 109.577 168.055 109.462 167.935 109.145L144.822 48.1507C144.76 47.988 144.769 47.8161 144.849 47.6402C144.928 47.4648 145.05 47.3437 145.213 47.2823L148.025 46.2166C148.098 46.1889 148.166 46.1758 148.238 46.1758C148.436 46.1758 148.773 46.2907 148.894 46.6078L172.007 107.602C172.132 107.931 171.945 108.346 171.615 108.471L168.804 109.536C168.731 109.564 168.662 109.577 168.59 109.577Z" fill="#E0E0E0"/>
<path d="M172.7 103.801C165.354 103.801 159.244 109.094 157.977 116.075C157.394 119.283 156.822 122.492 156.047 125.659L151.52 144.142H193.88L189.353 125.658C188.577 122.492 188.005 119.282 187.423 116.075C186.156 109.094 180.046 103.801 172.7 103.801Z" fill="#E0E0E0"/>
<path d="M175.036 103.801C167.689 103.801 161.579 109.094 160.313 116.075C159.73 119.283 159.158 122.492 158.383 125.659L153.855 144.142H196.216L191.689 125.658C190.913 122.492 190.341 119.282 189.759 116.075C188.491 109.094 182.382 103.801 175.036 103.801Z" fill="#F5F5F5"/>
<path d="M154.88 56.4308C158.959 52.3517 158.959 45.7382 154.88 41.6591C150.801 37.58 144.188 37.58 140.109 41.6591C136.029 45.7382 136.029 52.3517 140.109 56.4308C144.188 60.5099 150.801 60.5099 154.88 56.4308Z" fill="#FAFAFA"/>
<path d="M147.497 57.5283C142.818 57.5283 139.012 53.7218 139.012 49.0434C139.012 44.3651 142.818 40.5586 147.497 40.5586C152.175 40.5586 155.981 44.3651 155.981 49.0434C155.981 53.7218 152.175 57.5283 147.497 57.5283ZM147.497 40.9691C143.044 40.9691 139.422 44.5914 139.422 49.0434C139.422 53.4955 143.044 57.1177 147.497 57.1177C151.948 57.1177 155.57 53.4955 155.57 49.0434C155.571 44.5914 151.949 40.9691 147.497 40.9691Z" fill="#E0E0E0"/>
<path d="M63.151 115.35H32.5234V144.032H63.151V115.35Z" fill="#F5F5F5"/>
<path d="M23.3132 144.033H32.5234V115.351H23.3132L23.3132 144.033Z" fill="#E6E6E6"/>
<path d="M34.1304 115.35H60.1875V97.7089H34.1304V115.35Z" fill="#F0F0F0"/>
<path d="M68.0232 97.709H60.1875V115.35H68.0232V97.709Z" fill="#E0E0E0"/>
<path d="M77.1769 144.033H99.8477V117.391H77.1769V144.033Z" fill="#E6E6E6"/>
<path d="M97.6304 141.389H79.3945V120.035H97.6304V141.389ZM79.8331 140.95H97.1918V120.474H79.8331V140.95Z" fill="#F5F5F5"/>
<path d="M106.665 117.391H99.8477V144.032H106.665V117.391Z" fill="#F5F5F5"/>
<path d="M20.2979 85.7461H42.9688V59.1044H20.2979L20.2979 85.7461Z" fill="#E6E6E6"/>
<path d="M49.7861 59.1035H42.9688V85.7453H49.7861V59.1035Z" fill="#F5F5F5"/>
<path d="M110.501 163.84C157.466 163.84 195.538 161.617 195.538 158.874C195.538 156.132 157.466 153.908 110.501 153.908C63.537 153.908 25.4648 156.132 25.4648 158.874C25.4648 161.617 63.537 163.84 110.501 163.84Z" fill="#F5F5F5"/>
<path d="M70.0934 98.3743H111.229V94.2578H70.0934C68.9566 94.2578 68.0352 95.1793 68.0352 96.3161C68.0352 97.4529 68.9566 98.3743 70.0934 98.3743Z" fill="#263238"/>
<path d="M85.9901 158.289H88.6133L88.6133 98.3755H85.9901L85.9901 158.289Z" fill="#A72C2C"/>
<path opacity="0.7" d="M85.9901 158.289H88.6133L88.6133 98.3755H85.9901L85.9901 158.289Z" fill="white"/>
<path d="M72.9745 158.289H75.5977L75.5977 98.3755H72.9745L72.9745 158.289Z" fill="#A72C2C"/>
<path opacity="0.7" d="M72.9745 158.289H75.5977L75.5977 98.3755H72.9745L72.9745 158.289Z" fill="white"/>
<path d="M70.0942 97.6532C70.8322 97.6532 71.4305 97.0549 71.4305 96.3168C71.4305 95.5788 70.8322 94.9805 70.0942 94.9805C69.3561 94.9805 68.7578 95.5788 68.7578 96.3168C68.7578 97.0549 69.3561 97.6532 70.0942 97.6532Z" fill="#A72C2C"/>
<path d="M74.6328 96.3168C74.6328 97.055 75.231 97.6532 75.9692 97.6532C76.7073 97.6532 77.3055 97.055 77.3055 96.3168C77.3055 95.5787 76.7073 94.9805 75.9692 94.9805C75.231 94.9805 74.6328 95.5787 74.6328 96.3168Z" fill="#A72C2C"/>
<path d="M81.8481 97.6532C82.5861 97.6532 83.1844 97.0549 83.1844 96.3168C83.1844 95.5788 82.5861 94.9805 81.8481 94.9805C81.11 94.9805 80.5117 95.5788 80.5117 96.3168C80.5117 97.0549 81.11 97.6532 81.8481 97.6532Z" fill="#A72C2C"/>
<path d="M87.7231 97.6532C88.4611 97.6532 89.0594 97.0549 89.0594 96.3168C89.0594 95.5788 88.4611 94.9805 87.7231 94.9805C86.985 94.9805 86.3867 95.5788 86.3867 96.3168C86.3867 97.0549 86.985 97.6532 87.7231 97.6532Z" fill="#A72C2C"/>
<path d="M93.5981 97.6532C94.3361 97.6532 94.9344 97.0549 94.9344 96.3168C94.9344 95.5788 94.3361 94.9805 93.5981 94.9805C92.86 94.9805 92.2617 95.5788 92.2617 96.3168C92.2617 97.0549 92.86 97.6532 93.5981 97.6532Z" fill="#A72C2C"/>
<path d="M99.477 97.6532C100.215 97.6532 100.813 97.0549 100.813 96.3168C100.813 95.5788 100.215 94.9805 99.477 94.9805C98.7389 94.9805 98.1406 95.5788 98.1406 96.3168C98.1406 97.0549 98.7389 97.6532 99.477 97.6532Z" fill="#A72C2C"/>
<path d="M105.352 97.6532C106.09 97.6532 106.688 97.0549 106.688 96.3168C106.688 95.5788 106.09 94.9805 105.352 94.9805C104.614 94.9805 104.016 95.5788 104.016 96.3168C104.016 97.0549 104.614 97.6532 105.352 97.6532Z" fill="#A72C2C"/>
<path d="M111.231 94.9805V97.6532C110.493 97.6532 109.895 97.055 109.895 96.3168C109.894 95.5787 110.493 94.9805 111.231 94.9805Z" fill="#A72C2C"/>
<path d="M131.399 48.498H128.676V48.9366H131.399V48.498Z" fill="#A72C2C"/>
<path d="M126.143 48.498H117.371V48.9366H126.143V48.498Z" fill="#A72C2C"/>
<path d="M100.514 50.0332H142.711C144.699 50.0332 146.311 51.645 146.311 53.6335V158.289H96.9141V53.6335C96.9141 51.645 98.5259 50.0332 100.514 50.0332Z" fill="#A72C2C"/>
<path opacity="0.2" d="M110.583 81.7967H96.9141V81.3906H110.177V50.0332H110.583V81.7967Z" fill="white"/>
<path opacity="0.4" d="M134.999 50.0332H142.708C144.696 50.0332 146.308 51.645 146.308 53.6335V158.289H131.398V53.6335C131.398 51.645 133.01 50.0332 134.999 50.0332Z" fill="#263238"/>
<path d="M136.149 67.9941H141.564C142.529 67.9941 143.312 68.7766 143.312 69.7415V102.706H134.402V69.741C134.402 68.7761 135.184 67.9941 136.149 67.9941Z" fill="#A72C2C"/>
<path d="M136.146 67.9941H140.839C141.804 67.9941 142.586 68.7766 142.586 69.7415V102.706H134.398V69.741C134.398 68.7761 135.181 67.9941 136.146 67.9941Z" fill="black"/>
<path opacity="0.2" d="M131.4 152.389H116.109V102.953H131.4V103.359H116.516V151.983H131.4V152.389Z" fill="white"/>
<path opacity="0.2" d="M110.257 152.39C108.847 152.39 107.699 151.243 107.699 149.832C107.699 148.421 108.847 147.273 110.257 147.273C111.668 147.273 112.816 148.421 112.816 149.832C112.816 151.243 111.668 152.39 110.257 152.39ZM110.257 147.68C109.071 147.68 108.105 148.645 108.105 149.832C108.105 151.019 109.071 151.984 110.257 151.984C111.444 151.984 112.41 151.019 112.41 149.832C112.41 148.645 111.444 147.68 110.257 147.68Z" fill="white"/>
<path opacity="0.2" d="M103.418 152.39C102.007 152.39 100.859 151.243 100.859 149.832C100.859 148.421 102.007 147.273 103.418 147.273C104.829 147.273 105.976 148.421 105.976 149.832C105.976 151.243 104.829 152.39 103.418 152.39ZM103.418 147.68C102.231 147.68 101.266 148.645 101.266 149.832C101.266 151.019 102.231 151.984 103.418 151.984C104.605 151.984 105.57 151.019 105.57 149.832C105.571 148.645 104.605 147.68 103.418 147.68Z" fill="white"/>
<path d="M188.527 98.3743H147.391V94.2578H188.527C189.663 94.2578 190.585 95.1793 190.585 96.3161C190.585 97.4529 189.663 98.3743 188.527 98.3743Z" fill="#A72C2C"/>
<path d="M175.534 98.3743H134.398V94.2578H175.534C176.671 94.2578 177.593 95.1793 177.593 96.3161C177.593 97.4529 176.671 98.3743 175.534 98.3743Z" fill="#263238"/>
<path d="M172.635 98.375H170.012V158.289H172.635V98.375Z" fill="#A72C2C"/>
<path opacity="0.7" d="M172.635 98.375H170.012V158.289H172.635V98.375Z" fill="white"/>
<path d="M185.651 98.375H183.027V158.289H185.651V98.375Z" fill="#A72C2C"/>
<path opacity="0.7" d="M185.651 98.375H183.027V158.289H185.651V98.375Z" fill="white"/>
<path d="M175.536 97.6532C176.274 97.6532 176.872 97.0549 176.872 96.3168C176.872 95.5788 176.274 94.9805 175.536 94.9805C174.798 94.9805 174.199 95.5788 174.199 96.3168C174.199 97.0549 174.798 97.6532 175.536 97.6532Z" fill="#A72C2C"/>
<path d="M169.661 97.6532C170.399 97.6532 170.997 97.0549 170.997 96.3168C170.997 95.5788 170.399 94.9805 169.661 94.9805C168.923 94.9805 168.324 95.5788 168.324 96.3168C168.324 97.0549 168.923 97.6532 169.661 97.6532Z" fill="#A72C2C"/>
<path d="M163.782 97.6532C164.52 97.6532 165.118 97.0549 165.118 96.3168C165.118 95.5788 164.52 94.9805 163.782 94.9805C163.044 94.9805 162.445 95.5788 162.445 96.3168C162.445 97.0549 163.044 97.6532 163.782 97.6532Z" fill="#A72C2C"/>
<path d="M157.907 97.6532C158.645 97.6532 159.243 97.0549 159.243 96.3168C159.243 95.5788 158.645 94.9805 157.907 94.9805C157.169 94.9805 156.57 95.5788 156.57 96.3168C156.57 97.0549 157.169 97.6532 157.907 97.6532Z" fill="#A72C2C"/>
<path d="M152.032 97.6532C152.77 97.6532 153.368 97.0549 153.368 96.3168C153.368 95.5788 152.77 94.9805 152.032 94.9805C151.294 94.9805 150.695 95.5788 150.695 96.3168C150.695 97.0549 151.294 97.6532 152.032 97.6532Z" fill="#A72C2C"/>
<path d="M146.153 97.6532C146.891 97.6532 147.489 97.0549 147.489 96.3168C147.489 95.5788 146.891 94.9805 146.153 94.9805C145.415 94.9805 144.816 95.5788 144.816 96.3168C144.816 97.0549 145.415 97.6532 146.153 97.6532Z" fill="#A72C2C"/>
<path d="M140.278 97.6532C141.016 97.6532 141.614 97.0549 141.614 96.3168C141.614 95.5788 141.016 94.9805 140.278 94.9805C139.54 94.9805 138.941 95.5788 138.941 96.3168C138.941 97.0549 139.54 97.6532 140.278 97.6532Z" fill="#A72C2C"/>
<path d="M134.398 94.9805V97.6532C135.137 97.6532 135.735 97.055 135.735 96.3168C135.735 95.5787 135.137 94.9805 134.398 94.9805Z" fill="#A72C2C"/>
<path d="M125.716 109.633H102.596C101.749 109.633 101.062 108.946 101.062 108.1V62.3755C101.062 61.5286 101.749 60.8418 102.596 60.8418H125.716C126.563 60.8418 127.25 61.5286 127.25 62.3755V108.1C127.25 108.946 126.563 109.633 125.716 109.633Z" fill="white"/>
<path opacity="0.3" d="M122.818 80.6005H105.494C104.591 80.6005 103.859 79.8685 103.859 78.9655V67.6878C103.859 66.7847 104.591 66.0527 105.494 66.0527H122.818C123.721 66.0527 124.453 66.7847 124.453 67.6878V78.9655C124.453 79.8685 123.721 80.6005 122.818 80.6005Z" fill="#A72C2C"/>
<path opacity="0.3" d="M122.901 92.705H105.411C104.554 92.705 103.859 92.0103 103.859 91.1533V84.2373C103.859 83.3803 104.554 82.6855 105.411 82.6855H122.901C123.758 82.6855 124.453 83.3803 124.453 84.2373V91.1533C124.453 92.0103 123.758 92.705 122.901 92.705Z" fill="#A72C2C"/>
<path d="M110.067 87.6977L106.629 86.4464C107.154 85.0044 108.532 84.0391 110.067 84.0391C111.835 84.0391 113.363 85.321 113.67 87.0622L110.067 87.6977Z" fill="#A72C2C"/>
<path d="M110.069 87.6985L113.672 87.063C113.709 87.2727 113.727 87.4854 113.727 87.6985C113.727 89.7055 112.076 91.3572 110.069 91.3572C108.062 91.3572 106.41 89.7059 106.41 87.6985C106.41 87.2718 106.485 86.8481 106.631 86.4473L110.069 87.6985Z" fill="white"/>
<path d="M120.059 87.2168H118.672V91.3469H120.059V87.2168Z" fill="white"/>
<path d="M117.699 89.4141H116.312V91.3478H117.699V89.4141Z" fill="white"/>
<path d="M117.699 88.2344H116.312V89.4133H117.699V88.2344Z" fill="#A72C2C"/>
<path d="M120.059 84.6992H118.672V87.2176H120.059V84.6992Z" fill="#A72C2C"/>
<path d="M122.414 87.9707H121.027V91.3487H122.414V87.9707Z" fill="white"/>
<path d="M122.414 86.4219H121.027V87.9701H122.414V86.4219Z" fill="#A72C2C"/>
<path d="M106.856 76.4679H121.406C121.838 76.4679 122.126 76.0197 121.939 75.6302C121.565 74.8478 121.08 73.5298 120.92 71.7246C120.649 68.644 118.567 67.9081 117.682 71.7246C116.796 75.5412 113.259 73.5724 111.815 71.7584C110.473 70.0725 108.279 71.9386 106.335 75.603C106.127 75.9942 106.413 76.4679 106.856 76.4679Z" fill="#A72C2C"/>
<path d="M106.295 96.0975C107.415 96.0975 108.325 97.008 108.325 98.1277C108.325 99.247 107.415 100.157 106.295 100.157C105.176 100.157 104.266 99.247 104.266 98.1277C104.265 97.008 105.176 96.0975 106.295 96.0975ZM106.295 95.6914C104.95 95.6914 103.859 96.7822 103.859 98.1273C103.859 99.4724 104.95 100.563 106.295 100.563C107.641 100.563 108.731 99.4724 108.731 98.1273C108.731 96.7822 107.641 95.6914 106.295 95.6914Z" fill="#263238"/>
<path d="M112.912 96.0975C114.032 96.0975 114.943 97.008 114.943 98.1277C114.943 99.247 114.032 100.157 112.912 100.157C111.793 100.157 110.883 99.247 110.883 98.1277C110.883 97.008 111.793 96.0975 112.912 96.0975ZM112.912 95.6914C111.567 95.6914 110.477 96.7822 110.477 98.1273C110.477 99.4724 111.567 100.563 112.912 100.563C114.258 100.563 115.348 99.4724 115.348 98.1273C115.349 96.7822 114.258 95.6914 112.912 95.6914Z" fill="#A72C2C"/>
<path d="M124.454 104.6C124.454 105.181 123.984 105.651 123.403 105.651C122.822 105.651 122.352 105.181 122.352 104.6C122.352 104.019 122.822 103.549 123.403 103.549C123.984 103.549 124.454 104.019 124.454 104.6Z" fill="#A72C2C"/>
<path opacity="0.3" d="M119.829 104.6C119.829 105.181 119.359 105.651 118.778 105.651C118.197 105.651 117.727 105.181 117.727 104.6C117.727 104.019 118.197 103.549 118.778 103.549C119.359 103.549 119.829 104.019 119.829 104.6Z" fill="#A72C2C"/>
<path d="M115.208 104.6C115.208 105.181 114.737 105.651 114.157 105.651C113.576 105.651 113.105 105.181 113.105 104.6C113.105 104.019 113.576 103.549 114.157 103.549C114.737 103.549 115.208 104.019 115.208 104.6Z" fill="#A72C2C"/>
<path d="M110.587 104.6C110.587 105.181 110.116 105.651 109.536 105.651C108.955 105.651 108.484 105.181 108.484 104.6C108.484 104.019 108.955 103.549 109.536 103.549C110.116 103.549 110.587 104.019 110.587 104.6Z" fill="#A72C2C"/>
<path d="M105.962 104.6C105.962 105.181 105.491 105.651 104.911 105.651C104.33 105.651 103.859 105.181 103.859 104.6C103.859 104.019 104.33 103.549 104.911 103.549C105.491 103.549 105.962 104.019 105.962 104.6Z" fill="#A72C2C"/>
<path d="M175.535 78.3008H152.398V94.2591H175.535V78.3008Z" fill="#A72C2C"/>
<path opacity="0.7" d="M162.444 78.3008H158.309V84.1655H162.444V78.3008Z" fill="white"/>
<path opacity="0.2" d="M175.533 78.3008H168.32V94.2591H175.533V78.3008Z" fill="black"/>
<path opacity="0.7" d="M173.081 78.3008H170.773V84.1655H173.081V78.3008Z" fill="#A72C2C"/>
<path d="M156.847 89.8085V92.4137H154.242V89.8085H156.847ZM157.253 89.4023H153.836V92.8194H157.253V89.4023Z" fill="white"/>
<path opacity="0.4" d="M162.109 89.4023H158.691V92.8194H162.109V89.4023Z" fill="#263238"/>
<path d="M89.778 80.9395H82.9927C82.8024 80.9395 82.6484 81.0934 82.6484 81.2837V93.9145C82.6484 94.1049 82.8024 94.2588 82.9927 94.2588H89.778C89.9684 94.2588 90.1223 94.1049 90.1223 93.9145V81.2837C90.1223 81.0934 89.9684 80.9395 89.778 80.9395Z" fill="#263238"/>
<path d="M89.3796 80.9395H82.5943C82.4044 80.9395 82.25 81.0934 82.25 81.2837V93.9145C82.25 94.1049 82.4039 94.2588 82.5943 94.2588H89.3796C89.57 94.2588 89.7239 94.1049 89.7239 93.9145V81.2837C89.7239 81.0934 89.57 80.9395 89.3796 80.9395Z" fill="#A72C2C"/>
<path d="M82.6562 93.5392V81.6597C82.6562 81.4865 82.7966 81.3457 82.9703 81.3457H89.0043C89.1775 81.3457 89.3183 81.4861 89.3183 81.6597V93.5392C89.3183 93.7124 89.178 93.8532 89.0043 93.8532H82.9703C82.7966 93.8532 82.6562 93.7124 82.6562 93.5392Z" fill="white"/>
<path opacity="0.2" d="M85.8558 81.3457H84.4769L83.4453 93.8528H84.8242L85.8558 81.3457Z" fill="#A72C2C"/>
<path opacity="0.2" d="M87.2348 81.3457H86.344L85.3125 93.8528H86.2028L87.2348 81.3457Z" fill="#A72C2C"/>
<path d="M83.1997 68.3533H72.1101C71.8733 68.3533 71.7171 68.1612 71.7614 67.924L74.639 52.5661C74.6833 52.3293 74.9113 52.1367 75.1486 52.1367H86.2382C86.475 52.1367 86.6311 52.3288 86.5868 52.5661L83.7093 67.924C83.665 68.1612 83.4365 68.3533 83.1997 68.3533Z" fill="#A72C2C"/>
<path d="M82.8068 67.712H72.3668C72.1436 67.712 71.9966 67.5313 72.0383 67.308L74.747 52.8492C74.7887 52.626 75.0036 52.4453 75.2268 52.4453H85.6668C85.8901 52.4453 86.037 52.626 85.9953 52.8492L83.2867 67.308C83.245 67.5313 83.0301 67.712 82.8068 67.712Z" fill="white"/>
<path d="M58.5395 53.2027L58.4434 53.4097L58.3276 53.6737L58.0956 54.2298C57.9465 54.6105 57.8027 55 57.6755 55.3987C57.418 56.1943 57.1777 57.0061 56.9882 57.8359C56.5856 59.4893 56.3409 61.195 56.1917 62.9169L56.14 63.5309C56.1273 63.6125 56.1356 63.6383 56.101 63.5682C56.0729 63.5046 55.9453 63.3418 55.8238 63.2875C55.7067 63.2283 55.6725 63.2519 55.7225 63.2704C55.8339 63.3151 56.1685 63.309 56.5137 63.2603C56.8676 63.209 57.2553 63.1186 57.6487 63.0033C59.232 62.5406 60.9105 61.8204 62.5108 61.0967L63.5713 62.7484C62.0736 63.9467 60.5368 64.9936 58.7105 65.8387C58.25 66.044 57.7676 66.2343 57.2329 66.3904C56.6904 66.5404 56.1088 66.6729 55.3106 66.615C54.9102 66.5746 54.4247 66.4729 53.9251 66.1615C53.4216 65.8558 53.001 65.3155 52.8182 64.8225C52.6212 64.3252 52.5765 63.8896 52.5664 63.5164L52.5677 62.7629C52.5796 60.841 52.7524 58.9065 53.1405 56.9964C53.3269 56.0403 53.5747 55.0908 53.8808 54.1518C54.0326 53.6821 54.205 53.2145 54.39 52.747C54.4865 52.5124 54.5786 52.279 54.6913 52.0426L54.8624 51.6856C54.926 51.5576 54.9751 51.4602 55.0733 51.2812L58.5395 53.2027Z" fill="#B55B52"/>
<path d="M61.1569 37.5781C61.6078 39.8776 62.6204 44.8946 61.0117 46.4287C61.0117 46.4287 61.6406 48.7616 65.9133 48.7616C70.6119 48.7616 68.1589 46.4292 68.1589 46.4292C65.5945 45.8169 65.6607 43.9143 66.1072 42.1271L61.1569 37.5781Z" fill="#B55B52"/>
<path d="M60.0513 47.2274C60.0513 47.2274 59.6395 45.9257 59.4873 45.1437C59.3351 44.3617 65.0981 44.6253 67.0042 45.1143C68.9099 45.6034 69.5199 47.8388 69.5199 47.8388L60.0513 47.2274Z" fill="#263238"/>
<path d="M71.4348 37.043C71.4348 37.043 71.6817 38.4684 72.122 39.2223C71.64 39.5157 70.9883 39.2012 70.9883 39.2012L71.4348 37.043Z" fill="#A02724"/>
<path d="M70.7533 34.6894C70.727 34.6807 70.7024 34.6657 70.6818 34.6447C70.6108 34.5728 70.6112 34.4565 70.6836 34.3851C71.4059 33.6715 72.2362 33.8417 72.2712 33.8491C72.3704 33.8697 72.4331 33.9684 72.4116 34.0675C72.3901 34.1662 72.2927 34.2289 72.1941 34.2079C72.1664 34.2022 71.5178 34.0763 70.9415 34.646C70.8906 34.6969 70.8169 34.7109 70.7533 34.6894Z" fill="#263238"/>
<path d="M71.2677 36.461C71.2046 36.7671 71.3155 37.0487 71.5155 37.0904C71.7155 37.1316 71.9291 36.9171 71.9927 36.611C72.0559 36.3049 71.9449 36.0233 71.7449 35.9816C71.5445 35.9404 71.3309 36.1549 71.2677 36.461Z" fill="#263238"/>
<path d="M71.6523 35.9796L72.4313 35.9199C72.4313 35.9199 71.9352 36.416 71.6523 35.9796Z" fill="#263238"/>
<path d="M41.4219 158.065H45.2972L46.534 149.09H42.6587L41.4219 158.065Z" fill="#B55B52"/>
<path d="M45.9576 155.404H41.6038C41.4455 155.404 41.317 155.514 41.2946 155.669L40.7986 159.114C40.7473 159.471 41.0543 159.809 41.4201 159.803C42.938 159.777 43.6696 159.688 45.5844 159.688C46.7625 159.688 48.4835 159.81 50.1102 159.81C51.7013 159.81 51.8237 158.202 51.1461 158.056C48.1089 157.402 47.6291 156.502 46.6059 155.642C46.4212 155.488 46.1897 155.404 45.9576 155.404Z" fill="#263238"/>
<path opacity="0.2" d="M42.659 149.092H46.5361L45.8966 153.718H42.0195L42.659 149.092Z" fill="black"/>
<path d="M56.1401 47.344C54.5695 47.8435 53.3906 53.7692 53.3906 53.7692L58.3694 58.1695C58.3694 58.1695 61.629 52.4052 60.6786 50.4842C59.6891 48.4834 57.9966 46.7532 56.1401 47.344Z" fill="#263238"/>
<path d="M75.1691 50.4157C75.1836 52.9056 75.2612 57.5274 73.6394 65.7846C73.3455 67.2793 73.9275 67.945 73.6665 69.4722C73.4959 70.4713 72.9359 70.3243 72.8569 70.812H57.117C57.1363 70.3441 56.4289 70.0936 56.2697 69.0827C55.9044 66.7661 57.2456 66.5718 57.2021 65.1113C57.0929 61.4281 56.5548 57.2861 54.9426 50.0127C54.6097 48.511 55.618 47.0378 57.1399 46.8167C58.2718 46.6527 59.6341 46.4944 61.0108 46.4281C63.6594 46.3005 65.8295 46.2159 68.1579 46.4286C69.5531 46.5558 71.0329 46.7724 72.2324 46.9707C73.92 47.2505 75.159 48.7048 75.1691 50.4157Z" fill="#263238"/>
<path opacity="0.4" d="M74.5699 57.6109C74.4682 58.7166 74.5397 59.9613 74.3638 61.3678C71.7595 60.0301 71.4034 56.6859 72.2011 54.9785C73.1033 55.6491 73.9362 56.6855 74.5699 57.6109Z" fill="black"/>
<path d="M75.7584 51.5137C76.1913 53.2145 76.6685 54.9701 77.1693 56.6758C77.6737 58.3854 78.2031 60.0893 78.8294 61.702C79.1395 62.5133 79.4767 63.2866 79.8416 64.0133C79.8447 64.0348 79.7074 63.8409 79.457 63.755C79.2017 63.662 79.0368 63.7247 79.05 63.737C79.0741 63.7769 79.4008 63.6501 79.6912 63.4721C80.3078 63.1041 80.9771 62.5462 81.6218 61.9748C82.2683 61.4002 82.9271 60.7735 83.5516 60.1652L85.1489 61.3059C84.6959 62.1756 84.2077 62.976 83.6406 63.7708C83.0661 64.5598 82.4569 65.3251 81.6095 66.0571C81.3951 66.2417 81.1582 66.4194 80.8806 66.5922C80.5999 66.7628 80.2802 66.9351 79.8377 67.0597C79.4096 67.1781 78.7636 67.2544 78.0842 66.9803C77.4092 66.7132 76.9487 66.1624 76.7321 65.7856C76.2185 64.9084 75.7567 64.0335 75.3729 63.1523C74.5799 61.3923 73.9506 59.6209 73.3778 57.8354C73.0931 56.9429 72.8269 56.0477 72.5853 55.1456C72.3392 54.2399 72.105 53.3535 71.8984 52.4119L75.7584 51.5137Z" fill="#B55B52"/>
<path d="M74.5183 48.273C76.5555 50.5646 77.4112 54.7316 77.4112 54.7316L71.553 58.5556C71.553 58.5556 68.6513 51.9795 69.3566 49.9554C70.2956 47.2612 72.5556 46.0652 74.5183 48.273Z" fill="#263238"/>
<path d="M85.4196 60.3651C85.6744 59.5791 84.8977 59.5862 85.1612 57.9823C85.2547 57.4152 84.7613 57.1739 84.7117 57.4726C84.4595 58.9866 81.4793 61.276 83.071 62.0041C84.0341 62.4448 85.4196 60.3651 85.4196 60.3651Z" fill="#B55B52"/>
<path d="M86.5975 59.6145C86.5655 58.715 85.8866 57.6211 85.2168 59.0119L84.8647 59.2825C84.8647 59.2825 83.9142 59.4219 82.7266 61.0482L83.998 62.1903L84.4173 62.1223C85.1098 62.0096 85.7629 61.7228 86.3146 61.289L86.4054 61.2175C86.6036 61.0355 86.7054 60.7719 86.6804 60.5044L86.5975 59.6145Z" fill="#B55B52"/>
<path d="M61.1946 33.2805C60.6477 37.0879 60.335 38.6874 61.8349 41.0101C64.0906 44.5034 68.8865 44.3425 70.5597 40.775C72.0658 37.5642 72.707 31.8775 69.3365 29.6201C66.0155 27.396 61.7411 29.4732 61.1946 33.2805Z" fill="#B55B52"/>
<path d="M68.7982 36.1599C70.335 35.1617 71.9622 33.7363 71.8249 31.7995C71.6872 29.8623 69.239 28.0356 65.876 28.0352C61.3805 28.0347 61.5634 30.9592 61.5634 30.9592C60.6862 31.0688 51.951 38.7976 62.7695 41.7944C73.5876 44.7912 68.7982 36.1599 68.7982 36.1599Z" fill="#263238"/>
<path d="M59.8198 31.2266C59.8198 31.2266 59.3921 32.191 59.5259 32.6296C60.9877 33.0072 66.0937 33.2247 68.6765 32.7493C68.8835 32.2252 69.7971 31.3603 69.7971 31.3603L59.8198 31.2266Z" fill="white"/>
<path d="M59.4072 31.6904C59.6396 32.4772 68.5249 32.057 71.3853 31.7128C72.3998 31.5908 73.3958 31.2408 73.3958 31.2408V30.9404H72.1748C72.1748 30.9404 71.3853 25.5967 65.957 25.6055C61.2926 25.6125 58.5598 28.8242 59.4072 31.6904Z" fill="#A72C2C"/>
<path d="M67.1822 25.3304C67.1822 25.3304 65.5099 25.2023 64.5507 25.3304C63.7007 25.6045 62.9332 25.7233 61.8828 27.3496L64.231 27.4259C64.231 27.4259 65.759 25.729 67.2791 25.7185C67.2647 25.4887 67.1822 25.3304 67.1822 25.3304Z" fill="#A72C2C"/>
<path opacity="0.2" d="M63.5202 31.0143C63.5118 31.0143 63.5035 31.0139 63.4947 31.0122C63.4048 30.9986 63.3434 30.9139 63.3575 30.8244C63.9671 26.9075 66.8034 25.5825 66.9245 25.5281C67.0069 25.4913 67.1043 25.5272 67.1416 25.6097C67.1793 25.6926 67.1429 25.7899 67.06 25.8277C67.0324 25.8399 64.2636 27.1403 63.682 30.8749C63.6702 30.9565 63.6 31.0143 63.5202 31.0143Z" fill="black"/>
<path d="M70.2731 35.7392C70.5275 36.5676 70.4192 37.4619 70.1306 38.1185C69.6964 39.1062 68.7727 38.8851 68.3013 38.0119C67.8767 37.226 67.5912 35.765 68.3118 35.0616C69.0214 34.369 69.9824 34.7918 70.2731 35.7392Z" fill="#B55B52"/>
<path d="M68.6985 70.8125C68.6985 70.8125 61.8729 97.4121 56.9603 112.403C52.9924 124.511 46.6365 152.814 46.6365 152.814H41.3516C41.3516 152.814 44.1958 125.357 47.2128 113.381C54.8476 83.077 49.8732 80.6087 57.1151 70.8125H68.6985Z" fill="#A72C2C"/>
<path opacity="0.4" d="M61.582 79.1445C59.297 87.4864 59.4724 96.5694 60.4505 101.025C61.8627 96.1747 63.2749 91.1091 64.5205 86.5434C64.0911 84.0786 62.7793 81.2059 61.582 79.1445Z" fill="black"/>
<path d="M47.415 152.917H40.6836L40.8617 150.556L48.0395 150.314L47.415 152.917Z" fill="#263238"/>
<path d="M67.4993 158.055H71.3746L71.0706 149.08H67.1953L67.4993 158.055Z" fill="#B55B52"/>
<path d="M71.6842 155.404H67.3304C67.1721 155.404 67.0436 155.514 67.0212 155.669L66.5252 159.114C66.4738 159.471 66.7809 159.809 67.1466 159.803C68.6646 159.777 69.3961 159.688 71.311 159.688C72.489 159.688 74.21 159.81 75.8367 159.81C77.4279 159.81 77.5498 158.202 76.8727 158.056C73.8355 157.402 73.3557 156.502 72.3324 155.642C72.1478 155.488 71.9162 155.404 71.6842 155.404Z" fill="#263238"/>
<path opacity="0.2" d="M67.1953 149.082H71.0724L71.2272 153.708H67.3501L67.1953 149.082Z" fill="black"/>
<path d="M72.8583 70.8125C72.8583 70.8125 72.8705 97.4121 71.8118 112.403C70.9566 124.511 71.8763 152.814 71.8763 152.814H66.5913C66.5913 152.814 62.377 125.357 62.3156 113.381C62.1599 83.077 56.5513 80.6087 61.2748 70.8125H72.8583Z" fill="#A72C2C"/>
<path d="M72.5966 152.917H65.8657L65.5117 150.556L72.6352 150.314L72.5966 152.917Z" fill="#263238"/>
<path d="M56.8825 69.8879L56.1729 71.2967C56.118 71.4059 56.2474 71.5173 56.4294 71.5173H72.9364C73.0785 71.5173 73.1956 71.448 73.2048 71.3585L73.3469 69.9498C73.3566 69.852 73.2338 69.7695 73.0785 69.7695H57.1395C57.0215 69.77 56.918 69.8178 56.8825 69.8879Z" fill="white"/>
<path d="M59.0202 71.6699H58.5934C58.5083 71.6699 58.4439 71.6261 58.4496 71.5725L58.6496 69.7419C58.6553 69.6884 58.7298 69.6445 58.8149 69.6445H59.2417C59.3267 69.6445 59.3912 69.6884 59.3855 69.7419L59.1855 71.5725C59.1794 71.6261 59.1052 71.6699 59.0202 71.6699Z" fill="#263238"/>
<path d="M69.3678 71.6699H68.9411C68.856 71.6699 68.7915 71.6261 68.7972 71.5725L68.9972 69.7419C69.0029 69.6884 69.0775 69.6445 69.1626 69.6445H69.5893C69.6744 69.6445 69.7393 69.6884 69.7332 69.7419L69.5332 71.5725C69.527 71.6261 69.4529 71.6699 69.3678 71.6699Z" fill="#263238"/>
</svg>
