<svg width="281" height="164" viewBox="0 0 281 164" fill="none" xmlns="http://www.w3.org/2000/svg">
<path d="M207.961 145.787H0.0625V145.898H207.961V145.787Z" fill="#EBEBEB"/>
<path d="M56.2525 152.951H42.4805V153.062H56.2525V152.951Z" fill="#EBEBEB"/>
<path d="M89.3323 149.586H71.2227V149.697H89.3323V149.586Z" fill="#EBEBEB"/>
<path d="M42.0684 148.82H21.8789V148.932H42.0684V148.82Z" fill="#EBEBEB"/>
<path d="M117.273 150.324H103.016V150.436H117.273V150.324Z" fill="#EBEBEB"/>
<path d="M187.132 150.324H184.039V150.436H187.132V150.324Z" fill="#EBEBEB"/>
<path d="M141.167 150.324H120.973V150.436H141.167V150.324Z" fill="#EBEBEB"/>
<path d="M174.817 152.205H135.867V152.316H174.817V152.205Z" fill="#EBEBEB"/>
<path d="M98.6088 125.931H18.3187C17.0102 125.931 15.9453 124.791 15.9453 123.39V2.54135C15.9453 1.14022 17.0102 0 18.3187 0H98.6088C99.9169 0 100.982 1.14022 100.982 2.54135V123.39C100.982 124.791 99.9169 125.931 98.6088 125.931ZM18.3187 0.111751C17.0671 0.111751 16.0493 1.20166 16.0493 2.54179V123.39C16.0493 124.73 17.0671 125.82 18.3187 125.82H98.6088C99.86 125.82 100.878 124.73 100.878 123.39V2.54135C100.878 1.20166 99.86 0.111306 98.6088 0.111306L18.3187 0.111751Z" fill="#EBEBEB"/>
<path d="M188.545 125.931H108.256C106.947 125.931 105.883 124.791 105.883 123.39V2.54135C105.883 1.14022 106.948 0 108.256 0H188.545C189.854 0 190.919 1.14022 190.919 2.54135V123.39C190.919 124.791 189.854 125.931 188.545 125.931ZM108.256 0.111751C107.005 0.111751 105.987 1.20166 105.987 2.54179V123.39C105.987 124.73 107.005 125.82 108.256 125.82H188.545C189.797 125.82 190.815 124.73 190.815 123.39V2.54135C190.815 1.20166 189.797 0.111306 188.545 0.111306L108.256 0.111751Z" fill="#EBEBEB"/>
<path d="M278.569 125.931H198.279C196.971 125.931 195.906 124.791 195.906 123.39V2.54135C195.906 1.14022 196.971 0 198.279 0H278.569C279.878 0 280.942 1.14022 280.942 2.54135V123.39C280.943 124.791 279.878 125.931 278.569 125.931ZM198.279 0.111751C197.028 0.111751 196.01 1.20166 196.01 2.54179V123.39C196.01 124.73 197.028 125.82 198.279 125.82H278.569C279.82 125.82 280.838 124.73 280.838 123.39V2.54135C280.838 1.20166 279.82 0.111306 278.569 0.111306L198.279 0.111751Z" fill="#EBEBEB"/>
<path d="M83.9145 142.9H87.5977V98.259H83.9145V142.9Z" fill="#F0F0F0"/>
<path d="M29.7895 145.73H86.1875V142.902H29.7895V145.73Z" fill="#F0F0F0"/>
<path d="M83.9146 98.2598H28.3711V142.901H83.9146V98.2598Z" fill="#F5F5F5"/>
<path d="M78.4242 118.395H33.8581C32.4261 118.395 31.2656 117.152 31.2656 115.619V106.53C31.2656 104.997 32.4265 103.754 33.8581 103.754H78.4242C79.8562 103.754 81.0167 104.997 81.0167 106.53V115.619C81.0167 117.152 79.8557 118.395 78.4242 118.395Z" fill="#F0F0F0"/>
<path d="M78.4242 137.406H33.8581C32.4261 137.406 31.2656 136.163 31.2656 134.63V125.542C31.2656 124.009 32.4265 122.766 33.8581 122.766H78.4242C79.8562 122.766 81.0167 124.009 81.0167 125.542V134.63C81.0167 136.163 79.8557 137.406 78.4242 137.406Z" fill="#F0F0F0"/>
<path d="M41.4497 112.078H70.8345C71.2861 112.078 71.6553 111.683 71.6553 111.199V110.949C71.6553 110.466 71.2861 110.07 70.8345 110.07H41.4497C40.9981 110.07 40.6289 110.466 40.6289 110.949V111.199C40.6293 111.682 40.9985 112.078 41.4497 112.078Z" fill="#F5F5F5"/>
<path d="M41.4497 131.09H70.8345C71.2861 131.09 71.6553 130.695 71.6553 130.211V129.961C71.6553 129.477 71.2861 129.082 70.8345 129.082H41.4497C40.9981 129.082 40.6289 129.477 40.6289 129.961V130.211C40.6293 130.695 40.9985 131.09 41.4497 131.09Z" fill="#F5F5F5"/>
<path d="M160.764 142.691H175.637V51.0889H160.764V142.691Z" fill="#F0F0F0"/>
<path d="M115.67 145.787H172.781V142.692H115.67V145.787Z" fill="#F0F0F0"/>
<path d="M160.763 51.0879H112.812V142.69H160.763V51.0879Z" fill="#F5F5F5"/>
<path d="M152.437 117.904H121.131C119.764 117.904 118.656 116.717 118.656 115.253V104.533C118.656 103.069 119.764 101.883 121.131 101.883H152.437C153.804 101.883 154.912 103.069 154.912 104.533V115.253C154.912 116.717 153.804 117.904 152.437 117.904Z" fill="#F0F0F0"/>
<path d="M152.437 136.845H121.131C119.764 136.845 118.656 135.659 118.656 134.195V123.475C118.656 122.011 119.764 120.824 121.131 120.824H152.437C153.804 120.824 154.912 122.011 154.912 123.475V134.194C154.912 135.658 153.804 136.845 152.437 136.845Z" fill="#F0F0F0"/>
<path d="M152.437 98.9638H121.131C119.764 98.9638 118.656 97.7772 118.656 96.3133V59.584C118.656 58.1201 119.764 56.9336 121.131 56.9336H152.437C153.804 56.9336 154.912 58.1201 154.912 59.584V96.3133C154.912 97.7772 153.804 98.9638 152.437 98.9638Z" fill="#F0F0F0"/>
<path d="M110.829 51.0898L160.762 51.0898V48.4421L110.829 48.4421V51.0898Z" fill="#F0F0F0"/>
<path d="M177.713 48.4414H160.762V51.0892H177.713V48.4414Z" fill="#E6E6E6"/>
<path d="M152.658 34.9883H140.312V48.4399H152.658V34.9883Z" fill="#F0F0F0"/>
<path d="M118.41 48.4414H140.312V34.9898H118.41V48.4414Z" fill="#F5F5F5"/>
<path opacity="0.7" d="M152.661 37.0156H118.285V38.1024H152.661V37.0156Z" fill="#E6E6E6"/>
<path d="M153.339 34.332H140.312V37.4753H153.339V34.332Z" fill="#F0F0F0"/>
<path d="M117.729 37.4766H140.312V34.3333H117.729V37.4766Z" fill="#F5F5F5"/>
<path d="M168.298 39.8086H160.375V48.4415H168.298V39.8086Z" fill="#F0F0F0"/>
<path d="M146.319 48.4395H160.375V39.8065H146.319V48.4395Z" fill="#F5F5F5"/>
<path opacity="0.7" d="M168.296 41.1113H146.234V41.8085H168.296V41.1113Z" fill="#E6E6E6"/>
<path d="M168.735 39.3887H160.375V41.406H168.735V39.3887Z" fill="#F0F0F0"/>
<path d="M145.882 41.4062H160.375V39.3889H145.882V41.4062Z" fill="#F5F5F5"/>
<path d="M53.3081 59.1875H69.2148V9.47406H53.3081L53.3081 59.1875Z" fill="#F0F0F0"/>
<path d="M49.8951 59.1875H68.1914V9.47406H49.8951L49.8951 59.1875Z" fill="#F5F5F5"/>
<path d="M51.4258 11.4282V57.2344H66.6565V11.4282H51.4258Z" fill="white"/>
<path d="M55.1211 16.4912V52.1738H62.9684V16.4912H55.1211Z" fill="#F5F5F5"/>
<path d="M30.4448 69.8965H46.3516L46.3516 20.183H30.4448L30.4448 69.8965Z" fill="#F0F0F0"/>
<path d="M27.0318 69.8965H45.3281L45.3281 20.183H27.0318L27.0318 69.8965Z" fill="#F5F5F5"/>
<path d="M28.5625 22.1372L28.5625 67.9434H43.7932V22.1372H28.5625Z" fill="white"/>
<path d="M40.1047 30.5562V59.5244C40.1047 61.3787 38.701 62.8814 36.9696 62.8814H35.3929C33.6615 62.8814 32.2578 61.3783 32.2578 59.5244V30.5562C32.2578 28.7023 33.6615 27.1992 35.3929 27.1992H36.9696C38.701 27.1992 40.1047 28.7023 40.1047 30.5562Z" fill="#F5F5F5"/>
<path d="M75.4643 77.0293H91.3711V27.3159H75.4643V77.0293Z" fill="#F0F0F0"/>
<path d="M72.0513 77.0293H90.3477V27.3159H72.0513V77.0293Z" fill="#F5F5F5"/>
<path d="M73.582 29.27V75.0762H88.8127V29.27H73.582Z" fill="white"/>
<path d="M85.1243 37.689V66.6572C85.1243 68.5111 83.7205 70.0142 81.9892 70.0142H80.4125C78.6811 70.0142 77.2773 68.5111 77.2773 66.6572V37.689C77.2773 35.8351 78.6811 34.332 80.4125 34.332H81.9892C83.7205 34.3316 85.1243 35.8347 85.1243 37.689Z" fill="#F5F5F5"/>
<path d="M260.043 82.5361V61.3861H247.813V66.2092H239.661V13.377H223.988V34.1712H219.285V23.7877H207.055V74.4285H189.811V56.5362H178.998V17.7437H165.653V43.6055H153.111V99.3193H143.394V72.1895H133.36V54.7322H122.701V41.3291L110.808 48.0467V83.9051H98.2659V76.5086H81.5117V128.481L276.524 128.582V82.5361H260.043Z" fill="#EBEBEB"/>
<path d="M134.177 128.51V51.1836H120.852V128.583C125.069 128.472 134.177 128.51 134.177 128.51Z" fill="#E6E6E6"/>
<path d="M122.04 128.581V86.0527H94.6172V128.487L122.04 128.581Z" fill="#FAFAFA"/>
<path d="M155.359 128.52V66.0879H139.824V128.512L155.359 128.52Z" fill="#E0E0E0"/>
<path d="M142.891 68.5332H141.008V72.6934H142.891V68.5332Z" fill="#FAFAFA"/>
<path d="M146.653 68.5332H144.77V72.6934H146.653V68.5332Z" fill="#FAFAFA"/>
<path d="M150.422 68.5332H148.539V72.6934H150.422V68.5332Z" fill="#FAFAFA"/>
<path d="M154.184 68.5332H152.301V72.6934H154.184V68.5332Z" fill="#FAFAFA"/>
<path d="M142.891 75.5098H141.008V79.6695H142.891V75.5098Z" fill="#FAFAFA"/>
<path d="M146.653 75.5098H144.77V79.6695H146.653V75.5098Z" fill="#FAFAFA"/>
<path d="M150.422 75.5098H148.539V79.6695H150.422V75.5098Z" fill="#FAFAFA"/>
<path d="M154.184 75.5098H152.301V79.6695H154.184V75.5098Z" fill="#FAFAFA"/>
<path d="M142.891 82.4844H141.008V86.6441H142.891V82.4844Z" fill="#FAFAFA"/>
<path d="M146.653 82.4844H144.77V86.6441H146.653V82.4844Z" fill="#FAFAFA"/>
<path d="M150.422 82.4844H148.539V86.6441H150.422V82.4844Z" fill="#FAFAFA"/>
<path d="M154.184 82.4844H152.301V86.6441H154.184V82.4844Z" fill="#FAFAFA"/>
<path d="M142.891 89.4551H141.008V93.6148H142.891V89.4551Z" fill="#FAFAFA"/>
<path d="M146.653 89.4551H144.77V93.6148H146.653V89.4551Z" fill="#FAFAFA"/>
<path d="M150.422 89.4551H148.539V93.6148H150.422V89.4551Z" fill="#FAFAFA"/>
<path d="M154.184 89.4551H152.301V93.6148H154.184V89.4551Z" fill="#FAFAFA"/>
<path d="M142.891 96.4258H141.008V100.586H142.891V96.4258Z" fill="#FAFAFA"/>
<path d="M146.653 96.4258H144.77V100.586H146.653V96.4258Z" fill="#FAFAFA"/>
<path d="M150.422 96.4258H148.539V100.586H150.422V96.4258Z" fill="#FAFAFA"/>
<path d="M154.184 96.4258H152.301V100.586H154.184V96.4258Z" fill="#FAFAFA"/>
<path d="M142.891 103.398H141.008V107.558H142.891V103.398Z" fill="#FAFAFA"/>
<path d="M146.653 103.398H144.77V107.558H146.653V103.398Z" fill="#FAFAFA"/>
<path d="M150.422 103.398H148.539V107.558H150.422V103.398Z" fill="#FAFAFA"/>
<path d="M154.184 103.398H152.301V107.558H154.184V103.398Z" fill="#FAFAFA"/>
<path d="M142.891 110.373H141.008V114.533H142.891V110.373Z" fill="#FAFAFA"/>
<path d="M146.653 110.373H144.77V114.533H146.653V110.373Z" fill="#FAFAFA"/>
<path d="M150.422 110.373H148.539V114.533H150.422V110.373Z" fill="#FAFAFA"/>
<path d="M154.184 110.373H152.301V114.533H154.184V110.373Z" fill="#FAFAFA"/>
<path d="M142.891 117.35H141.008V121.51H142.891V117.35Z" fill="#FAFAFA"/>
<path d="M146.653 117.35H144.77V121.51H146.653V117.35Z" fill="#FAFAFA"/>
<path d="M150.422 117.35H148.539V121.51H150.422V117.35Z" fill="#FAFAFA"/>
<path d="M154.184 117.35H152.301V121.51H154.184V117.35Z" fill="#FAFAFA"/>
<path d="M209.343 128.547V57.1934H177.133V128.571C177.133 128.571 209.096 128.581 209.343 128.547Z" fill="#F5F5F5"/>
<path d="M183.459 60.0391H179.555V64.8306H183.459V60.0391Z" fill="#E6E6E6"/>
<path d="M191.272 60.0391H187.367V64.8306H191.272V60.0391Z" fill="#E6E6E6"/>
<path d="M199.084 60.0391H195.18V64.8306H199.084V60.0391Z" fill="#E6E6E6"/>
<path d="M206.897 60.0391H202.992V64.8306H206.897V60.0391Z" fill="#E6E6E6"/>
<path d="M183.459 68.0781H179.555V72.8696H183.459V68.0781Z" fill="#E6E6E6"/>
<path d="M191.272 68.0781H187.367V72.8696H191.272V68.0781Z" fill="#E6E6E6"/>
<path d="M199.084 68.0781H195.18V72.8696H199.084V68.0781Z" fill="#E6E6E6"/>
<path d="M206.897 68.0781H202.992V72.8696H206.897V68.0781Z" fill="#E6E6E6"/>
<path d="M183.459 76.1094H179.555V80.9009H183.459V76.1094Z" fill="#E6E6E6"/>
<path d="M191.272 76.1094H187.367V80.9009H191.272V76.1094Z" fill="#E6E6E6"/>
<path d="M199.084 76.1094H195.18V80.9009H199.084V76.1094Z" fill="#E6E6E6"/>
<path d="M206.897 76.1094H202.992V80.9009H206.897V76.1094Z" fill="#E6E6E6"/>
<path d="M183.459 84.1426H179.555V88.9341H183.459V84.1426Z" fill="#E6E6E6"/>
<path d="M191.272 84.1426H187.367V88.9341H191.272V84.1426Z" fill="#E6E6E6"/>
<path d="M199.084 84.1426H195.18V88.9341H199.084V84.1426Z" fill="#E6E6E6"/>
<path d="M206.897 84.1426H202.992V88.9341H206.897V84.1426Z" fill="#E6E6E6"/>
<path d="M183.459 92.1816H179.555V96.9732H183.459V92.1816Z" fill="#E6E6E6"/>
<path d="M191.272 92.1816H187.367V96.9732H191.272V92.1816Z" fill="#E6E6E6"/>
<path d="M199.084 92.1816H195.18V96.9732H199.084V92.1816Z" fill="#E6E6E6"/>
<path d="M206.897 92.1816H202.992V96.9732H206.897V92.1816Z" fill="#E6E6E6"/>
<path d="M183.459 100.215H179.555V105.006H183.459V100.215Z" fill="#E6E6E6"/>
<path d="M191.272 100.215H187.367V105.006H191.272V100.215Z" fill="#E6E6E6"/>
<path d="M199.084 100.215H195.18V105.006H199.084V100.215Z" fill="#E6E6E6"/>
<path d="M206.897 100.215H202.992V105.006H206.897V100.215Z" fill="#E6E6E6"/>
<path d="M183.459 108.254H179.555V113.045H183.459V108.254Z" fill="#E6E6E6"/>
<path d="M191.272 108.254H187.367V113.045H191.272V108.254Z" fill="#E6E6E6"/>
<path d="M199.084 108.254H195.18V113.045H199.084V108.254Z" fill="#E6E6E6"/>
<path d="M206.897 108.254H202.992V113.045H206.897V108.254Z" fill="#E6E6E6"/>
<path d="M183.459 116.287H179.555V121.079H183.459V116.287Z" fill="#E6E6E6"/>
<path d="M191.272 116.287H187.367V121.079H191.272V116.287Z" fill="#E6E6E6"/>
<path d="M199.084 116.287H195.18V121.079H199.084V116.287Z" fill="#E6E6E6"/>
<path d="M206.897 116.287H202.992V121.079H206.897V116.287Z" fill="#E6E6E6"/>
<path d="M126.907 56.4375H123.309V60.8528H126.907V56.4375Z" fill="#FAFAFA"/>
<path d="M126.907 63.8398H123.309V68.2551H126.907V63.8398Z" fill="#FAFAFA"/>
<path d="M126.907 71.248H123.309V75.6634H126.907V71.248Z" fill="#FAFAFA"/>
<path d="M126.907 78.6504H123.309V83.0657H126.907V78.6504Z" fill="#FAFAFA"/>
<path d="M126.907 86.0527H123.309V90.468H126.907V86.0527Z" fill="#FAFAFA"/>
<path d="M126.907 93.4629H123.309V97.8782H126.907V93.4629Z" fill="#FAFAFA"/>
<path d="M126.907 100.865H123.309V105.281H126.907V100.865Z" fill="#FAFAFA"/>
<path d="M126.907 108.273H123.309V112.689H126.907V108.273Z" fill="#FAFAFA"/>
<path d="M131.719 56.4375H128.121V60.8528H131.719V56.4375Z" fill="#FAFAFA"/>
<path d="M131.719 63.8398H128.121V68.2551H131.719V63.8398Z" fill="#FAFAFA"/>
<path d="M131.719 71.248H128.121V75.6634H131.719V71.248Z" fill="#FAFAFA"/>
<path d="M131.719 78.6504H128.121V83.0657H131.719V78.6504Z" fill="#FAFAFA"/>
<path d="M131.719 86.0527H128.121V90.468H131.719V86.0527Z" fill="#FAFAFA"/>
<path d="M131.719 93.4629H128.121V97.8782H131.719V93.4629Z" fill="#FAFAFA"/>
<path d="M131.719 100.865H128.121V105.281H131.719V100.865Z" fill="#FAFAFA"/>
<path d="M131.719 108.273H128.121V112.689H131.719V108.273Z" fill="#FAFAFA"/>
<path d="M172.612 22.873H168.707V27.6646H172.612V22.873Z" fill="#FAFAFA"/>
<path d="M172.612 30.9102H168.707V35.7017H172.612V30.9102Z" fill="#FAFAFA"/>
<path d="M172.612 38.3945H168.707V43.1861H172.612V38.3945Z" fill="#FAFAFA"/>
<path d="M172.612 46.4297H168.707V51.2212H172.612V46.4297Z" fill="#FAFAFA"/>
<path d="M172.612 54.4609H168.707V59.2525H172.612V54.4609Z" fill="#FAFAFA"/>
<path d="M172.612 62.5H168.707V67.2915H172.612V62.5Z" fill="#FAFAFA"/>
<path d="M172.612 70.5332H168.707V75.3247H172.612V70.5332Z" fill="#FAFAFA"/>
<path d="M172.612 78.5723H168.707V83.3638H172.612V78.5723Z" fill="#FAFAFA"/>
<path d="M231.264 15.9062H227.359V20.6978H231.264V15.9062Z" fill="#FAFAFA"/>
<path d="M231.264 23.9414H227.359V28.7329H231.264V23.9414Z" fill="#FAFAFA"/>
<path d="M231.264 31.9805H227.359V36.772H231.264V31.9805Z" fill="#FAFAFA"/>
<path d="M231.264 40.0137H227.359V44.8052H231.264V40.0137Z" fill="#FAFAFA"/>
<path d="M231.264 48.0527H227.359V52.8442H231.264V48.0527Z" fill="#FAFAFA"/>
<path d="M231.264 56.0859H227.359V60.8775H231.264V56.0859Z" fill="#FAFAFA"/>
<path d="M231.264 64.125H227.359V68.9165H231.264V64.125Z" fill="#FAFAFA"/>
<path d="M231.264 72.1562H227.359V76.9478H231.264V72.1562Z" fill="#FAFAFA"/>
<path d="M259.244 52.8223H235.727V128.582H259.244V52.8223Z" fill="#E6E6E6"/>
<path d="M246.1 56.5586H239.207V61.3501H246.1V56.5586Z" fill="#FAFAFA"/>
<path d="M246.1 64.5977H239.207V69.3892H246.1V64.5977Z" fill="#FAFAFA"/>
<path d="M246.1 72.6309H239.207V77.4224H246.1V72.6309Z" fill="#FAFAFA"/>
<path d="M246.1 80.6699H239.207V85.4614H246.1V80.6699Z" fill="#FAFAFA"/>
<path d="M246.1 88.7031H239.207V93.4946H246.1V88.7031Z" fill="#FAFAFA"/>
<path d="M246.1 96.7344H239.207V101.526H246.1V96.7344Z" fill="#FAFAFA"/>
<path d="M246.1 104.773H239.207V109.565H246.1V104.773Z" fill="#FAFAFA"/>
<path d="M246.1 112.805H239.207V117.596H246.1V112.805Z" fill="#FAFAFA"/>
<path d="M255.322 56.5586H248.43V61.3501H255.322V56.5586Z" fill="#FAFAFA"/>
<path d="M255.322 64.5977H248.43V69.3892H255.322V64.5977Z" fill="#FAFAFA"/>
<path d="M255.322 72.6309H248.43V77.4224H255.322V72.6309Z" fill="#FAFAFA"/>
<path d="M255.322 80.6699H248.43V85.4614H255.322V80.6699Z" fill="#FAFAFA"/>
<path d="M255.322 88.7031H248.43V93.4946H255.322V88.7031Z" fill="#FAFAFA"/>
<path d="M255.322 96.7344H248.43V101.526H255.322V96.7344Z" fill="#FAFAFA"/>
<path d="M255.322 104.773H248.43V109.565H255.322V104.773Z" fill="#FAFAFA"/>
<path d="M255.322 112.805H248.43V117.596H255.322V112.805Z" fill="#FAFAFA"/>
<path d="M222.906 128.553V76.1094H212.648V128.548L222.906 128.553Z" fill="#E0E0E0"/>
<path d="M214.666 78.2324H213.422V81.8036H214.666V78.2324Z" fill="#FAFAFA"/>
<path d="M217.158 78.2324H215.914V81.8036H217.158V78.2324Z" fill="#FAFAFA"/>
<path d="M219.638 78.2324H218.395V81.8036H219.638V78.2324Z" fill="#FAFAFA"/>
<path d="M222.123 78.2324H220.879V81.8036H222.123V78.2324Z" fill="#FAFAFA"/>
<path d="M214.666 84.2227H213.422V87.7938H214.666V84.2227Z" fill="#FAFAFA"/>
<path d="M217.158 84.2227H215.914V87.7938H217.158V84.2227Z" fill="#FAFAFA"/>
<path d="M219.638 84.2227H218.395V87.7938H219.638V84.2227Z" fill="#FAFAFA"/>
<path d="M222.123 84.2227H220.879V87.7938H222.123V84.2227Z" fill="#FAFAFA"/>
<path d="M214.666 90.2148H213.422V93.786H214.666V90.2148Z" fill="#FAFAFA"/>
<path d="M217.158 90.2148H215.914V93.786H217.158V90.2148Z" fill="#FAFAFA"/>
<path d="M219.638 90.2148H218.395V93.786H219.638V90.2148Z" fill="#FAFAFA"/>
<path d="M222.123 90.2148H220.879V93.786H222.123V90.2148Z" fill="#FAFAFA"/>
<path d="M214.666 96.207H213.422V99.7782H214.666V96.207Z" fill="#FAFAFA"/>
<path d="M217.158 96.207H215.914V99.7782H217.158V96.207Z" fill="#FAFAFA"/>
<path d="M219.638 96.207H218.395V99.7782H219.638V96.207Z" fill="#FAFAFA"/>
<path d="M222.123 96.207H220.879V99.7782H222.123V96.207Z" fill="#FAFAFA"/>
<path d="M214.666 102.199H213.422V105.77H214.666V102.199Z" fill="#FAFAFA"/>
<path d="M217.158 102.199H215.914V105.77H217.158V102.199Z" fill="#FAFAFA"/>
<path d="M219.638 102.199H218.395V105.77H219.638V102.199Z" fill="#FAFAFA"/>
<path d="M222.123 102.199H220.879V105.77H222.123V102.199Z" fill="#FAFAFA"/>
<path d="M214.666 108.189H213.422V111.761H214.666V108.189Z" fill="#FAFAFA"/>
<path d="M217.158 108.189H215.914V111.761H217.158V108.189Z" fill="#FAFAFA"/>
<path d="M219.638 108.189H218.395V111.761H219.638V108.189Z" fill="#FAFAFA"/>
<path d="M222.123 108.189H220.879V111.761H222.123V108.189Z" fill="#FAFAFA"/>
<path d="M214.666 114.182H213.422V117.753H214.666V114.182Z" fill="#FAFAFA"/>
<path d="M217.158 114.182H215.914V117.753H217.158V114.182Z" fill="#FAFAFA"/>
<path d="M219.638 114.182H218.395V117.753H219.638V114.182Z" fill="#FAFAFA"/>
<path d="M222.123 114.182H220.879V117.753H222.123V114.182Z" fill="#FAFAFA"/>
<path d="M214.666 120.174H213.422V123.745H214.666V120.174Z" fill="#FAFAFA"/>
<path d="M217.158 120.174H215.914V123.745H217.158V120.174Z" fill="#FAFAFA"/>
<path d="M219.638 120.174H218.395V123.745H219.638V120.174Z" fill="#FAFAFA"/>
<path d="M222.123 120.174H220.879V123.745H222.123V120.174Z" fill="#FAFAFA"/>
<path d="M100.017 87.8301H96.6914V90.8282H100.017V87.8301Z" fill="#E6E6E6"/>
<path d="M106.669 87.8301H103.344V90.8282H106.669V87.8301Z" fill="#E6E6E6"/>
<path d="M113.317 87.8301H109.992V90.8282H113.317V87.8301Z" fill="#E6E6E6"/>
<path d="M119.966 87.8301H116.641V90.8282H119.966V87.8301Z" fill="#E6E6E6"/>
<path d="M100.017 92.8555H96.6914V95.8532H100.017V92.8555Z" fill="#E6E6E6"/>
<path d="M106.669 92.8555H103.344V95.8532H106.669V92.8555Z" fill="#E6E6E6"/>
<path d="M113.317 92.8555H109.992V95.8532H113.317V92.8555Z" fill="#E6E6E6"/>
<path d="M119.966 92.8555H116.641V95.8532H119.966V92.8555Z" fill="#E6E6E6"/>
<path d="M100.017 97.8828H96.6914V100.881H100.017V97.8828Z" fill="#E6E6E6"/>
<path d="M106.669 97.8828H103.344V100.881H106.669V97.8828Z" fill="#E6E6E6"/>
<path d="M113.317 97.8828H109.992V100.881H113.317V97.8828Z" fill="#E6E6E6"/>
<path d="M119.966 97.8828H116.641V100.881H119.966V97.8828Z" fill="#E6E6E6"/>
<path d="M100.017 102.908H96.6914V105.906H100.017V102.908Z" fill="#E6E6E6"/>
<path d="M106.669 102.908H103.344V105.906H106.669V102.908Z" fill="#E6E6E6"/>
<path d="M113.317 102.908H109.992V105.906H113.317V102.908Z" fill="#E6E6E6"/>
<path d="M119.966 102.908H116.641V105.906H119.966V102.908Z" fill="#E6E6E6"/>
<path d="M100.017 107.924H96.6914V110.922H100.017V107.924Z" fill="#E6E6E6"/>
<path d="M106.669 107.924H103.344V110.922H106.669V107.924Z" fill="#E6E6E6"/>
<path d="M113.317 107.924H109.992V110.922H113.317V107.924Z" fill="#E6E6E6"/>
<path d="M119.966 107.924H116.641V110.922H119.966V107.924Z" fill="#E6E6E6"/>
<path d="M100.017 112.949H96.6914V115.947H100.017V112.949Z" fill="#E6E6E6"/>
<path d="M106.669 112.949H103.344V115.947H106.669V112.949Z" fill="#E6E6E6"/>
<path d="M113.317 112.949H109.992V115.947H113.317V112.949Z" fill="#E6E6E6"/>
<path d="M119.966 112.949H116.641V115.947H119.966V112.949Z" fill="#E6E6E6"/>
<path d="M100.017 117.977H96.6914V120.974H100.017V117.977Z" fill="#E6E6E6"/>
<path d="M106.669 117.977H103.344V120.974H106.669V117.977Z" fill="#E6E6E6"/>
<path d="M113.317 117.977H109.992V120.974H113.317V117.977Z" fill="#E6E6E6"/>
<path d="M119.966 117.977H116.641V120.974H119.966V117.977Z" fill="#E6E6E6"/>
<path d="M150.307 109.274H45.9465C43.3085 109.274 41.2556 107.115 41.3847 104.478L45.3329 23.7359C45.4621 21.0979 47.726 18.9395 50.364 18.9395H154.724C157.362 18.9395 159.415 21.0979 159.286 23.7359L155.338 104.478C155.209 107.115 152.945 109.274 150.307 109.274Z" fill="#A72C2C"/>
<path opacity="0.8" d="M150.307 109.274H45.9465C43.3085 109.274 41.2556 107.115 41.3847 104.478L45.3329 23.7359C45.4621 21.0979 47.726 18.9395 50.364 18.9395H154.724C157.362 18.9395 159.415 21.0979 159.286 23.7359L155.338 104.478C155.209 107.115 152.945 109.274 150.307 109.274Z" fill="white"/>
<path d="M78.0341 17.541H75.9023V17.9408H78.0341V17.541Z" fill="#A72C2C"/>
<path d="M73.5042 17.541H64.7773V17.9408H73.5042V17.541Z" fill="#A72C2C"/>
<path d="M154.727 18.9414H50.367C47.729 18.9414 45.4651 21.0999 45.3359 23.7378H159.289C159.418 21.0999 157.365 18.9414 154.727 18.9414Z" fill="#A72C2C"/>
<path d="M153.594 32.1298H50.2108C49.4993 32.1298 48.9512 31.5533 48.9859 30.8418L49.1142 28.2216C49.1489 27.5102 49.754 26.9336 50.465 26.9336H153.848C154.56 26.9336 155.108 27.5102 155.073 28.2216L154.945 30.8418C154.91 31.5533 154.305 32.1298 153.594 32.1298Z" fill="white"/>
<path d="M153.199 40.1611H49.8163C49.1048 40.1611 48.5563 39.5845 48.5914 38.873L48.7197 36.2529C48.7544 35.5414 49.3595 34.9648 50.0705 34.9648H153.454C154.165 34.9648 154.713 35.5414 154.678 36.2529L154.55 38.873C154.515 39.5845 153.91 40.1611 153.199 40.1611Z" fill="white"/>
<path d="M151.578 101.491H48.1951C47.4837 101.491 46.9356 100.915 46.9703 100.203L49.6644 45.1123C49.6991 44.4008 50.3042 43.8242 51.0152 43.8242H154.398C155.11 43.8242 155.658 44.4008 155.623 45.1123L152.929 100.203C152.894 100.915 152.29 101.491 151.578 101.491Z" fill="white"/>
<path d="M141.995 106.278H149.656C150.535 106.278 151.29 105.558 151.333 104.679C151.376 103.8 150.692 103.08 149.813 103.08H142.152C141.272 103.08 140.518 103.8 140.475 104.679C140.431 105.558 141.115 106.278 141.995 106.278Z" fill="#A72C2C"/>
<path opacity="0.4" d="M133.376 104.679C133.344 105.342 133.855 105.878 134.517 105.878C135.179 105.878 135.742 105.342 135.775 104.679C135.807 104.017 135.297 103.48 134.634 103.48C133.972 103.48 133.409 104.017 133.376 104.679Z" fill="#A72C2C"/>
<path opacity="0.4" d="M127.712 104.679C127.68 105.342 128.191 105.878 128.853 105.878C129.515 105.878 130.078 105.342 130.111 104.679C130.143 104.017 129.633 103.48 128.97 103.48C128.308 103.48 127.745 104.017 127.712 104.679Z" fill="#A72C2C"/>
<path opacity="0.4" d="M122.048 104.679C122.016 105.342 122.527 105.878 123.189 105.878C123.851 105.878 124.414 105.342 124.447 104.679C124.479 104.017 123.969 103.48 123.306 103.48C122.644 103.48 122.081 104.017 122.048 104.679Z" fill="#A72C2C"/>
<path d="M125.345 70.7439L73.6855 71.9497L74.3008 63.1504H126.373L125.345 70.7439Z" fill="#263238"/>
<path opacity="0.5" d="M125.345 70.7439L73.6855 71.9497L74.3008 63.1504H126.373L125.345 70.7439Z" fill="black"/>
<path d="M72.1603 65.4055L71.8482 69.8682C71.7809 70.8244 72.3465 71.6687 73.2427 71.9508L73.5996 72.0613C73.8191 72.1306 74.0515 72.1631 74.2865 72.1573L76.6991 72.1013C76.4827 71.1024 76.5315 70.0476 76.8404 69.0363C77.84 65.7634 81.2668 63.7337 84.4934 64.5025C87.7205 65.2713 89.5261 68.5477 88.5266 71.8206L113.077 71.2392C113.058 70.9537 113.059 70.6654 113.08 70.3772C113.329 67.0155 116.263 64.3018 119.632 64.3164C123.001 64.3311 125.53 67.0683 125.28 70.4305C125.272 70.549 125.254 70.6659 125.246 70.7827C125.279 70.7698 125.313 70.7569 125.347 70.7409L126.211 70.3678C127.064 69.9952 127.653 69.1744 127.716 68.2693L128.352 59.1799C128.411 58.325 127.992 57.5402 127.261 57.1422L121.192 53.8374C121.123 53.7992 121.072 53.7356 121.049 53.6588C120.998 53.4869 121.099 53.2964 121.276 53.2333L122.066 52.958C122.132 52.9357 122.183 52.8789 122.196 52.8114C122.216 52.7132 122.152 52.6231 122.055 52.6106C119.091 52.194 107.555 50.6755 101.382 51.4221C94.263 52.2838 87.07 58.3951 87.07 58.3951C81.8887 58.2015 76.9132 60.0051 74.7622 60.9103C74.0676 61.2039 73.51 61.7675 73.2263 62.4626L72.364 64.574C72.2523 64.8414 72.1832 65.1221 72.1603 65.4055Z" fill="#A72C2C"/>
<path d="M113.08 71.2401C113.063 70.9719 113.064 70.7018 113.084 70.4314C113.093 70.2937 113.108 70.1573 113.125 70.0214L108.819 68.2129C108.567 68.1076 108.29 68.0619 108.01 68.0801L92.523 69.0892C92.2699 69.1052 92.019 69.1727 91.7865 69.2877L88.7523 70.7902C88.7071 71.1375 88.6331 71.4826 88.531 71.822L113.08 71.2401Z" fill="#263238"/>
<path d="M127.717 68.2674L127.733 68.0352L125.173 68.8009C125.282 69.3312 125.318 69.8783 125.279 70.4286C125.271 70.5472 125.253 70.664 125.245 70.7808C125.278 70.768 125.312 70.7551 125.346 70.7391L126.211 70.366C127.065 69.9934 127.653 69.1726 127.717 68.2674Z" fill="#263238"/>
<path d="M72.4441 71.4701C72.6678 71.6908 72.9426 71.8551 73.2471 71.9506L73.604 72.0612C73.8236 72.1305 74.0555 72.1629 74.291 72.1572L76.7035 72.1012C76.6375 71.7974 76.5964 71.4874 76.5805 71.1738L72.4441 71.4701Z" fill="#263238"/>
<path d="M119.661 63.7715C119.384 63.7715 119.106 63.7884 118.828 63.823C115.139 64.2787 112.312 67.6057 112.513 71.2544L113.092 71.2401C113.073 70.9546 113.074 70.6663 113.095 70.3781C113.344 67.0164 116.278 64.3027 119.647 64.3173C123.016 64.332 125.545 67.0692 125.295 70.4314C125.287 70.55 125.269 70.6668 125.26 70.7836C125.293 70.7707 125.328 70.7578 125.361 70.7418L125.858 70.5242C125.861 70.4922 125.863 70.4616 125.865 70.4314C126.117 66.7548 123.339 63.7755 119.653 63.7724H119.661L119.661 63.7715Z" fill="#263238"/>
<path d="M83.1556 63.7715C82.5853 63.7715 82.0126 63.8439 81.4509 63.9878C77.8187 64.9178 75.4286 68.5558 76.1116 72.1142L76.7051 72.1013C76.4887 71.1025 76.5375 70.0476 76.8464 69.0363C77.846 65.7635 81.2723 63.7337 84.4994 64.5025C87.7265 65.2713 89.5321 68.5478 88.5325 71.8206L89.1244 71.806C89.2523 71.3525 89.3331 70.8902 89.3651 70.4269C89.6217 66.7508 86.8417 63.7706 83.1556 63.7715Z" fill="#263238"/>
<path d="M89.3875 58.2845C89.3134 58.3382 89.259 58.415 89.2329 58.5012C89.1724 58.7055 89.2864 58.9089 89.4879 58.9556L92.0065 59.5418C92.2295 59.5942 92.4633 59.6062 92.6964 59.5769L111.707 57.2443C112.17 57.1861 112.609 56.9716 112.951 56.6371L115.558 54.074C115.645 53.9892 115.702 53.8799 115.722 53.7635C115.77 53.4757 115.577 53.2195 115.291 53.1915C110.789 52.7349 105.089 52.3441 101.454 52.7847C96.6914 53.362 91.7654 56.5465 89.3875 58.2845Z" fill="#263238"/>
<g opacity="0.3">
<path d="M101.624 60.4449C101.506 60.4014 101.453 60.2682 101.505 60.1478C101.569 59.9981 101.715 59.8964 101.875 59.8898L104.129 59.7952C104.16 59.7938 104.189 59.7983 104.218 59.8085C104.337 59.852 104.391 59.9857 104.339 60.1074C104.274 60.2571 104.127 60.3588 103.968 60.3654L101.713 60.4583C101.682 60.46 101.652 60.4556 101.624 60.4449Z" fill="black"/>
</g>
<path d="M118.795 54.0214C118.583 54.1977 118.544 54.5015 118.707 54.7L119.2 55.2783C119.256 55.3431 119.331 55.3902 119.415 55.4147L125.819 57.2214C125.931 57.2521 126.047 57.2676 126.165 57.2681H127.462C127.398 57.2232 127.332 57.1814 127.262 57.1433L121.194 53.8353H121.193C121.04 53.7571 120.988 53.5648 121.077 53.4062L118.996 53.9175C118.923 53.9361 118.854 53.9721 118.795 54.0214Z" fill="#263238"/>
<path d="M87.0767 58.3909L87.4245 58.4917C87.6946 58.5703 87.996 58.5063 88.228 58.322C90.4148 56.5792 94.1925 53.9055 98.1544 52.6592C98.1722 52.6534 98.1873 52.6419 98.1973 52.6259C98.2193 52.5913 98.2099 52.5473 98.1765 52.5278L97.712 52.2812C91.987 54.2146 87.0767 58.3909 87.0767 58.3909Z" fill="#263238"/>
<path opacity="0.2" d="M108.089 60.7465L89.2149 62.0861L89.4068 64.3965C89.4655 65.1045 89.6814 65.7795 90.0392 66.3747L91.445 68.7149L107.625 66.5532L115.609 60.7461H108.089L108.089 60.7465Z" fill="white"/>
<path d="M118.836 75.5027C121.644 75.5027 124.078 73.232 124.274 70.431C124.47 67.63 122.353 65.3594 119.545 65.3594C116.737 65.3594 114.302 67.63 114.106 70.431C113.91 73.232 116.028 75.5027 118.836 75.5027Z" fill="#263238"/>
<path opacity="0.4" d="M121.239 72.6285C119.937 73.8427 117.963 73.8427 116.831 72.6285C115.698 71.4142 115.836 69.4453 117.138 68.231C118.44 67.0167 120.414 67.0167 121.546 68.231C122.679 69.4457 122.541 71.4142 121.239 72.6285Z" fill="white"/>
<g opacity="0.3">
<path d="M119.615 67.883L119.504 69.4771C119.494 69.6143 119.375 69.7253 119.237 69.7253H119.236C119.098 69.7253 118.994 69.6143 119.004 69.4771L119.115 67.883C119.125 67.7458 119.244 67.6348 119.382 67.6348H119.383C119.521 67.6348 119.625 67.7458 119.615 67.883Z" fill="white"/>
</g>
<g opacity="0.3">
<path d="M119.373 71.3869L119.261 72.981C119.252 73.1182 119.133 73.2292 118.995 73.2292H118.993C118.856 73.2292 118.752 73.1182 118.762 72.981L118.873 71.3869C118.883 71.2497 119.002 71.1387 119.14 71.1387H119.141C119.279 71.1387 119.382 71.2497 119.373 71.3869Z" fill="white"/>
</g>
<g opacity="0.3">
<path d="M120.159 70.1687C120.035 70.2367 119.886 70.1949 119.827 70.0759L119.826 70.0754C119.766 69.9564 119.818 69.8049 119.942 69.7366L121.38 68.9358C121.505 68.8669 121.655 68.9078 121.715 69.0273C121.775 69.1463 121.724 69.2977 121.6 69.367L120.162 70.1678C120.162 70.1678 120.16 70.1683 120.159 70.1687Z" fill="white"/>
</g>
<g opacity="0.3">
<path d="M116.992 71.9157C116.868 71.9841 116.718 71.9428 116.659 71.8242L116.658 71.8237C116.598 71.7047 116.65 71.5533 116.774 71.4849L118.212 70.6841C118.336 70.6152 118.485 70.6552 118.546 70.7738C118.607 70.8928 118.556 71.0456 118.432 71.1149L116.992 71.9157C116.992 71.9157 116.992 71.9157 116.992 71.9157Z" fill="white"/>
</g>
<g opacity="0.3">
<path d="M121.173 71.9198L119.847 71.119C119.732 71.0497 119.701 70.8974 119.779 70.7779C119.857 70.6593 120.013 70.6189 120.127 70.6882L121.453 71.489C121.567 71.5578 121.597 71.7097 121.521 71.8287C121.444 71.9478 121.288 71.9886 121.173 71.9198Z" fill="white"/>
</g>
<g opacity="0.3">
<path d="M118.593 70.0768C118.516 70.1954 118.361 70.2362 118.247 70.1674L116.92 69.3666L116.92 69.3662C116.806 69.2973 116.776 69.1459 116.853 69.0269L116.853 69.0264C116.931 68.9078 117.086 68.867 117.2 68.9358L118.528 69.7366C118.642 69.8054 118.672 69.9578 118.594 70.0759L118.593 70.0768Z" fill="white"/>
</g>
<path d="M118.768 70.4283C118.784 70.1983 118.984 70.0117 119.214 70.0117C119.214 70.0117 119.215 70.0117 119.216 70.0117C119.448 70.0117 119.622 70.1987 119.606 70.4296C119.59 70.6606 119.389 70.8476 119.158 70.8476C118.927 70.8476 118.752 70.6606 118.768 70.4296L118.768 70.4283Z" fill="#263238"/>
<path d="M82.3357 75.5027C85.1435 75.5027 87.5785 73.232 87.7744 70.431C87.9702 67.63 85.8528 65.3594 83.045 65.3594C80.2371 65.3594 77.8022 67.63 77.6063 70.431C77.4104 73.232 79.5278 75.5027 82.3357 75.5027Z" fill="#263238"/>
<path opacity="0.4" d="M84.7429 72.6304C83.4407 73.8447 81.4671 73.8447 80.3347 72.6304C79.2024 71.4161 79.3401 69.4473 80.6422 68.233C81.9444 67.0187 83.9181 67.0187 85.0504 68.233C86.1827 69.4477 86.0451 71.4161 84.7429 72.6304Z" fill="white"/>
<g opacity="0.3">
<path d="M83.115 67.883L83.0035 69.4771C82.9939 69.6143 82.8749 69.7253 82.7373 69.7253H82.7355C82.5979 69.7253 82.4944 69.6143 82.504 69.4771L82.6155 67.883C82.625 67.7458 82.7441 67.6348 82.8817 67.6348H82.8835C83.0211 67.6348 83.1246 67.7458 83.115 67.883Z" fill="white"/>
</g>
<g opacity="0.3">
<path d="M82.8689 71.3869L82.7574 72.981C82.7478 73.1182 82.6288 73.2292 82.4912 73.2292H82.4894C82.3518 73.2292 82.2483 73.1182 82.2579 72.981L82.3694 71.3869C82.379 71.2497 82.498 71.1387 82.6356 71.1387H82.6374C82.775 71.1387 82.8785 71.2497 82.8689 71.3869Z" fill="white"/>
</g>
<g opacity="0.3">
<path d="M83.6572 70.1692C83.5337 70.2363 83.3856 70.1945 83.3267 70.0759C83.266 69.9574 83.3167 69.8055 83.4404 69.7366L84.8806 68.9358L84.881 68.9354C85.0052 68.867 85.1541 68.9083 85.2144 69.0269L85.2148 69.0273C85.275 69.1464 85.223 69.2978 85.0989 69.3662L83.6605 70.167C83.6595 70.1683 83.6586 70.1688 83.6572 70.1692Z" fill="white"/>
</g>
<g opacity="0.3">
<path d="M80.1663 71.8244L80.1659 71.8239C80.1057 71.7049 80.1577 71.5535 80.2813 71.4851L81.7197 70.6843C81.8439 70.615 81.9942 70.6554 82.0554 70.774C82.116 70.8935 82.0644 71.0463 81.9398 71.1151L80.5014 71.9159C80.3773 71.9847 80.2274 71.9434 80.1663 71.8244Z" fill="white"/>
</g>
<g opacity="0.3">
<path d="M85.0239 71.8309C84.9466 71.9495 84.792 71.9904 84.6774 71.9215L83.3492 71.1208C83.2352 71.051 83.2054 70.8987 83.2832 70.7797C83.3605 70.6611 83.516 70.6211 83.6296 70.6899L84.956 71.4907L84.9569 71.4912C85.0709 71.56 85.1013 71.7115 85.024 71.8305L85.0239 71.8309Z" fill="white"/>
</g>
<g opacity="0.3">
<path d="M82.1015 70.079C82.0238 70.1971 81.8687 70.2371 81.7547 70.1678L80.4283 69.367L80.4278 69.3666C80.3138 69.2978 80.2834 69.1463 80.3607 69.0273C80.4381 68.9078 80.5941 68.8669 80.7091 68.9358L82.0355 69.7366L82.0359 69.737C82.15 69.8058 82.1803 69.9577 82.103 70.0763C82.1025 70.0772 82.102 70.0781 82.1015 70.079Z" fill="white"/>
</g>
<path d="M82.7197 70.0117C82.9513 70.0117 83.1256 70.1991 83.1095 70.4296C83.0934 70.6602 82.8928 70.8476 82.6613 70.8476C82.4298 70.8476 82.2554 70.6606 82.2716 70.4296C82.2877 70.1987 82.4882 70.0117 82.7197 70.0117Z" fill="#263238"/>
<path opacity="0.3" d="M127.698 60.8625C127.871 60.8101 127.978 60.6303 127.937 60.4615C127.953 59.3938 127.792 58.4433 127.182 57.7895C127.148 57.6456 127.016 57.5519 126.865 57.5635L122.964 57.9285C122.897 57.9357 122.831 57.9641 122.778 58.0094C122.638 58.128 122.614 58.3305 122.723 58.462L123.749 59.6554C123.785 59.6967 123.832 59.7269 123.884 59.7433L127.516 60.8648C127.574 60.8821 127.638 60.8812 127.698 60.8625Z" fill="black"/>
<path d="M89.233 58.5023C89.172 58.7066 89.2864 58.91 89.488 58.9566L92.0066 59.5429C92.2295 59.5953 92.4633 59.6073 92.6964 59.578L93.388 59.4931L94.5172 55.1055C92.7322 56.0297 91.0167 57.093 89.3875 58.2855C89.313 58.3393 89.2586 58.4161 89.233 58.5023Z" fill="black"/>
<path d="M106.133 52.6016L104.228 58.1618L106.389 57.8957L107.58 52.6366C107.092 52.6198 106.609 52.6078 106.133 52.6016Z" fill="black"/>
<path d="M115.728 53.7623C115.776 53.4745 115.582 53.2187 115.295 53.1911C114.695 53.1285 114.057 53.0695 113.418 53.0117L112.92 56.6705L112.952 56.6403L115.559 54.0772C115.649 53.9915 115.708 53.8805 115.728 53.7623Z" fill="black"/>
<path d="M93.3692 58.6999C92.8603 58.6999 92.4764 58.2878 92.5119 57.7801C92.5425 57.3484 92.8696 56.9745 93.2991 56.8816L94.5496 56.6094L94.6934 58.6662L93.3937 58.6999C93.3857 58.6999 93.3776 58.6999 93.3692 58.6999Z" fill="#A72C2C"/>
<path opacity="0.3" d="M94.3343 58.676L94.6947 58.6666L94.5509 56.6094L94.1937 56.688L94.3343 58.676Z" fill="black"/>
<path opacity="0.6" d="M106.231 57.5645C106.231 57.5645 106.215 60.2742 105.981 61.1407C105.747 62.0072 103.949 68.3455 103.949 68.3455" stroke="black" stroke-width="0.25" stroke-miterlimit="10" stroke-linecap="round" stroke-linejoin="round"/>
<path opacity="0.6" d="M89.2227 58.6758C89.2227 58.6758 89.1619 64.5296 89.7006 65.6381C90.226 66.7196 91.7886 69.2885 91.7886 69.2885" stroke="black" stroke-width="0.25" stroke-miterlimit="10" stroke-linecap="round" stroke-linejoin="round"/>
<path opacity="0.6" d="M87.7656 58.5273C87.7656 58.5273 83.3612 59.5946 82.0727 59.798C81.0148 59.965 76.6893 60.9977 75.3728 61.52" stroke="black" stroke-width="0.25" stroke-miterlimit="10" stroke-linecap="round" stroke-linejoin="round"/>
<rect width="28.0492" height="10" transform="matrix(1 0 -0.0697565 0.997564 87.0273 84.6152)" fill="#A72C2C"/>
<path d="M91.4353 91.5991L91.689 87.9716H92.9177C93.2018 87.9716 93.4316 88.0201 93.6071 88.1169C93.7827 88.2125 93.9084 88.3442 93.9843 88.5119C94.0602 88.6795 94.0906 88.8703 94.0757 89.084C94.0607 89.2977 94.0037 89.4872 93.9045 89.6526C93.8054 89.8179 93.6619 89.9478 93.4742 90.0422C93.2866 90.1355 93.0519 90.1822 92.7702 90.1822H91.7759L91.8036 89.7854H92.7837C92.9779 89.7854 93.1361 89.7571 93.2584 89.7004C93.3819 89.6437 93.474 89.5634 93.5345 89.4595C93.5963 89.3544 93.6323 89.2292 93.6424 89.084C93.6526 88.9387 93.6342 88.8118 93.5874 88.7032C93.5405 88.5945 93.4594 88.5107 93.344 88.4516C93.2286 88.3914 93.0727 88.3613 92.8762 88.3613H92.1021L91.8756 91.5991H91.4353ZM93.2609 89.9696L94.0418 91.5991H93.5305L92.7637 89.9696H93.2609ZM95.6869 91.6558C95.4242 91.6558 95.2015 91.598 95.019 91.4822C94.8378 91.3653 94.703 91.2024 94.6147 90.9934C94.5276 90.7832 94.4937 90.5388 94.5132 90.2601C94.5327 89.9814 94.6008 89.7358 94.7175 89.5233C94.8354 89.3095 94.9903 89.143 95.1821 89.0238C95.3752 88.9033 95.5948 88.8431 95.841 88.8431C95.9831 88.8431 96.1217 88.8667 96.2569 88.9139C96.3921 88.9612 96.5128 89.0379 96.619 89.1442C96.7252 89.2493 96.8061 89.3886 96.8614 89.5622C96.9167 89.7358 96.9355 89.9495 96.9178 90.2034L96.9054 90.3805H94.8031L94.8284 90.0192H96.5045C96.5152 89.8657 96.494 89.7287 96.4409 89.6083C96.389 89.4878 96.3092 89.3928 96.2016 89.3231C96.0952 89.2534 95.9663 89.2186 95.8148 89.2186C95.6478 89.2186 95.5005 89.2599 95.3728 89.3426C95.2464 89.4241 95.1461 89.5303 95.0718 89.6614C94.9975 89.7925 94.9551 89.933 94.9447 90.083L94.9278 90.3239C94.9134 90.5293 94.9368 90.7035 94.9978 90.8464C95.0601 90.9881 95.1526 91.0961 95.2752 91.1705C95.3979 91.2437 95.5439 91.2803 95.7132 91.2803C95.8233 91.2803 95.9238 91.265 96.0147 91.2343C96.1069 91.2024 96.1877 91.1552 96.2572 91.0926C96.3268 91.0288 96.3826 90.9497 96.4247 90.8552L96.8216 90.9686C96.7695 91.1056 96.6894 91.226 96.5815 91.3299C96.4737 91.4327 96.3438 91.5129 96.1918 91.5708C96.0399 91.6275 95.8716 91.6558 95.6869 91.6558ZM99.537 89.4878L99.1532 89.5941C99.1339 89.5315 99.1032 89.4707 99.0612 89.4117C99.0204 89.3514 98.9623 89.3018 98.8869 89.2629C98.8115 89.2239 98.7129 89.2044 98.591 89.2044C98.4241 89.2044 98.2823 89.2428 98.1656 89.3196C98.0503 89.3951 97.9885 89.4914 97.9803 89.6083C97.9731 89.7122 98.0052 89.7943 98.0768 89.8545C98.1483 89.9147 98.2632 89.9649 98.4213 90.005L98.8192 90.1042C99.0589 90.1633 99.2343 90.2536 99.3454 90.3752C99.4565 90.4957 99.5054 90.6509 99.4921 90.8411C99.4812 90.9969 99.4265 91.1363 99.328 91.2591C99.2306 91.3819 99.0995 91.4787 98.9348 91.5496C98.77 91.6204 98.5817 91.6558 98.3698 91.6558C98.0916 91.6558 97.8656 91.5956 97.6918 91.4752C97.5179 91.3547 97.4148 91.1788 97.3824 90.9473L97.7871 90.8481C97.8147 90.9946 97.8787 91.1044 97.9789 91.1776C98.0803 91.2508 98.2168 91.2874 98.3885 91.2874C98.5838 91.2874 98.7418 91.2461 98.8624 91.1634C98.9842 91.0796 99.0492 90.9792 99.0574 90.8623C99.064 90.7678 99.0364 90.6887 98.9746 90.625C98.9128 90.56 98.8144 90.5116 98.6793 90.4797L98.2322 90.3734C97.9866 90.3144 97.8095 90.2229 97.701 90.0989C97.5937 89.9737 97.5467 89.8173 97.5598 89.6295C97.5705 89.476 97.6232 89.3402 97.7179 89.2221C97.8138 89.1041 97.9392 89.0114 98.0942 88.9441C98.2505 88.8767 98.4245 88.8431 98.6162 88.8431C98.8861 88.8431 99.0939 88.9021 99.2395 89.0202C99.3863 89.1383 99.4855 89.2942 99.537 89.4878ZM101.209 91.6558C100.947 91.6558 100.724 91.598 100.541 91.4822C100.36 91.3653 100.225 91.2024 100.137 90.9934C100.05 90.7832 100.016 90.5388 100.036 90.2601C100.055 89.9814 100.123 89.7358 100.24 89.5233C100.358 89.3095 100.513 89.143 100.705 89.0238C100.898 88.9033 101.117 88.8431 101.363 88.8431C101.506 88.8431 101.644 88.8667 101.779 88.9139C101.915 88.9612 102.035 89.0379 102.141 89.1442C102.248 89.2493 102.329 89.3886 102.384 89.5622C102.439 89.7358 102.458 89.9495 102.44 90.2034L102.428 90.3805H100.326L100.351 90.0192H102.027C102.038 89.8657 102.017 89.7287 101.963 89.6083C101.911 89.4878 101.832 89.3928 101.724 89.3231C101.618 89.2534 101.489 89.2186 101.337 89.2186C101.17 89.2186 101.023 89.2599 100.895 89.3426C100.769 89.4241 100.669 89.5303 100.594 89.6614C100.52 89.7925 100.478 89.933 100.467 90.083L100.45 90.3239C100.436 90.5293 100.459 90.7035 100.52 90.8464C100.583 90.9881 100.675 91.0961 100.798 91.1705C100.92 91.2437 101.066 91.2803 101.236 91.2803C101.346 91.2803 101.446 91.265 101.537 91.2343C101.629 91.2024 101.71 91.1552 101.78 91.0926C101.849 91.0288 101.905 90.9497 101.947 90.8552L102.344 90.9686C102.292 91.1056 102.212 91.226 102.104 91.3299C101.996 91.4327 101.866 91.5129 101.714 91.5708C101.562 91.6275 101.394 91.6558 101.209 91.6558ZM102.98 91.5991L103.17 88.8785H103.575L103.546 89.2894H103.575C103.634 89.1548 103.732 89.0456 103.868 88.9618C104.004 88.8779 104.153 88.836 104.317 88.836C104.348 88.836 104.386 88.8366 104.432 88.8378C104.478 88.839 104.513 88.8407 104.536 88.8431L104.507 89.2682C104.493 89.2647 104.461 89.2593 104.41 89.2523C104.361 89.244 104.309 89.2399 104.253 89.2399C104.12 89.2399 104 89.2676 103.892 89.3231C103.785 89.3774 103.698 89.453 103.631 89.5498C103.565 89.6455 103.528 89.7547 103.519 89.8775L103.399 91.5991H102.98ZM107.344 88.8785L106.145 91.5991H105.719L104.901 88.8785H105.355L105.956 91.0465H105.985L106.889 88.8785H107.344ZM108.748 91.6558C108.486 91.6558 108.263 91.598 108.081 91.4822C107.899 91.3653 107.765 91.2024 107.676 90.9934C107.589 90.7832 107.555 90.5388 107.575 90.2601C107.594 89.9814 107.662 89.7358 107.779 89.5233C107.897 89.3095 108.052 89.143 108.244 89.0238C108.437 88.9033 108.656 88.8431 108.903 88.8431C109.045 88.8431 109.183 88.8667 109.318 88.9139C109.454 88.9612 109.574 89.0379 109.68 89.1442C109.787 89.2493 109.868 89.3886 109.923 89.5622C109.978 89.7358 109.997 89.9495 109.979 90.2034L109.967 90.3805H107.865L107.89 90.0192H109.566C109.577 89.8657 109.556 89.7287 109.502 89.6083C109.45 89.4878 109.371 89.3928 109.263 89.3231C109.157 89.2534 109.028 89.2186 108.876 89.2186C108.709 89.2186 108.562 89.2599 108.434 89.3426C108.308 89.4241 108.208 89.5303 108.133 89.6614C108.059 89.7925 108.017 89.933 108.006 90.083L107.989 90.3239C107.975 90.5293 107.998 90.7035 108.059 90.8464C108.122 90.9881 108.214 91.0961 108.337 91.1705C108.459 91.2437 108.605 91.2803 108.775 91.2803C108.885 91.2803 108.985 91.265 109.076 91.2343C109.168 91.2024 109.249 91.1552 109.319 91.0926C109.388 91.0288 109.444 90.9497 109.486 90.8552L109.883 90.9686C109.831 91.1056 109.751 91.226 109.643 91.3299C109.535 91.4327 109.405 91.5129 109.253 91.5708C109.101 91.6275 108.933 91.6558 108.748 91.6558Z" fill="white"/>
<path d="M263.79 161.193C263.79 162.423 219.936 163.419 165.84 163.419C111.744 163.419 67.8906 162.423 67.8906 161.193C67.8906 159.963 111.744 158.967 165.84 158.967C219.936 158.967 263.79 159.963 263.79 161.193Z" fill="#F5F5F5"/>
<path d="M268.439 142.668L83.7578 146.997V115.41H270.216L268.439 142.668Z" fill="#263238"/>
<path opacity="0.5" d="M268.439 142.668L83.7578 146.997V115.41H270.216L268.439 142.668Z" fill="black"/>
<path d="M76.6523 123.515V139.534C76.6512 142.966 78.8874 145.998 82.1665 147.01L83.4719 147.407C84.2758 147.656 85.1148 147.772 85.9561 147.752L94.5813 147.55C93.5567 143.965 93.4667 140.178 94.3196 136.548C97.0797 124.801 108.841 117.515 120.589 120.275C132.336 123.035 139.622 134.796 136.862 146.544L224.627 144.456C224.485 143.431 224.416 142.397 224.42 141.362C224.473 129.295 234.298 119.554 246.366 119.607C258.433 119.66 268.173 129.485 268.121 141.553C268.121 141.978 268.086 142.398 268.086 142.818C268.201 142.772 268.322 142.726 268.437 142.668L271.439 141.329C274.399 139.991 276.302 137.044 276.303 133.796V101.17C276.304 98.1007 274.603 95.2842 271.887 93.8552L249.329 81.9927C249.071 81.8553 248.873 81.6272 248.772 81.3527C248.545 80.7355 248.862 80.0518 249.479 79.8252L252.239 78.8361C252.471 78.7566 252.637 78.5527 252.669 78.3096C252.714 77.9568 252.465 77.6338 252.113 77.5882C241.394 76.0932 199.706 70.6421 177.792 73.3215C152.514 76.415 128.289 98.352 128.289 98.352C109.687 97.6563 92.3216 104.131 84.8467 107.38C82.4335 108.433 80.577 110.457 79.7347 112.952L77.1758 120.53C76.8409 121.49 76.6643 122.498 76.6523 123.515Z" fill="#A72C2C"/>
<path d="M224.649 144.456C224.522 143.494 224.458 142.524 224.459 141.552C224.459 141.058 224.477 140.569 224.505 140.081L208.635 133.588C207.706 133.21 206.703 133.047 205.702 133.111L150.501 136.734C149.599 136.791 148.718 137.034 147.913 137.447L137.425 142.841C137.351 144.088 137.172 145.326 136.891 146.544L224.649 144.456Z" fill="#263238"/>
<path d="M276.308 133.795V132.961L267.332 135.709C267.856 137.613 268.12 139.578 268.12 141.551C268.12 141.977 268.086 142.397 268.086 142.817C268.201 142.771 268.321 142.725 268.436 142.667L271.443 141.327C274.404 139.99 276.307 137.043 276.308 133.795Z" fill="#263238"/>
<path d="M79.1992 145.284C80.0558 146.077 81.0796 146.666 82.1949 147.01L83.5003 147.406C84.3042 147.656 85.1432 147.772 85.9844 147.751L94.6097 147.55C94.2975 146.46 94.0724 145.347 93.9368 144.221L79.1992 145.284Z" fill="#263238"/>
<path d="M246.332 117.648C245.34 117.648 244.349 117.71 243.365 117.833C230.268 119.468 220.977 131.411 222.612 144.507L224.683 144.455C224.541 143.43 224.472 142.396 224.476 141.361C224.529 129.294 234.354 119.553 246.422 119.606C258.489 119.659 268.229 129.484 268.177 141.552C268.177 141.977 268.142 142.397 268.142 142.817C268.257 142.771 268.378 142.725 268.493 142.667L270.218 141.885C270.218 141.77 270.218 141.661 270.218 141.552C270.202 128.355 259.506 117.661 246.309 117.648H246.332Z" fill="#263238"/>
<path d="M115.622 117.648C113.581 117.648 111.548 117.909 109.573 118.425C96.8002 121.763 89.1517 134.823 92.4895 147.595L94.6114 147.549C93.5869 143.964 93.4969 140.177 94.3497 136.547C97.1098 124.8 108.871 117.514 120.619 120.274C132.367 123.034 139.652 134.795 136.892 146.543L139.008 146.491C139.353 144.863 139.526 143.204 139.526 141.54C139.522 128.342 128.82 117.645 115.622 117.648Z" fill="#263238"/>
<path d="M136.421 99.2706C136.166 99.4868 135.984 99.7979 135.908 100.15C135.726 100.983 136.172 101.823 136.903 102.026L146.026 104.583C146.834 104.812 147.672 104.876 148.501 104.77L216.145 96.3896C217.792 96.1805 219.326 95.3292 220.488 93.9794L229.362 83.6414C229.658 83.2997 229.845 82.8558 229.894 82.3801C230.015 81.2035 229.277 80.1423 228.246 80.0094C212.048 77.8617 191.567 75.9089 178.635 77.4891C161.685 79.5573 144.621 92.2976 136.421 99.2706Z" fill="#A72C2C"/>
<path opacity="0.8" d="M136.73 99.2703C136.474 99.4864 136.292 99.7975 136.216 100.149C136.035 100.983 136.48 101.823 137.211 102.026L146.334 104.583C147.143 104.812 147.98 104.875 148.81 104.77L214.939 100.237C216.586 100.028 219.13 97.003 220.929 94.5469L229.671 83.6414C229.966 83.2997 230.153 82.8558 230.202 82.3801C230.323 81.2035 229.586 80.1423 228.554 80.0094C212.356 77.8617 191.876 75.9089 178.944 77.4891C161.994 79.5569 144.93 92.2972 136.73 99.2703Z" fill="white"/>
<g opacity="0.3">
<path d="M180.915 105.714C180.482 105.558 180.257 105.08 180.413 104.647C180.605 104.11 181.103 103.744 181.672 103.721L189.723 103.382C189.831 103.377 189.94 103.393 190.043 103.43C190.479 103.586 190.706 104.066 190.55 104.503C190.355 105.039 189.855 105.405 189.285 105.429L181.235 105.762C181.126 105.768 181.017 105.751 180.915 105.714Z" fill="black"/>
</g>
<path d="M240.786 82.6522C240.074 83.2855 240.01 84.3758 240.643 85.0875L242.552 87.1631C242.771 87.3958 243.05 87.5649 243.357 87.6519L266.743 94.138C267.15 94.2478 267.569 94.3038 267.991 94.3049H272.637C272.395 94.144 272.148 93.9943 271.889 93.8565L249.332 81.9824L249.33 81.9816C248.761 81.7005 248.527 81.0108 248.808 80.4414L241.482 82.2759C241.224 82.3453 240.986 82.4745 240.786 82.6522Z" fill="#A72C2C"/>
<path d="M95.1591 110.431L87.1798 109.562L82.5953 111.438C81.6316 111.832 80.9117 112.659 80.6548 113.669C80.5044 114.252 80.5891 114.872 80.8905 115.394L80.9711 115.532C81.4838 116.415 82.4785 116.9 83.4896 116.763L88.0897 116.13C88.5382 116.066 88.9635 115.89 89.326 115.618L94.6334 111.593L95.1591 110.431Z" fill="white"/>
<path d="M128.305 98.3411L129.575 98.7033C130.563 98.9852 131.626 98.7567 132.41 98.0939C139.805 91.8378 152.662 82.2406 166.537 77.767C166.599 77.7469 166.65 77.7043 166.682 77.6479C166.752 77.5232 166.708 77.3657 166.583 77.2958L164.858 76.4102C144.842 83.3503 128.305 98.3411 128.305 98.3411Z" fill="#A72C2C"/>
<path opacity="0.8" d="M128.305 98.3411L129.575 98.7033C130.563 98.9852 131.626 98.7567 132.41 98.0939C139.805 91.8378 152.662 82.2406 166.537 77.767C166.599 77.7469 166.65 77.7043 166.682 77.6479C166.752 77.5232 166.708 77.3657 166.583 77.2958L164.858 76.4102C144.842 83.3503 128.305 98.3411 128.305 98.3411Z" fill="white"/>
<path opacity="0.2" d="M204.139 106.787L136.891 111.596L138.156 119.89C138.544 122.431 139.486 124.855 140.915 126.991L146.536 135.392L203.931 127.631L231.066 106.787H204.139V106.787Z" fill="white"/>
<path d="M246.31 159.756C256.365 159.756 264.515 151.605 264.515 141.551C264.515 131.496 256.365 123.346 246.31 123.346C236.256 123.346 228.105 131.496 228.105 141.551C228.105 151.605 236.256 159.756 246.31 159.756Z" fill="#263238"/>
<path opacity="0.4" d="M246.305 152.712C252.469 152.712 257.466 147.716 257.466 141.552C257.466 135.388 252.469 130.391 246.305 130.391C240.141 130.391 235.145 135.388 235.145 141.552C235.145 147.716 240.141 152.712 246.305 152.712Z" fill="white"/>
<g opacity="0.3">
<path d="M247.202 132.407V138.128C247.202 138.62 246.803 139.02 246.311 139.02H246.305C245.813 139.02 245.414 138.62 245.414 138.128V132.407C245.414 131.915 245.813 131.516 246.305 131.516H246.311C246.803 131.516 247.202 131.915 247.202 132.407Z" fill="white"/>
</g>
<g opacity="0.3">
<path d="M247.202 144.981V150.703C247.202 151.195 246.803 151.594 246.311 151.594H246.305C245.813 151.594 245.414 151.195 245.414 150.703V144.981C245.414 144.489 245.813 144.09 246.305 144.09H246.311C246.803 144.09 247.202 144.489 247.202 144.981Z" fill="white"/>
</g>
<g opacity="0.3">
<path d="M249.719 140.612C249.291 140.856 248.747 140.706 248.503 140.279C248.502 140.278 248.502 140.277 248.501 140.277C248.256 139.85 248.403 139.305 248.83 139.06L253.781 136.185C254.21 135.937 254.758 136.084 255.006 136.513C255.249 136.94 255.103 137.484 254.678 137.732L249.727 140.607C249.725 140.609 249.721 140.61 249.719 140.612Z" fill="white"/>
</g>
<g opacity="0.3">
<path d="M238.825 146.879C238.398 147.123 237.853 146.976 237.608 146.55C237.607 146.549 237.607 146.548 237.607 146.547C237.362 146.121 237.509 145.576 237.936 145.33L242.886 142.455L242.887 142.455C243.312 142.207 243.858 142.352 244.105 142.777C244.353 143.204 244.21 143.752 243.783 144.002L238.827 146.877C238.826 146.878 238.825 146.878 238.825 146.879Z" fill="white"/>
</g>
<g opacity="0.3">
<path d="M253.782 146.897L248.831 144.022C248.402 143.774 248.256 143.226 248.503 142.797C248.753 142.371 249.301 142.227 249.728 142.475L254.678 145.35C255.103 145.598 255.25 146.142 255.006 146.57C254.758 146.997 254.21 147.144 253.782 146.897Z" fill="white"/>
</g>
<g opacity="0.3">
<path d="M244.104 140.281C243.858 140.707 243.313 140.853 242.887 140.606L237.936 137.731C237.935 137.731 237.934 137.73 237.934 137.73C237.507 137.483 237.362 136.938 237.608 136.512C237.608 136.511 237.609 136.511 237.609 136.51C237.856 136.084 238.401 135.938 238.827 136.184L243.784 139.059L243.784 139.06C244.209 139.308 244.354 139.853 244.106 140.278C244.105 140.279 244.104 140.28 244.104 140.281Z" fill="white"/>
</g>
<path d="M244.809 141.546C244.809 140.72 245.478 140.051 246.304 140.051C246.305 140.051 246.307 140.051 246.309 140.051C247.138 140.051 247.81 140.723 247.81 141.551C247.81 142.38 247.138 143.052 246.309 143.052C245.48 143.052 244.809 142.38 244.809 141.551C244.809 141.55 244.809 141.548 244.809 141.546Z" fill="#263238"/>
<path d="M115.623 159.759C125.677 159.759 133.828 151.609 133.828 141.555C133.828 131.5 125.677 123.35 115.623 123.35C105.569 123.35 97.418 131.5 97.418 141.555C97.418 151.609 105.569 159.759 115.623 159.759Z" fill="#263238"/>
<path opacity="0.4" d="M115.622 152.716C121.786 152.716 126.783 147.719 126.783 141.555C126.783 135.391 121.786 130.395 115.622 130.395C109.458 130.395 104.461 135.391 104.461 141.555C104.461 147.719 109.458 152.716 115.622 152.716Z" fill="white"/>
<g opacity="0.3">
<path d="M116.511 132.407V138.128C116.511 138.62 116.112 139.02 115.62 139.02H115.614C115.122 139.02 114.723 138.62 114.723 138.128V132.407C114.723 131.915 115.122 131.516 115.614 131.516H115.62C116.112 131.516 116.511 131.915 116.511 132.407Z" fill="white"/>
</g>
<g opacity="0.3">
<path d="M116.511 144.981V150.703C116.511 151.195 116.112 151.594 115.62 151.594H115.614C115.122 151.594 114.723 151.195 114.723 150.703V144.981C114.723 144.489 115.122 144.09 115.614 144.09H115.62C116.112 144.09 116.511 144.489 116.511 144.981Z" fill="white"/>
</g>
<g opacity="0.3">
<path d="M119.023 140.617C118.598 140.858 118.058 140.707 117.817 140.282L117.816 140.281C117.569 139.856 117.713 139.31 118.139 139.063L123.095 136.188C123.096 136.188 123.097 136.187 123.097 136.187C123.524 135.942 124.069 136.089 124.314 136.516C124.315 136.517 124.315 136.517 124.315 136.518C124.56 136.945 124.413 137.49 123.987 137.735L119.036 140.61C119.032 140.612 119.028 140.614 119.023 140.617Z" fill="white"/>
</g>
<g opacity="0.3">
<path d="M106.921 146.548C106.92 146.547 106.92 146.546 106.919 146.546C106.674 146.119 106.821 145.574 107.248 145.329L112.199 142.454C112.626 142.205 113.174 142.349 113.424 142.776C113.671 143.204 113.524 143.752 113.096 144L108.145 146.875C107.717 147.123 107.169 146.977 106.921 146.548Z" fill="white"/>
</g>
<g opacity="0.3">
<path d="M124.313 146.573C124.067 146.999 123.522 147.145 123.096 146.898L118.139 144.023C117.713 143.774 117.568 143.226 117.817 142.799L117.818 142.798C118.065 142.373 118.611 142.229 119.036 142.477L123.987 145.352C123.988 145.352 123.989 145.353 123.989 145.353C124.415 145.6 124.561 146.145 124.315 146.571C124.314 146.571 124.314 146.572 124.313 146.573Z" fill="white"/>
</g>
<g opacity="0.3">
<path d="M113.418 140.288C113.17 140.713 112.624 140.856 112.199 140.607L107.248 137.732C107.248 137.731 107.247 137.731 107.246 137.73C106.82 137.484 106.674 136.938 106.92 136.512C107.168 136.084 107.716 135.937 108.145 136.185L113.096 139.06C113.097 139.06 113.097 139.06 113.098 139.061C113.524 139.308 113.67 139.853 113.424 140.279C113.422 140.282 113.42 140.285 113.418 140.288Z" fill="white"/>
</g>
<path d="M115.618 140.051C116.447 140.051 117.118 140.723 117.118 141.552C117.118 142.381 116.446 143.052 115.618 143.052C114.789 143.052 114.117 142.381 114.117 141.552C114.117 140.723 114.789 140.051 115.618 140.051Z" fill="#263238"/>
<path opacity="0.3" d="M274.4 107.207C275.006 107.018 275.345 106.373 275.156 105.767C274.944 101.934 274.13 98.5216 271.78 96.1756C271.623 95.6596 271.128 95.3224 270.59 95.3649L256.715 96.6759C256.473 96.7017 256.246 96.8036 256.066 96.9664C255.595 97.3924 255.559 98.1198 255.985 98.5906L259.958 102.875C260.096 103.023 260.27 103.132 260.464 103.191L273.747 107.216C273.961 107.276 274.188 107.273 274.4 107.207Z" fill="black"/>
<path d="M135.908 100.142C135.726 100.976 136.172 101.816 136.903 102.019L146.026 104.576C146.834 104.805 147.51 104.962 148.561 105.009L151.434 104.819L148.725 90.1836C142.468 94.2927 142.039 94.4802 136.421 99.2633C136.166 99.4795 135.984 99.7905 135.908 100.142Z" fill="#263238"/>
<path d="M195.337 77.0156L189.605 102.007L197.102 101.468L200.526 77.2497C198.771 77.1489 197.042 77.0713 195.337 77.0156Z" fill="#263238"/>
<path d="M219.129 96.7931L229.659 83.6401C229.962 83.2955 230.153 82.8444 230.202 82.3609C230.32 81.184 229.58 80.125 228.549 79.9951C226.391 79.7024 224.096 79.4201 221.8 79.1445" fill="#263238"/>
<path d="M144.203 102.68C142.38 102.702 140.885 101.242 140.863 99.4192C140.846 97.8689 141.908 96.5146 143.417 96.1622L147.816 95.1309L148.935 102.501L144.29 102.679C144.261 102.68 144.232 102.68 144.203 102.68Z" fill="#A72C2C"/>
<path opacity="0.3" d="M147.646 102.551L148.933 102.501L147.814 95.1309L146.559 95.4281L147.646 102.551Z" fill="black"/>
<path opacity="0.6" d="M196.947 101.471C197.001 104.061 196.973 106.801 196.694 108.201C196.071 111.311 191.223 134.063 191.223 134.063" stroke="black" stroke-width="0.5" stroke-miterlimit="10" stroke-linecap="round" stroke-linejoin="round"/>
<path opacity="0.6" d="M135.871 100.691C135.871 100.691 137.321 120.364 139.527 124.343C141.68 128.224 147.917 137.447 147.917 137.447" stroke="black" stroke-width="0.5" stroke-miterlimit="10" stroke-linecap="round" stroke-linejoin="round"/>
<path opacity="0.6" d="M130.807 98.8223C130.807 98.8223 115.303 102.652 110.74 103.384C106.994 103.984 91.7641 107.689 87.1797 109.565" stroke="black" stroke-width="0.5" stroke-miterlimit="10" stroke-linecap="round" stroke-linejoin="round"/>
<path opacity="0.8" d="M240.786 82.6503C240.074 83.2835 240.01 84.3738 240.643 85.0855L242.552 87.1612C242.771 87.3938 243.05 87.5629 243.357 87.6499L266.743 94.1361C267.15 94.2458 267.569 94.3018 267.991 94.303H272.637C272.395 94.142 272.148 93.9923 271.889 93.8545L249.332 81.9804L249.33 81.9797C248.761 81.6985 248.527 81.0089 248.808 80.4395L241.482 82.2739C241.224 82.3434 240.986 82.4725 240.786 82.6503Z" fill="white"/>
<path d="M163.336 92.5488C163.336 92.5488 166.13 102.375 167.487 102.724C169.946 103.355 178.257 101.929 178.091 101.656L177.412 98.194C177.412 98.194 168.926 97.5835 168.751 97.6523L166.058 91.4902L163.336 92.5488Z" fill="#E1715B"/>
<path d="M166.095 93.2329C166.095 93.2329 166.942 92.4443 166.966 91.4877C166.989 90.531 167.262 89.7731 167.231 89.0606C167.199 88.3482 166.603 89.1039 166.367 89.5703C166.131 90.0367 165.859 90.5628 165.538 90.329C165.216 90.0953 163.817 86.976 163.334 86.7027C162.851 86.4294 162.92 87.0048 162.92 87.0048C162.92 87.0048 162.56 86.2561 162.224 86.3181C162.137 86.3342 161.961 86.513 162.072 86.8797C162.321 87.7049 162.933 89.4101 162.933 89.4101C162.899 89.3116 161.994 87.2609 161.818 86.9715C161.588 86.5933 161.287 86.5321 161.072 86.6724C160.767 86.8722 161.803 89.4531 161.77 89.5923C161.77 89.5923 161.223 88.0865 160.757 88.0151C160.291 87.9435 160.584 88.9102 161.004 89.7137C161.389 90.45 161.951 91.9955 162.415 92.706C162.986 93.5816 163.567 94.0413 164.536 93.8927C165.505 93.7437 166.095 93.2329 166.095 93.2329Z" fill="#E1715B"/>
<path opacity="0.3" d="M162.973 87.0918C163.246 87.6989 163.492 88.3184 163.71 88.9479" stroke="black" stroke-width="0.25" stroke-miterlimit="10" stroke-linecap="round" stroke-linejoin="round"/>
<path opacity="0.3" d="M161.949 90.1817C162.613 89.6347 163.441 89.2889 164.296 89.2012" stroke="black" stroke-width="0.25" stroke-miterlimit="10" stroke-linecap="round" stroke-linejoin="round"/>
<path opacity="0.3" d="M165.309 90.6973C165.014 90.8873 164.789 91.1823 164.683 91.5165C164.577 91.8507 164.592 92.2218 164.724 92.5463" stroke="black" stroke-width="0.25" stroke-miterlimit="10" stroke-linecap="round" stroke-linejoin="round"/>
<path d="M185.234 89.2828C185.234 89.2828 188.343 86.6564 188.209 85.7789C188.075 84.9015 187.575 85.1722 187.575 85.1722C187.575 85.1722 188.651 83.0528 187.591 82.6891C186.531 82.3255 186.458 82.6817 186.458 82.6817C186.458 82.6817 186.877 80.9525 186.037 80.4324C185.397 80.0317 185.126 80.8278 185.126 80.8278C185.126 80.8278 183.905 78.9336 182.444 78.9612C181.721 79.0165 181.366 79.4821 181.468 80.0385C181.473 80.0627 181.478 80.0866 181.484 80.1101C181.484 80.1101 178.534 78.8253 177.165 79.6318C175.795 80.4387 177.582 81.3229 177.582 81.3229C177.582 81.3229 174.708 81.0231 174.145 82.1791C173.698 83.0973 174.977 83.7156 174.977 83.7156C174.977 83.7156 174.523 83.8698 174.136 84.22C173.397 84.8873 173.848 86.1527 174.843 86.1885C174.851 86.1889 174.858 86.1889 174.866 86.1893C175.019 86.1938 175.293 86.227 175.404 86.1217C175.404 86.1217 174.91 87.1623 175.974 87.4965C177.038 87.8307 177.543 86.5981 177.543 86.5981L185.234 89.2828Z" fill="#263238"/>
<path d="M184.253 96.0479C184.253 96.0479 184.079 94.5495 185.145 90.9071C185.145 90.9033 184.954 90.8175 184.954 90.8137C185.1 90.3044 185.257 89.8336 185.404 89.4258C185.407 89.4139 185.407 89.4102 185.407 89.4102L180.414 92.479C180.528 93.6451 180.104 95.8963 179.852 96.8469L181.145 99.0368L184.253 96.0479Z" fill="#E1715B"/>
<path opacity="0.2" d="M180.325 94.1181L183.197 93.4785C182.934 94.3702 182.141 95.4261 180.145 95.5071C180.145 95.5071 180.346 94.5091 180.325 94.1181Z" fill="black"/>
<path d="M176.991 83.8537C176.401 85.0056 176.186 87.5421 178.025 87.0178C179.863 86.494 178.005 81.8737 176.991 83.8537Z" fill="#263238"/>
<path d="M185.454 86.9862C185.11 90.1465 184.98 91.9354 183.3 93.4719C180.773 95.7828 177.013 94.1866 176.404 90.9777C175.857 88.0895 176.512 83.4069 179.678 82.3222C182.798 81.2532 185.798 83.8262 185.454 86.9862Z" fill="#E1715B"/>
<path d="M180.875 87.6859C180.86 88.0104 180.675 88.2632 180.463 88.2513C180.251 88.2393 180.091 87.9664 180.106 87.6419C180.122 87.3174 180.306 87.0646 180.518 87.0766C180.73 87.0889 180.89 87.3618 180.875 87.6859Z" fill="#263238"/>
<path d="M177.691 87.6016C177.676 87.9261 177.492 88.1789 177.279 88.1669C177.067 88.155 176.908 87.882 176.923 87.5579C176.938 87.2335 177.123 86.9803 177.335 86.9926C177.547 87.0046 177.707 87.2771 177.691 87.6016Z" fill="#263238"/>
<path d="M178.732 87.4688C178.732 87.4688 177.63 89.0317 177.27 89.6725C177.702 90.1015 178.488 89.9503 178.488 89.9503L178.732 87.4688Z" fill="#FD504E"/>
<path d="M181.661 85.9455C181.61 85.959 181.553 85.9452 181.513 85.9041C181.036 85.4183 180.485 85.5184 180.48 85.5191C180.397 85.5352 180.317 85.4814 180.3 85.3993C180.283 85.3171 180.337 85.2376 180.419 85.2215C180.448 85.2159 181.138 85.0905 181.729 85.6931C181.788 85.7533 181.788 85.8492 181.728 85.9075C181.709 85.9265 181.686 85.9392 181.661 85.9455Z" fill="#263238"/>
<path d="M176.337 86.1346C176.31 86.126 176.284 86.1092 176.265 86.085C176.212 86.0192 176.221 85.9233 176.286 85.8706C176.936 85.3408 177.6 85.5559 177.631 85.5618C177.711 85.588 177.755 85.6742 177.73 85.7541C177.704 85.834 177.62 85.8773 177.541 85.8523C177.514 85.8422 177 85.6832 176.478 86.1085C176.437 86.1413 176.384 86.1492 176.337 86.1346Z" fill="#263238"/>
<path d="M179.412 92.069C179.401 92.0735 179.444 92.0613 179.412 92.069V92.069Z" fill="#263238"/>
<path d="M178.92 90.8411C179.429 90.6802 180.369 90.3396 180.825 89.8613C180.825 89.8613 180.907 90.001 180.954 90.2119C180.997 90.3938 181.02 90.6249 180.96 90.8646C180.847 91.3022 180.464 91.7753 179.433 92.0613C179.419 92.0658 179.416 92.0669 179.414 92.0677C179.41 92.0688 179.411 92.0681 179.403 92.0703C179.403 92.0703 178.848 92.2122 178.57 90.9442C178.57 90.9442 178.707 90.9106 178.92 90.8411Z" fill="#263238"/>
<path d="M178.918 90.8407L179.114 91.1835C180.084 90.9117 180.73 90.5902 180.952 90.2116C180.905 90.0006 180.823 89.8613 180.823 89.8613C180.367 90.3393 179.428 90.6798 178.918 90.8407Z" fill="white"/>
<path d="M179.438 92.0619C180.468 91.7759 180.851 91.3028 180.964 90.8652C180.616 90.9761 180.21 91.1486 179.883 91.4096C179.632 91.6079 179.504 91.842 179.438 92.0619Z" fill="#FB504E"/>
<path d="M184.503 89.4301C184.229 89.2811 183.941 89.1179 183.792 88.8439C183.654 88.5892 183.661 88.2823 183.687 87.9933C183.714 87.6935 183.757 87.3955 183.816 87.1002C183.534 87.2417 183.193 87.0161 183.039 86.7413C182.808 86.3302 182.823 85.8303 182.857 85.3598C182.497 85.4363 182.091 85.3295 181.854 85.048C181.618 84.7665 181.596 84.3106 181.842 84.0376C180.676 84.1944 179.478 84.1198 178.34 83.8192C178.419 83.9644 178.328 84.1418 178.227 84.2725C177.819 84.8034 177.21 85.1753 176.551 85.2956C176.454 85.3131 176.335 85.3161 176.281 85.234C176.252 85.1903 176.252 85.1343 176.255 85.082C176.294 84.4401 176.663 83.8517 177.148 83.4297C177.633 83.0078 178.228 82.7334 178.827 82.5004C179.821 82.1139 180.862 81.8253 181.926 81.7532C182.991 81.6815 184.083 81.8335 185.046 82.2928C185.256 82.3932 185.465 82.5123 185.613 82.693C185.752 82.8648 185.826 83.0799 185.891 83.2916C186.284 84.5802 186.434 85.9426 186.33 87.2861" fill="#263238"/>
<path d="M186.584 89.6853C186.292 90.4893 185.654 91.0799 185.011 91.3626C184.043 91.7879 183.401 90.9541 183.538 89.9598C183.661 89.0648 184.313 87.7654 185.348 87.7598C186.368 87.7549 186.917 88.7661 186.584 89.6853Z" fill="#E1715B"/>
<path opacity="0.2" d="M185.906 88.7739C185.787 88.5786 185.53 88.4969 185.306 88.5409C185.082 88.585 184.89 88.7347 184.746 88.9125C184.574 89.1257 184.458 89.3844 184.414 89.6551" stroke="black" stroke-width="0.5" stroke-miterlimit="10" stroke-linecap="round" stroke-linejoin="round"/>
<path d="M179.617 101.201C179.617 101.201 170.333 103.914 166.961 104.032C163.589 104.15 156.125 102.578 156.125 102.578L156.547 99.1515L167.501 99.7112L179.412 95.7324L179.617 101.201Z" fill="#E1715B"/>
<path d="M176.293 103.296L178.119 95.7487L182.755 94.9403C182.958 94.9104 186.724 94.6009 187.854 98.7328L188.106 102.017L176.293 103.296Z" fill="#263238"/>
<path d="M180.662 102.543C180.406 102.539 173.178 103.861 173.178 103.861L171.691 97.9836C171.691 97.9836 175.051 96.5782 178.122 95.7481C181.553 94.8203 184.772 94.5324 185.513 96.1342C186.918 99.1699 180.662 102.543 180.662 102.543Z" fill="#263238"/>
<path opacity="0.3" d="M165.699 99.6777C165.875 99.6867 167.5 99.7696 167.5 99.7696L172.186 98.164C172.186 98.164 173.157 97.7462 172.91 97.8306C172.663 97.9153 170.722 97.7137 170.592 97.7338C170.464 97.754 165.699 99.6777 165.699 99.6777Z" fill="black"/>
<path d="M152.955 97.5938C152.745 97.7207 150.262 100.287 150.262 100.287L150.746 103.468L153.868 100.245L152.955 97.5938Z" fill="#263238"/>
<path d="M156.693 104.23C156.144 104.501 155.479 104.276 155.209 103.727L150.255 93.6908C149.985 93.1419 150.21 92.4773 150.759 92.2066C151.307 91.9355 151.972 92.161 152.243 92.7099L157.196 102.746C157.467 103.295 157.242 103.96 156.693 104.23Z" fill="#263238"/>
<path d="M160.259 99.4284L156.182 98.881L155.002 97.455C155.002 97.455 152.931 97.2691 152.486 97.6384C152.042 98.0076 151.594 99.1842 151.594 99.1842C151.594 99.1842 151.054 100.149 151.979 100.655C151.979 100.655 151.394 101.513 152.437 102.119C152.437 102.119 151.668 102.554 152.772 103.008C153.876 103.462 154.749 103.198 155.425 102.955C156.101 102.712 157.297 102.815 157.297 102.815L161.004 103.469L160.259 99.4284Z" fill="#E1715B"/>
</svg>
