<svg width="269" height="164" viewBox="0 0 269 164" fill="none" xmlns="http://www.w3.org/2000/svg">
<path d="M260.71 37.9693H268.917L223.513 0.419922H46.1203L0.0859375 37.9693H260.71Z" fill="#999999"/>
<path d="M185.754 151.889H260.151V38.0239L222.953 7.55273L185.754 38.0239V151.889Z" fill="#999999"/>
<g opacity="0.4">
<path d="M185.754 151.889H260.151V38.0239L222.953 7.55273L185.754 38.0239V151.889Z" fill="white"/>
</g>
<g opacity="0.5">
<path d="M249.4 133.602H243.027V136.295H249.4V133.602Z" fill="#999999"/>
<path d="M245.783 136.902H239.41V139.596H245.783V136.902Z" fill="#999999"/>
<path d="M253.022 136.902H246.648V139.596H253.022V136.902Z" fill="#999999"/>
<path d="M203.623 95.7012H197.25V98.3947H203.623V95.7012Z" fill="#999999"/>
<path d="M240.701 48.5391H247.074V45.8455H240.701V48.5391Z" fill="#999999"/>
<path d="M244.107 45.1328H250.48V42.4393H244.107V45.1328Z" fill="#999999"/>
</g>
<path d="M8.35278 151.807L185.754 151.807V37.9414L8.35278 37.9414V151.807Z" fill="#999999"/>
<g opacity="0.6">
<path d="M8.35278 151.807L185.754 151.807V37.9414L8.35278 37.9414V151.807Z" fill="white"/>
</g>
<g opacity="0.5">
<path d="M169.162 50.8809H175.535V48.1874H169.162V50.8809Z" fill="#999999"/>
<path d="M172.783 47.4746H179.156V44.7811H172.783V47.4746Z" fill="#999999"/>
<path d="M165.756 47.4746H172.129V44.7811H165.756V47.4746Z" fill="#999999"/>
<path d="M80.1309 44.8125H73.7578V47.506H80.1309V44.8125Z" fill="#999999"/>
<path d="M138.896 93.2539H132.523V95.9474H138.896V93.2539Z" fill="#999999"/>
<path d="M23.92 145.846H17.5469V148.539H23.92V145.846Z" fill="#999999"/>
<path d="M177.861 120.188H171.488V122.881H177.861V120.188Z" fill="#999999"/>
<path d="M181.482 123.594H175.109V126.287H181.482V123.594Z" fill="#999999"/>
<path d="M13.9434 78.5605H20.3164V75.867H13.9434V78.5605Z" fill="#999999"/>
<path d="M17.5605 75.1543H23.9336V72.4608H17.5605V75.1543Z" fill="#999999"/>
</g>
<path d="M93.178 99.1094H25.8477V151.779H93.178V99.1094Z" fill="#263238"/>
<path d="M92.9671 99.1094H25.6367V111.436H92.9671V99.1094Z" fill="#999999"/>
<path opacity="0.1" d="M92.9671 100.066H25.6367V100.856H92.9671V100.066Z" fill="black"/>
<path opacity="0.1" d="M92.9671 101.982H25.6367V102.772H92.9671V101.982Z" fill="black"/>
<path opacity="0.1" d="M92.9671 103.898H25.6367V104.689H92.9671V103.898Z" fill="black"/>
<path opacity="0.1" d="M92.9671 105.922H25.6367V106.712H92.9671V105.922Z" fill="black"/>
<path opacity="0.1" d="M92.9671 107.838H25.6367V108.628H92.9671V107.838Z" fill="black"/>
<path opacity="0.1" d="M92.9671 109.754H25.6367V110.544H92.9671V109.754Z" fill="black"/>
<path d="M168.557 99.1094H101.227V151.779H168.557V99.1094Z" fill="#263238"/>
<path d="M168.557 99.1094H101.227V111.436H168.557V99.1094Z" fill="#999999"/>
<path opacity="0.1" d="M168.557 100.066H101.227V100.856H168.557V100.066Z" fill="black"/>
<path opacity="0.1" d="M168.557 101.982H101.227V102.772H168.557V101.982Z" fill="black"/>
<path opacity="0.1" d="M168.557 103.898H101.227V104.689H168.557V103.898Z" fill="black"/>
<path opacity="0.1" d="M168.557 105.922H101.227V106.712H168.557V105.922Z" fill="black"/>
<path opacity="0.1" d="M168.557 107.838H101.227V108.628H168.557V107.838Z" fill="black"/>
<path opacity="0.1" d="M168.557 109.754H101.227V110.544H168.557V109.754Z" fill="black"/>
<path d="M103.387 52.2676L101.223 54.0162V52.2676H103.387Z" fill="#455A64"/>
<path d="M93.1452 52.2676H63.5391V86.93H93.1452V52.2676Z" fill="#37474F"/>
<path d="M93.0541 52.2676L63.5391 76.0973V72.6012L88.7243 52.2676H93.0541Z" fill="#455A64"/>
<path d="M63.5391 82.6713L93.1527 58.7617V60.5104L63.5391 84.4187V82.6713Z" fill="#455A64"/>
<path d="M67.8964 52.2676L63.5391 55.7861V54.0499L65.7458 52.2676H67.8964Z" fill="#455A64"/>
<path d="M55.2429 52.2676H25.6367V86.93H55.2429V52.2676Z" fill="#37474F"/>
<path d="M36.744 52.2676L25.6367 61.2356V54.2559L28.0981 52.2676H36.744Z" fill="#455A64"/>
<path d="M55.2504 57.9102V61.405L25.6367 85.3146V81.8185L55.2504 57.9102Z" fill="#455A64"/>
<path d="M55.2176 73.0273V74.7747L40.1487 86.9405H37.9844L55.2176 73.0273Z" fill="#455A64"/>
<path d="M131.044 52.2676H101.438V86.93H131.044V52.2676Z" fill="#37474F"/>
<path d="M106.547 86.9688L131.068 67.1719V74.1516L115.193 86.9688H106.547Z" fill="#455A64"/>
<path d="M101.438 83.7233L131.037 59.8262V61.5849L101.438 85.482V83.7233Z" fill="#455A64"/>
<path d="M168.52 52.2676H138.914V86.93H168.52V52.2676Z" fill="#37474F"/>
<path d="M138.914 84.6823L168.514 60.7852V67.7648L144.785 86.9214H138.914V84.6823Z" fill="#455A64"/>
<path d="M157.86 52.2676L138.914 67.5637V60.584L149.215 52.2676H157.86Z" fill="#455A64"/>
<path d="M142.395 52.2676L138.914 55.0784V53.3185L140.216 52.2676H142.395Z" fill="#455A64"/>
<path d="M223.012 46.7257C227.832 46.7257 231.739 42.8184 231.739 37.9986C231.739 33.1787 227.832 29.2715 223.012 29.2715C218.192 29.2715 214.285 33.1787 214.285 37.9986C214.285 42.8184 218.192 46.7257 223.012 46.7257Z" fill="#37474F"/>
<path d="M234.746 97.7266H211.516V151.782H234.746V97.7266Z" fill="#263238"/>
<path d="M234.666 151.809H237.492V97.7536H234.666V151.809Z" fill="#999999"/>
<path d="M251.734 42.1913C253.946 43.7804 255.941 46.4926 254.451 54.0891C252.96 61.6862 252.577 63.4905 252.577 63.4905L238.116 61.8647C238.116 61.8647 237.438 55.1421 238.593 48.8168C240.085 40.6474 245.261 37.5411 251.734 42.1913Z" fill="black"/>
<path d="M237.275 84.2031C237.275 84.2031 232.375 110.318 231.067 121.04C229.359 135.028 222.375 155.491 222.375 155.491L225.168 156.213C225.168 156.213 235.015 138.824 236.934 123.178C244.756 107.188 245.388 87.4971 245.388 87.4971L237.275 84.2031Z" fill="#EEC1BB"/>
<path d="M217.092 161.803C217.545 161.595 218.031 161.471 218.527 161.438C218.527 161.438 220.245 160.428 221.946 156.502L223.86 156.49C224.523 156.498 225.11 156.918 225.33 157.543C225.362 157.628 225.38 157.718 225.384 157.808C225.365 158.271 225.316 158.731 225.237 159.187C225.065 160.619 224.119 163.69 224.119 163.69L223.794 163.607L224.384 160.752C224.58 159.781 223.561 160.719 223.088 161.697C222.615 162.675 221.89 163.66 219.776 163.177C217.313 162.6 216.32 162.246 217.092 161.803Z" fill="black"/>
<path d="M225.56 157.518C225.921 156.59 226.383 154.934 226.383 154.934L222.283 154.361C222.283 154.361 222.283 156.378 221.523 157.7C223.666 157.684 225.56 157.518 225.56 157.518Z" fill="black"/>
<path d="M242.387 83.7773C242.387 83.7773 242.995 110.341 243.933 121.102C245.155 135.14 242.554 156.605 242.554 156.605L245.436 156.734C245.436 156.734 251.473 137.684 250.115 121.979C254.46 104.717 251.005 85.3217 251.005 85.3217L242.387 83.7773Z" fill="#EEC1BB"/>
<path d="M238.143 162.616C238.57 162.361 239.04 162.185 239.53 162.098C239.53 162.098 241.128 160.908 242.395 156.821L244.297 156.603C244.956 156.539 245.586 156.894 245.872 157.491C245.913 157.572 245.941 157.659 245.955 157.749C245.985 158.21 245.986 158.674 245.957 159.136C245.941 160.578 245.332 163.733 245.332 163.733L245 163.686L245.278 160.783C245.368 159.797 244.456 160.839 244.092 161.863C243.727 162.886 243.113 163.944 240.959 163.692C238.449 163.386 237.423 163.14 238.143 162.616Z" fill="black"/>
<path d="M245.954 157.572C246.214 156.61 246.493 154.914 246.493 154.914L242.355 154.787C242.355 154.787 242.574 156.792 241.961 158.188C244.089 157.941 245.954 157.572 245.954 157.572Z" fill="black"/>
<path d="M236.268 79.8379L230.891 117.011C230.891 117.011 248.399 119.727 255.407 118.138C255.407 118.138 257.126 96.6749 249.812 81.0685L236.268 79.8379Z" fill="black"/>
<path d="M219.989 66.6745L215.312 62.0536C215.312 62.0536 215.15 60.8157 214.698 60.4708C214.245 60.1258 211.037 58.9622 210.645 59.2208C210.253 59.4794 209.707 62.0726 210.255 62.5464C210.804 63.0206 213.722 63.6282 214.021 63.5772L219.08 69.5832L219.989 66.6745Z" fill="#EEC1BB"/>
<path d="M236.903 58.2266C234.886 59.2962 227.728 69.3034 226.673 69.8002C225.618 70.2971 217.558 63.7602 217.558 63.7602L216.199 66.0777C216.199 66.0777 222.812 75.4211 226.551 74.969C230.29 74.5169 237.448 66.6053 237.448 66.6053L236.903 58.2266Z" fill="#A72C2C"/>
<path opacity="0.1" d="M236.903 58.2266C234.886 59.2962 227.728 69.3034 226.673 69.8002C225.618 70.2971 217.558 63.7602 217.558 63.7602L216.199 66.0777C216.199 66.0777 222.812 75.4211 226.551 74.969C230.29 74.5169 237.448 66.6053 237.448 66.6053L236.903 58.2266Z" fill="white"/>
<path d="M218.012 63.971L217.454 63.4434L215.984 65.9299L216.512 66.9471L218.012 63.971Z" fill="#A72C2C"/>
<path opacity="0.2" d="M234.409 69.5375C236.081 67.9416 237.284 66.6169 237.284 66.6169L237.157 64.6277L236.529 62.6973C236.529 62.6973 233.708 65.2968 234.409 69.5375Z" fill="black"/>
<path d="M236.082 79.3793C235.517 69.4255 235.77 63.9543 236.027 61.2186C236.309 58.3031 236.758 58.1959 236.758 58.1959C236.758 58.1959 239.918 57.8876 242.666 57.9093C244.794 57.9821 246.917 58.2045 249.011 58.577C250.998 58.9066 252.954 59.3818 254.876 59.9939C254.555 60.9103 254.264 61.7792 253.994 62.5971C253.635 63.6758 253.313 64.6776 253.023 65.6108C252.479 67.3577 252.055 68.8686 251.717 70.2217C250.66 74.4085 250.437 77.0886 250.214 80.5991C250.214 80.5991 253.692 89.6858 254.37 96.3542L242.841 97.5974L241.259 90.929L239.677 97.8235L233.234 95.563L236.082 79.3793Z" fill="#A72C2C"/>
<path opacity="0.1" d="M236.082 79.3793C235.517 69.4255 235.77 63.9543 236.027 61.2186C236.309 58.3031 236.758 58.1959 236.758 58.1959C236.758 58.1959 239.918 57.8876 242.666 57.9093C244.794 57.9821 246.917 58.2045 249.011 58.577C250.998 58.9066 252.954 59.3818 254.876 59.9939C254.555 60.9103 254.264 61.7792 253.994 62.5971C253.635 63.6758 253.313 64.6776 253.023 65.6108C252.479 67.3577 252.055 68.8686 251.717 70.2217C250.66 74.4085 250.437 77.0886 250.214 80.5991C250.214 80.5991 253.692 89.6858 254.37 96.3542L242.841 97.5974L241.259 90.929L239.677 97.8235L233.234 95.563L236.082 79.3793Z" fill="white"/>
<path opacity="0.2" d="M251.233 72.668C251.387 71.9084 251.567 71.0992 251.789 70.2312C251.929 69.6796 252.083 69.1009 252.255 68.4861C251.816 66.9444 251.363 68.1493 251.363 68.1493C251.363 68.1493 250.911 70.0142 251.233 72.668Z" fill="black"/>
<path d="M242.87 58.5524C242.995 58.4841 243.143 58.424 243.3 58.3679C243.626 58.1107 244.022 57.4904 244.003 55.9831C243.996 55.4921 243.95 54.9107 243.839 54.2181L248.031 53.4355C248.031 53.4355 246.602 56.2562 247.795 58.3512C248.205 58.5338 248.449 58.7915 248.405 59.1329C248.091 61.5556 242.885 63.8966 242.885 63.8966C242.885 63.8966 240.341 59.9412 242.87 58.5524Z" fill="#EEC1BB"/>
<path opacity="0.2" d="M243.879 54.2181C243.989 54.9107 244.036 55.4921 244.043 55.9831C246.874 55.9831 248.071 53.4355 248.071 53.4355L243.879 54.2181Z" fill="black"/>
<path d="M246.248 42.4851C242.604 42.2853 241.325 44.1719 240.852 47.9125C240.262 52.5867 241.119 55.9779 245.73 55.2252C251.992 54.203 252.3 42.8165 246.248 42.4851Z" fill="#EEC1BB"/>
<path d="M243.323 47.9004C243.323 47.9004 242.766 48.8245 242.18 49.3534C242.18 49.3534 242.464 49.8661 243.118 49.8182L243.323 47.9004Z" fill="#D4827D"/>
<path d="M245.592 47.7756C245.569 48.0744 245.712 48.3294 245.911 48.3452C246.11 48.361 246.29 48.1314 246.314 47.8321C246.337 47.5333 246.195 47.2783 245.996 47.2624C245.796 47.2471 245.616 47.4767 245.592 47.7756Z" fill="black"/>
<path d="M246.005 47.2475L245.375 46.9414C245.375 46.9414 245.656 47.5138 246.005 47.2475Z" fill="black"/>
<path d="M241.756 47.3498C241.733 47.6486 241.876 47.9036 242.075 47.9194C242.274 47.9348 242.454 47.7051 242.478 47.4063C242.501 47.1075 242.359 46.8525 242.16 46.8367C241.961 46.8213 241.78 47.051 241.756 47.3498Z" fill="black"/>
<path d="M242.169 46.8212L241.539 46.5156C241.539 46.5156 241.82 47.0875 242.169 46.8212Z" fill="black"/>
<path d="M245.797 45.1333C245.797 45.1333 246.828 45.0564 247.347 45.7707" stroke="black" stroke-width="0.6862" stroke-miterlimit="10" stroke-linecap="round" stroke-linejoin="round"/>
<path d="M243.008 44.8881C243.008 44.8881 242.377 44.6146 241.539 45.1082" stroke="black" stroke-width="0.6862" stroke-miterlimit="10" stroke-linecap="round" stroke-linejoin="round"/>
<path d="M249.878 48.8592C249.878 48.8592 248.338 45.7718 248.723 43.4747C248.723 43.4747 241.664 40.1292 240.906 47.4391C240.906 47.4391 240.557 40.8923 246.829 41.0903C253.091 41.2884 252.572 50.451 249.187 53.0044C249.187 53.0044 250.83 50.7892 249.878 48.8592Z" fill="black"/>
<path d="M249.236 49.6069C249.293 49.0214 249.952 48.0616 251.037 48.2407C252.159 48.4256 252.57 50.7733 249.731 51.177C249.324 51.2349 249.118 50.8284 249.236 49.6069Z" fill="#EEC1BB"/>
<path d="M245.974 50.668C245.974 50.668 245.126 51.5722 243.883 51.5156" stroke="black" stroke-width="0.6862" stroke-miterlimit="10" stroke-linecap="round" stroke-linejoin="round"/>
<path d="M248.797 43.475C248.797 43.475 240.919 41.4288 240.262 48.8129" stroke="black" stroke-width="0.6862" stroke-miterlimit="10" stroke-linecap="round" stroke-linejoin="round"/>
<path d="M241.722 60.3555C241.722 60.3555 241.119 66.3412 242.102 71.7881C242.102 71.7881 244.428 63.3737 247.692 60.5123L243.938 61.049L241.722 60.3555Z" fill="#A72C2C"/>
<path opacity="0.5" d="M241.722 60.3555C241.722 60.3555 241.119 66.3412 242.102 71.7881C242.102 71.7881 244.428 63.3737 247.692 60.5123L243.938 61.049L241.722 60.3555Z" fill="white"/>
<path d="M247.791 57.661L243.984 60.478V57.4824C243.984 57.4824 240.905 58.6005 241.124 61.9984L243.651 60.8361V61.9984L244.243 60.8804L246.243 63.1607C246.243 63.1607 248.69 60.3094 248.944 59.4495C249.199 58.5896 247.791 57.661 247.791 57.661Z" fill="#A72C2C"/>
<path opacity="0.7" d="M247.791 57.661L243.984 60.478V57.4824C243.984 57.4824 240.905 58.6005 241.124 61.9984L243.651 60.8361V61.9984L244.243 60.8804L246.243 63.1607C246.243 63.1607 248.69 60.3094 248.944 59.4495C249.199 58.5896 247.791 57.661 247.791 57.661Z" fill="white"/>
<path d="M251.589 84.0557L248.089 67.3607C248.013 67.0003 247.695 66.7422 247.327 66.7422H236.54C236.204 66.7422 235.949 67.046 236.009 67.3765L238.924 83.7279C238.988 84.0905 239.298 84.3581 239.667 84.369L251.044 84.7058C251.394 84.7162 251.661 84.3974 251.589 84.0557Z" fill="black"/>
<path opacity="0.1" d="M251.589 84.0557L248.089 67.3607C248.013 67.0003 247.695 66.7422 247.327 66.7422H236.54C236.204 66.7422 235.949 67.046 236.009 67.3765L238.924 83.7279C238.988 84.0905 239.298 84.3581 239.667 84.369L251.044 84.7058C251.394 84.7162 251.661 84.3974 251.589 84.0557Z" fill="white"/>
<path d="M256.308 78.7321L250.746 75.2265C250.746 75.2265 250.321 74.0524 249.806 73.8133C249.29 73.5741 245.905 73.1283 245.578 73.4652C245.251 73.802 245.276 76.4522 245.914 76.7967C246.552 77.1416 249.532 77.1068 249.813 76.9924L256.047 81.7684L256.308 78.7321Z" fill="#EEC1BB"/>
<path d="M254.912 60.0352C254.912 60.0352 251.279 65.3138 251.806 69.8348L256.629 77.822L253.389 76.1641L251.919 78.9332C251.919 78.9332 255.649 84.6785 260.396 83.3222C265.143 81.9659 254.912 60.0352 254.912 60.0352Z" fill="#A72C2C"/>
<path opacity="0.1" d="M254.912 60.0352C254.912 60.0352 251.279 65.3138 251.806 69.8348L256.629 77.822L253.389 76.1641L251.919 78.9332C251.919 78.9332 255.649 84.6785 260.396 83.3222C265.143 81.9659 254.912 60.0352 254.912 60.0352Z" fill="white"/>
<path d="M253.803 76.0246L251.958 79.4533L251.543 78.4736L253.012 75.6855L253.803 76.0246Z" fill="#A72C2C"/>
<path d="M246.841 66.7422C246.417 66.7422 246.417 77.8637 246.417 77.8637L236.697 77.5816C236.697 77.5816 235.604 68.1803 236.697 66.7422H246.841Z" fill="white"/>
<path opacity="0.1" d="M246.841 66.7422C246.417 66.7422 246.417 77.8637 246.417 77.8637L236.697 77.5816C236.697 77.5816 235.604 68.1803 236.697 66.7422H246.841Z" fill="black"/>
<path d="M206.878 57.9513L216.069 61.8158C216.279 61.9045 216.376 62.1481 216.284 62.3566C216.194 62.5604 215.956 62.6545 215.751 62.5672L206.502 58.6462C206.473 58.6335 206.445 58.6177 206.419 58.5987L205.34 57.8008L206.755 57.921C206.797 57.9247 206.839 57.9346 206.878 57.9513Z" fill="black"/>
<path d="M176.653 77.0991L167.711 77.8947L164.13 75.8739C164.13 75.8739 152.647 69.4767 149.659 67.4559C148.75 66.8365 147.909 65.4892 147.181 63.9069C146.566 62.5777 146.033 61.0858 145.608 59.7341C145.404 59.0966 145.224 58.4863 145.07 57.9438C144.726 56.7367 144.514 55.8325 144.455 55.5883V55.5838C144.45 55.5522 144.446 55.5341 144.441 55.525V55.5205L144.464 55.5115L147.294 54.6118L149.659 53.8613C149.659 53.8613 149.767 54.4219 149.952 55.2764C150.002 55.507 150.056 55.7601 150.115 56.0314C150.165 56.2484 150.215 56.479 150.269 56.7186C150.866 59.3498 151.783 62.9394 152.448 63.5271C153.519 64.472 166.992 73.6541 167.471 73.8937C167.946 74.1333 172.241 73.8937 172.241 73.8937L176.653 77.0991Z" fill="#E4897B"/>
<path d="M144.4 42.7893C148.511 42.7291 151.129 55.476 151.129 55.476L145.708 58.1994C145.708 58.1994 143.264 54.3218 143.383 49.4193C143.503 44.5176 144.4 42.7893 144.4 42.7893Z" fill="#A72C2C"/>
<path opacity="0.5" d="M144.4 42.7893C148.511 42.7291 151.129 55.476 151.129 55.476L145.708 58.1994C145.708 58.1994 143.264 54.3218 143.383 49.4193C143.503 44.5176 144.4 42.7893 144.4 42.7893Z" fill="white"/>
<path d="M151.657 55.7402L150.192 56.6896L148.28 57.9284L145.531 59.7051L145.038 60.0261L144.441 58.2132L144.993 57.9148L145.355 57.7159L147.868 56.346L149.876 55.2474L150.879 54.7004L151.056 54.6055L151.657 55.7402Z" fill="#A72C2C"/>
<path opacity="0.2" d="M148.587 59.9697C148.619 61.5114 148.004 62.7953 147.168 63.8216C146.553 62.4924 146.019 61.0005 145.594 59.6488L145.101 59.9697L144.505 58.1568L145.056 57.8585C144.713 56.6514 144.5 55.7472 144.441 55.503V55.4985L144.446 55.485L144.45 55.4262L145.101 50.4531C145.101 50.4531 146.295 52.1666 147.281 54.5265C147.516 55.0826 147.737 55.6748 147.932 56.2897C147.999 56.5022 148.063 56.7192 148.121 56.9407C148.207 57.2481 148.28 57.5601 148.343 57.872C148.483 58.5637 148.574 59.269 148.587 59.9697Z" fill="black"/>
<path d="M143.805 159.751L147.588 160.15L148.298 151.991L144.515 151.592L143.805 159.751Z" fill="#E4897B"/>
<path d="M124.855 159.445H128.521L128.824 150.953H125.154L124.855 159.445Z" fill="#E4897B"/>
<path d="M129.078 159.045H124.625C124.475 159.046 124.345 159.15 124.313 159.297L123.59 162.561C123.528 162.853 123.715 163.14 124.007 163.202C124.047 163.21 124.086 163.214 124.126 163.214C125.567 163.19 126.616 163.102 128.426 163.102C129.54 163.102 132.902 163.218 134.441 163.218C135.979 163.218 136.18 161.698 135.551 161.558C132.725 160.943 130.598 160.089 129.694 159.278C129.526 159.124 129.306 159.041 129.078 159.045Z" fill="black"/>
<path d="M129.18 159.523C129.145 159.513 129.119 159.484 129.114 159.448C129.109 159.414 129.126 159.38 129.156 159.364C129.287 159.28 130.472 158.553 130.877 158.762C130.97 158.807 131.029 158.902 131.026 159.005C131.051 159.181 130.982 159.358 130.845 159.471C130.638 159.611 130.389 159.677 130.141 159.658C129.816 159.649 129.494 159.603 129.18 159.523ZM129.431 159.401C129.859 159.545 130.326 159.522 130.737 159.336C130.825 159.257 130.869 159.141 130.854 159.024C130.849 158.954 130.821 158.921 130.798 158.921C130.763 158.903 130.724 158.894 130.685 158.898C130.239 158.984 129.813 159.155 129.431 159.401Z" fill="#A72C2C"/>
<path d="M129.155 159.518C129.129 159.501 129.113 159.471 129.113 159.439C129.118 159.388 129.206 158.334 129.631 157.989C129.732 157.9 129.866 157.859 129.999 157.877C130.135 157.877 130.253 157.972 130.279 158.105C130.354 158.492 129.622 159.299 129.244 159.504H129.202C129.188 159.514 129.172 159.518 129.155 159.518ZM129.743 158.091C129.485 158.421 129.334 158.821 129.309 159.238C129.687 158.954 130.154 158.343 130.107 158.105C130.102 158.082 130.093 158.017 129.981 158.017H129.939C129.867 158.017 129.797 158.043 129.743 158.091Z" fill="#A72C2C"/>
<path d="M147.813 158.938H143.36C143.21 158.939 143.08 159.043 143.047 159.189L142.324 162.454C142.262 162.746 142.449 163.033 142.742 163.095C142.781 163.103 142.821 163.107 142.861 163.106C144.301 163.083 145.351 162.995 147.16 162.995C148.274 162.995 151.637 163.111 153.175 163.111C154.714 163.111 154.914 161.591 154.285 161.451C151.459 160.836 149.333 159.982 148.428 159.171C148.261 159.017 148.04 158.934 147.813 158.938Z" fill="black"/>
<path d="M148.129 159.417C148.094 159.408 148.068 159.378 148.064 159.342C148.058 159.308 148.075 159.274 148.106 159.258C148.236 159.174 149.421 158.447 149.826 158.657C149.919 158.701 149.978 158.796 149.976 158.899C150 159.076 149.931 159.253 149.794 159.366C149.587 159.506 149.339 159.572 149.09 159.552C148.765 159.543 148.443 159.498 148.129 159.417ZM148.381 159.295C148.808 159.44 149.275 159.417 149.686 159.23C149.774 159.152 149.818 159.035 149.803 158.918C149.798 158.848 149.77 158.815 149.747 158.815C149.712 158.797 149.674 158.789 149.635 158.792C149.188 158.878 148.763 159.049 148.381 159.295Z" fill="#A72C2C"/>
<path d="M148.105 159.413C148.078 159.395 148.062 159.366 148.063 159.334C148.067 159.283 148.156 158.229 148.58 157.884C148.681 157.795 148.815 157.754 148.949 157.771C149.085 157.771 149.202 157.867 149.228 158C149.303 158.387 148.571 159.194 148.193 159.399H148.151C148.138 159.408 148.121 159.413 148.105 159.413ZM148.692 157.986C148.435 158.316 148.283 158.716 148.259 159.133C148.636 158.849 149.103 158.238 149.056 158C149.052 157.977 149.042 157.912 148.93 157.912H148.888C148.816 157.912 148.747 157.938 148.692 157.986Z" fill="#A72C2C"/>
<path opacity="0.2" d="M144.385 151.592L148.168 151.991L147.798 156.2L144.016 155.8L144.385 151.592Z" fill="black"/>
<path opacity="0.2" d="M125.014 150.953H128.684L128.526 155.332H124.855L125.014 150.953Z" fill="black"/>
<path d="M126.603 76.5371H146.059C147.909 86.6387 153.699 122.386 149.545 154.237L142.958 153.42C142.958 153.42 143.568 111.136 137.752 95.5043C137.084 103.87 136.289 112.772 135.599 117.508C133.907 129.166 130.284 154.643 130.284 154.643H123.578C123.578 154.643 124.949 130.257 125.583 118.799C126.277 106.362 126.576 79.0915 126.603 76.5371Z" fill="#A72C2C"/>
<path opacity="0.2" d="M137.844 95.4898C138.702 97.7932 139.415 100.67 140.017 103.906C140.561 96.4623 138.385 88.5664 138.385 88.5664L137.844 95.4898Z" fill="black"/>
<path d="M150.469 155.701L142.316 154.488L142.566 152.23L151.046 153.344L150.469 155.701Z" fill="#A72C2C"/>
<path opacity="0.6" d="M150.469 155.701L142.316 154.488L142.566 152.23L151.046 153.344L150.469 155.701Z" fill="white"/>
<path d="M131.057 154.748H123.148V152.384L131.356 152.23L131.057 154.748Z" fill="#A72C2C"/>
<path opacity="0.6" d="M131.057 154.748H123.148V152.384L131.356 152.23L131.057 154.748Z" fill="white"/>
<path d="M126.574 79.8309L126.559 77.0144L146.384 75.791L146.524 78.5199L126.574 79.8309Z" fill="black"/>
<path d="M131.711 76.3242H130.816V80.4519H131.711V76.3242Z" fill="#A72C2C"/>
<path d="M145.333 74.9818L144.441 75.0469L144.742 79.1634L145.634 79.0983L145.333 74.9818Z" fill="#A72C2C"/>
<path d="M146.412 75.7918L126.584 77.2701C126.606 75.5341 126.538 73.5991 126.407 71.5556C126.163 67.7806 125.697 63.6485 125.178 59.774C124.074 51.5414 122.723 44.4751 122.723 44.4751C131.945 42.1468 144.319 42.7526 144.319 42.7526C147.534 54.7829 146.412 75.7918 146.412 75.7918Z" fill="#A72C2C"/>
<path opacity="0.6" d="M146.412 75.7918L126.584 77.2701C126.606 75.5341 126.538 73.5991 126.407 71.5556C126.163 67.7806 125.697 63.6485 125.178 59.774C124.074 51.5414 122.723 44.4751 122.723 44.4751C131.945 42.1468 144.319 42.7526 144.319 42.7526C147.534 54.7829 146.412 75.7918 146.412 75.7918Z" fill="white"/>
<path d="M129.75 43.2696C131.536 44.8922 135.912 44.2923 135.912 44.2923C135.912 44.2923 138.643 43.5445 138.069 42.6914C136.46 42.4256 135.681 41.6751 135.36 40.7144C135.173 40.1547 135.145 39.5254 135.196 38.8771C135.22 38.5366 135.271 38.1917 135.332 37.8513L129.923 33.8457C130.631 36.4896 131.498 41.3532 129.75 43.2696Z" fill="#E4897B"/>
<path opacity="0.2" d="M131.242 36.4004C131.456 39.646 134.124 40.5411 135.43 40.7229C135.243 40.1632 135.215 39.5339 135.266 38.8856L131.242 36.4004Z" fill="black"/>
<path d="M140.309 26.075C141.623 27.3246 141.078 31.1268 138.396 33.0694C135.715 35.0125 135.715 25.6085 135.715 25.6085C135.715 25.6085 139.473 25.2794 140.309 26.075Z" fill="black"/>
<path d="M130.604 37.1524C131.905 39.0223 134.027 39.5119 135.869 38.9292C137.053 38.5562 138.121 37.7352 138.783 36.5557C138.872 36.4019 138.951 36.2387 139.025 36.0706C140.345 32.9836 140.765 27.5838 137.501 25.5602C135.183 24.1009 132.115 24.7957 130.655 27.1177C130.236 27.775 129.984 28.526 129.909 29.3045C129.508 32.9136 129.102 35.0167 130.604 37.1524Z" fill="#E4897B"/>
<path d="M135.308 31.2307C135.238 31.516 135.37 31.7832 135.564 31.8162C135.757 31.8488 135.949 31.6363 136 31.3465C136.051 31.0567 135.933 30.7927 135.744 30.761C135.555 30.7294 135.36 30.936 135.308 31.2307Z" fill="black"/>
<path d="M138.499 31.7637C138.429 32.049 138.566 32.3175 138.755 32.3492C138.944 32.3808 139.14 32.1692 139.191 31.8795C139.242 31.5897 139.124 31.3256 138.935 31.294C138.746 31.2623 138.547 31.4875 138.499 31.7637Z" fill="black"/>
<path d="M137.471 31.7168C137.666 32.6671 137.991 33.5862 138.438 34.4479C137.983 34.6685 137.454 34.6767 136.992 34.4701L137.471 31.7168Z" fill="#DE5753"/>
<path d="M134.339 29.9487C134.401 29.9686 134.469 29.9537 134.517 29.9103C134.831 29.6006 135.273 29.4573 135.71 29.5242C135.802 29.5468 135.895 29.4903 135.918 29.398C135.941 29.3054 135.885 29.2122 135.792 29.1892H135.791C135.242 29.0906 134.679 29.2647 134.281 29.6562C134.21 29.7195 134.203 29.8284 134.266 29.8999C134.267 29.9008 134.268 29.9021 134.269 29.903C134.29 29.9216 134.314 29.9369 134.339 29.9487Z" fill="black"/>
<path d="M136.183 35.9045C135.315 35.8882 134.509 35.4497 134.024 34.7295C133.999 34.6856 134.013 34.6296 134.056 34.6038C134.098 34.5776 134.152 34.5893 134.179 34.6305C134.18 34.6323 134.181 34.6345 134.183 34.6364C134.645 35.2932 135.39 35.6943 136.192 35.7182C136.241 35.7182 136.281 35.7575 136.281 35.8064C136.281 35.8095 136.281 35.8132 136.281 35.8163C136.281 35.8651 136.241 35.9049 136.193 35.9054C136.189 35.9049 136.186 35.9049 136.183 35.9045Z" fill="black"/>
<path d="M140.191 30.851C140.221 30.8695 140.256 30.8776 140.291 30.8754C140.382 30.8501 140.437 30.7551 140.411 30.6634C140.411 30.662 140.411 30.6611 140.41 30.6597C140.266 30.1186 139.868 29.6814 139.343 29.4879C139.251 29.4603 139.155 29.5119 139.127 29.6032C139.103 29.6945 139.153 29.7895 139.243 29.8193C139.653 29.9843 139.961 30.3333 140.074 30.761C140.098 30.8062 140.141 30.8392 140.191 30.851Z" fill="black"/>
<path d="M133.376 25.2231V26.8353C132.821 27.0491 132.435 27.5989 132.599 28.254C132.949 29.6527 131.938 31.6329 130.811 32.3341C130.811 32.3341 130.85 31.7514 130.345 31.8287C129.84 31.9064 129.607 34.9373 130.384 36.4916C130.384 36.4916 129.102 35.0151 128.674 31.7509C128.279 28.7323 128.483 26.2815 129.223 25.2227L133.376 25.2231Z" fill="black"/>
<path d="M127.908 31.8802C128.167 32.7577 128.763 33.4969 129.566 33.9354C130.633 34.5087 131.431 33.6167 131.358 32.4702C131.284 31.4521 130.651 29.895 129.469 29.806C128.287 29.7165 127.604 30.7988 127.908 31.8802Z" fill="#E4897B"/>
<path d="M128.472 27.967C128.472 27.967 127.357 25.2875 130.264 23.3204C133.172 21.3529 140.131 23.645 140.616 25.2414C141.102 26.8377 135.874 29.7524 128.472 27.967Z" fill="black"/>
<path d="M130.48 41.6508L134.907 44.0736L135.511 40.7656L138.612 42.7829V47.0068L135.329 45.0492L133.024 48.5069L128.473 43.5062L130.48 41.6508Z" fill="#A72C2C"/>
<path d="M140.732 79.3036L137.251 79.4962C136.961 79.512 136.714 79.29 136.697 79.0002L136.567 76.6457C136.551 76.3559 136.773 76.1082 137.063 76.0919L140.544 75.8993C140.834 75.883 141.082 76.105 141.098 76.3948L141.228 78.7493C141.244 79.0395 141.022 79.2877 140.732 79.3036Z" fill="white"/>
<path opacity="0.5" d="M130.48 41.6508L134.907 44.0736L135.511 40.7656L138.612 42.7829V47.0068L135.329 45.0492L133.024 48.5069L128.473 43.5062L130.48 41.6508Z" fill="white"/>
<path opacity="0.2" d="M133.403 70.7291C132.087 72.7093 127.878 72.6966 126.296 71.6039C126.052 67.8289 125.586 63.6967 125.066 59.8223L133.403 70.7291Z" fill="black"/>
<path d="M126.666 55.457C126.666 55.457 127.601 61.549 128.517 62.7412C129.434 63.9334 148.392 74.3067 148.392 74.3067L154.95 73.8298L157.967 77.2874C157.967 77.2874 149.227 78.6446 148.273 78.3833C147.319 78.122 146.589 77.7291 146.589 77.7291C146.589 77.7291 126.691 69.8947 125.022 68.1062C123.353 66.3177 121.445 57.1257 121.445 57.1257L126.666 55.457Z" fill="#E4897B"/>
<path d="M122.696 44.5186C126.167 43.7943 127.96 58.204 127.96 58.204L120.86 60.0174C120.86 60.0174 118.423 45.4097 122.696 44.5186Z" fill="#A72C2C"/>
<path opacity="0.5" d="M122.696 44.5186C126.167 43.7943 127.96 58.204 127.96 58.204L120.86 60.0174C120.86 60.0174 118.423 45.4097 122.696 44.5186Z" fill="white"/>
<path d="M120.383 59.7082L128.349 57.8008V59.172L120.741 61.3778L120.383 59.7082Z" fill="#A72C2C"/>
<path d="M147.904 149.767V87.7792C147.904 85.0965 147.081 82.4789 145.547 80.2785L143.383 77.1758H181.856L184.019 80.2785C185.554 82.4789 186.377 85.097 186.377 87.7792V149.163" stroke="black" stroke-width="6" stroke-miterlimit="10" stroke-linecap="round" stroke-linejoin="round"/>
<path d="M229.764 163.285C231.963 163.285 233.746 161.502 233.746 159.303C233.746 157.103 231.963 155.32 229.764 155.32C227.564 155.32 225.781 157.103 225.781 159.303C225.781 161.502 227.564 163.285 229.764 163.285Z" fill="black"/>
<path opacity="0.4" d="M231.682 159.335C231.682 158.235 230.791 157.344 229.691 157.344C228.591 157.344 227.699 158.235 227.699 159.335C227.699 160.435 228.591 161.327 229.691 161.327C230.791 161.327 231.682 160.435 231.682 159.335Z" fill="white"/>
<path d="M229.343 160.186C228.706 160.186 228.138 159.789 227.919 159.191L225.57 152.764H230.857V158.671C230.858 159.508 230.179 160.186 229.343 160.186Z" fill="black"/>
<path opacity="0.2" d="M229.343 160.186C228.706 160.186 228.138 159.789 227.919 159.191L225.57 152.764H230.857V158.671C230.858 159.508 230.179 160.186 229.343 160.186Z" fill="white"/>
<path d="M185.268 163.285C187.467 163.285 189.25 161.502 189.25 159.303C189.25 157.103 187.467 155.32 185.268 155.32C183.068 155.32 181.285 157.103 181.285 159.303C181.285 161.502 183.068 163.285 185.268 163.285Z" fill="black"/>
<path opacity="0.4" d="M187.186 159.335C187.186 158.235 186.295 157.344 185.195 157.344C184.095 157.344 183.203 158.235 183.203 159.335C183.203 160.435 184.095 161.327 185.195 161.327C186.295 161.327 187.186 160.435 187.186 159.335Z" fill="white"/>
<path d="M184.842 160.186C184.206 160.186 183.638 159.789 183.419 159.191L181.07 152.764H186.357V158.671C186.357 159.508 185.679 160.186 184.842 160.186Z" fill="black"/>
<path opacity="0.2" d="M184.842 160.186C184.206 160.186 183.638 159.789 183.419 159.191L181.07 152.764H186.357V158.671C186.357 159.508 185.679 160.186 184.842 160.186Z" fill="white"/>
<path d="M236.447 148.186V151.947C236.447 152.648 235.877 153.217 235.177 153.217H146.145C145.445 153.217 144.875 152.648 144.875 151.947V148.186H236.447Z" fill="black"/>
<path opacity="0.4" d="M236.447 148.186V151.947C236.447 152.648 235.877 153.217 235.177 153.217H146.145C145.445 153.217 144.875 152.648 144.875 151.947V148.186H236.447Z" fill="white"/>
<path opacity="0.2" d="M204.8 148.186V151.947C204.8 152.648 204.231 153.217 203.53 153.217H146.145C145.445 153.217 144.875 152.648 144.875 151.947V148.186H204.8Z" fill="white"/>
<path d="M197.404 163.285C199.604 163.285 201.387 161.502 201.387 159.303C201.387 157.103 199.604 155.32 197.404 155.32C195.205 155.32 193.422 157.103 193.422 159.303C193.422 161.502 195.205 163.285 197.404 163.285Z" fill="black"/>
<path opacity="0.6" d="M199.323 159.335C199.323 158.235 198.431 157.344 197.331 157.344C196.231 157.344 195.34 158.235 195.34 159.335C195.34 160.435 196.231 161.327 197.331 161.327C198.431 161.327 199.323 160.435 199.323 159.335Z" fill="white"/>
<path d="M196.979 160.186C196.343 160.186 195.774 159.789 195.556 159.191L193.207 152.764H198.494V158.671C198.494 159.508 197.816 160.186 196.979 160.186Z" fill="black"/>
<path opacity="0.4" d="M196.979 160.186C196.343 160.186 195.774 159.789 195.556 159.191L193.207 152.764H198.494V158.671C198.494 159.508 197.816 160.186 196.979 160.186Z" fill="white"/>
<path d="M153.111 163.285C155.311 163.285 157.094 161.502 157.094 159.303C157.094 157.103 155.311 155.32 153.111 155.32C150.912 155.32 149.129 157.103 149.129 159.303C149.129 161.502 150.912 163.285 153.111 163.285Z" fill="black"/>
<path opacity="0.6" d="M155.03 159.335C155.03 158.235 154.138 157.344 153.038 157.344C151.938 157.344 151.047 158.235 151.047 159.335C151.047 160.435 151.938 161.327 153.038 161.327C154.138 161.327 155.03 160.435 155.03 159.335Z" fill="white"/>
<path d="M152.69 160.186C152.054 160.186 151.485 159.789 151.267 159.191L148.918 152.764H154.205V158.671C154.205 159.508 153.527 160.186 152.69 160.186Z" fill="black"/>
<path opacity="0.4" d="M152.69 160.186C152.054 160.186 151.485 159.789 151.267 159.191L148.918 152.764H154.205V158.671C154.205 159.508 153.527 160.186 152.69 160.186Z" fill="white"/>
<path d="M198.103 119.016H155.945V148.198H198.103V119.016Z" fill="#A72C2C"/>
<path opacity="0.4" d="M198.103 119.016H155.945V148.198H198.103V119.016Z" fill="white"/>
<path opacity="0.2" d="M175.508 119.016H155.945V148.198H175.508V119.016Z" fill="white"/>
<path opacity="0.2" d="M173.713 146.185H171.269C171.038 146.185 170.852 145.998 170.852 145.768V142.429C170.852 142.198 171.038 142.012 171.269 142.012H173.713C173.944 142.012 174.131 142.198 174.131 142.429V145.768C174.131 145.998 173.944 146.185 173.713 146.185Z" fill="black"/>
<path opacity="0.2" d="M169.241 146.185H166.796C166.566 146.185 166.379 145.998 166.379 145.768V142.429C166.379 142.198 166.566 142.012 166.796 142.012H169.241C169.471 142.012 169.658 142.198 169.658 142.429V145.768C169.658 145.998 169.471 146.185 169.241 146.185Z" fill="black"/>
<path opacity="0.4" d="M188.99 119.016H186.605V122.056H188.99V119.016Z" fill="black"/>
<path opacity="0.2" d="M195.564 131.473H179.152V135.288H195.564V131.473Z" fill="black"/>
<path opacity="0.2" d="M162.833 120.506H157.223V126.116H162.833V120.506Z" fill="black"/>
<path d="M202.572 89.7402H160.414V118.923H202.572V89.7402Z" fill="#A72C2C"/>
<path opacity="0.4" d="M202.572 89.7402H160.414V118.923H202.572V89.7402Z" fill="black"/>
<path opacity="0.2" d="M179.977 89.7402H160.414V118.923H179.977V89.7402Z" fill="white"/>
<path opacity="0.2" d="M178.182 116.91H175.738C175.507 116.91 175.32 116.723 175.32 116.492V113.154C175.32 112.923 175.507 112.736 175.738 112.736H178.182C178.413 112.736 178.599 112.923 178.599 113.154V116.492C178.599 116.723 178.413 116.91 178.182 116.91Z" fill="black"/>
<path opacity="0.2" d="M173.709 116.91H171.265C171.034 116.91 170.848 116.723 170.848 116.492V113.154C170.848 112.923 171.034 112.736 171.265 112.736H173.709C173.94 112.736 174.127 112.923 174.127 113.154V116.492C174.127 116.723 173.94 116.91 173.709 116.91Z" fill="black"/>
<path opacity="0.4" d="M193.459 89.7402H191.074V92.7806H193.459V89.7402Z" fill="black"/>
<path opacity="0.2" d="M200.033 102.195H183.621V106.011H200.033V102.195Z" fill="black"/>
<path opacity="0.2" d="M167.302 91.2305H161.691V96.841H167.302V91.2305Z" fill="black"/>
<path d="M228.122 89.7402H185.965V118.923H228.122V89.7402Z" fill="#A72C2C"/>
<path opacity="0.4" d="M228.122 89.7402H185.965V118.923H228.122V89.7402Z" fill="white"/>
<path opacity="0.2" d="M205.527 89.7402H185.965V118.923H205.527V89.7402Z" fill="white"/>
<path opacity="0.2" d="M203.733 116.91H201.288C201.058 116.91 200.871 116.723 200.871 116.492V113.154C200.871 112.923 201.058 112.736 201.288 112.736H203.733C203.963 112.736 204.15 112.923 204.15 113.154V116.492C204.15 116.723 203.963 116.91 203.733 116.91Z" fill="black"/>
<path opacity="0.2" d="M199.26 116.91H196.816C196.585 116.91 196.398 116.723 196.398 116.492V113.154C196.398 112.923 196.585 112.736 196.816 112.736H199.26C199.491 112.736 199.677 112.923 199.677 113.154V116.492C199.677 116.723 199.491 116.91 199.26 116.91Z" fill="black"/>
<path opacity="0.4" d="M219.01 89.7402H216.625V92.7806H219.01V89.7402Z" fill="black"/>
<path opacity="0.2" d="M225.583 102.195H209.172V106.011H225.583V102.195Z" fill="black"/>
<path opacity="0.2" d="M192.853 91.2305H187.242V96.841H192.853V91.2305Z" fill="black"/>
<path d="M213.646 60.5684H171.488V89.7512H213.646V60.5684Z" fill="#A72C2C"/>
<path opacity="0.2" d="M191.051 60.5684H171.488V89.7512H191.051V60.5684Z" fill="white"/>
<path opacity="0.2" d="M189.256 87.7378H186.812C186.581 87.7378 186.395 87.551 186.395 87.3205V83.9817C186.395 83.7512 186.581 83.5645 186.812 83.5645H189.256C189.487 83.5645 189.674 83.7512 189.674 83.9817V87.3205C189.674 87.551 189.486 87.7378 189.256 87.7378Z" fill="black"/>
<path opacity="0.2" d="M184.784 87.7378H182.339C182.109 87.7378 181.922 87.551 181.922 87.3205V83.9817C181.922 83.7512 182.109 83.5645 182.339 83.5645H184.784C185.014 83.5645 185.201 83.7512 185.201 83.9817V87.3205C185.201 87.551 185.014 87.7378 184.784 87.7378Z" fill="black"/>
<path opacity="0.4" d="M204.533 60.5684H202.148V63.6087H204.533V60.5684Z" fill="black"/>
<path opacity="0.2" d="M211.107 73.0254H194.695V76.8411H211.107V73.0254Z" fill="black"/>
<path opacity="0.2" d="M178.376 62.0586H172.766V67.6691H178.376V62.0586Z" fill="black"/>
<path d="M224.931 119.016H182.773V148.198H224.931V119.016Z" fill="black"/>
<path opacity="0.2" d="M224.931 119.016H182.773V148.198H224.931V119.016Z" fill="white"/>
<path opacity="0.2" d="M202.336 119.016H182.773V148.198H202.336V119.016Z" fill="white"/>
<path opacity="0.2" d="M200.541 146.185H198.097C197.866 146.185 197.68 145.998 197.68 145.768V142.429C197.68 142.198 197.866 142.012 198.097 142.012H200.541C200.772 142.012 200.959 142.198 200.959 142.429V145.768C200.959 145.998 200.772 146.185 200.541 146.185Z" fill="black"/>
<path opacity="0.2" d="M196.069 146.185H193.624C193.394 146.185 193.207 145.998 193.207 145.768V142.429C193.207 142.198 193.394 142.012 193.624 142.012H196.069C196.299 142.012 196.486 142.198 196.486 142.429V145.768C196.486 145.998 196.299 146.185 196.069 146.185Z" fill="black"/>
<path opacity="0.4" d="M215.818 119.016H213.434V122.056H215.818V119.016Z" fill="black"/>
<path opacity="0.2" d="M222.392 131.473H205.98V135.288H222.392V131.473Z" fill="black"/>
<path opacity="0.2" d="M189.661 120.506H184.051V126.116H189.661V120.506Z" fill="black"/>
</svg>
